<svg width="24" height="24" viewBox="0 0 24 24" fill="none" xmlns="http://www.w3.org/2000/svg">
<g id="close">
<path id="Vector" d="M13.5922 12.0004L18.0453 7.54724C18.2566 7.33627 18.3755 7.04998 18.3758 6.75136C18.376 6.45274 18.2577 6.16624 18.0467 5.9549C17.8357 5.74355 17.5494 5.62467 17.2508 5.62441C16.9522 5.62414 16.6657 5.74252 16.4543 5.95349L12.0012 10.4066L7.54809 5.95349C7.33675 5.74215 7.05011 5.62341 6.75122 5.62341C6.45233 5.62341 6.16569 5.74215 5.95434 5.95349C5.743 6.16483 5.62427 6.45148 5.62427 6.75036C5.62427 7.04925 5.743 7.3359 5.95434 7.54724L10.4075 12.0004L5.95434 16.4535C5.743 16.6648 5.62427 16.9515 5.62427 17.2504C5.62427 17.5493 5.743 17.8359 5.95434 18.0472C6.16569 18.2586 6.45233 18.3773 6.75122 18.3773C7.05011 18.3773 7.33675 18.2586 7.54809 18.0472L12.0012 13.5941L16.4543 18.0472C16.6657 18.2586 16.9523 18.3773 17.2512 18.3773C17.5501 18.3773 17.8367 18.2586 18.0481 18.0472C18.2594 17.8359 18.3782 17.5493 18.3782 17.2504C18.3782 16.9515 18.2594 16.6648 18.0481 16.4535L13.5922 12.0004Z" fill="#373737"/>
</g>
</svg>
