<?xml version="1.0" encoding="utf-8"?>
<!-- Generator: Adobe Illustrator 27.5.0, SVG Export Plug-In . SVG Version: 6.00 Build 0)  -->
<svg version="1.1" xmlns="http://www.w3.org/2000/svg" xmlns:xlink="http://www.w3.org/1999/xlink" x="0px" y="0px"
	 viewBox="0 0 500 500" style="enable-background:new 0 0 500 500;" xml:space="preserve">
<g id="BACKGROUND">
	<g>
		<rect x="0.037" style="fill:#41B4E6;" width="500" height="500"/>
		<g>
			<path style="fill:none;stroke:#AFE6FF;stroke-width:1.0852;stroke-miterlimit:10;" d="M468,208.641h8.083
				c2.992,0,5.417,2.425,5.417,5.417v86.528c0,2.992-2.425,5.417-5.417,5.417H314.39c-1.044,0-1.89-0.846-1.89-1.89l0,0
				c0-1.119-0.967-1.993-2.081-1.88l-16.978,1.723"/>
			<g>
				<polygon style="fill:none;stroke:#AFE6FF;stroke-miterlimit:10;" points="302.667,291.695 272,291.695 272,208.002 
					287.333,175.502 302.667,208.002 				"/>
				<line style="fill:none;stroke:#AFE6FF;stroke-miterlimit:10;" x1="272" y1="208.002" x2="302.667" y2="208.002"/>
				<rect x="369.083" y="109.335" style="fill:#41B4E6;stroke:#AFE6FF;stroke-miterlimit:10;" width="54.25" height="4.417"/>
				
					<rect x="415.098" y="128.244" transform="matrix(0.7071 0.7071 -0.7071 0.7071 221.7671 -274.4897)" style="fill:#41B4E6;stroke:#AFE6FF;stroke-miterlimit:10;" width="54.25" height="4.417"/>
				<path style="fill:#41B4E6;stroke:#AFE6FF;stroke-miterlimit:10;" d="M373.5,113.752c0,2.439-1.977,4.417-4.417,4.417
					c-2.439,0-4.417-1.977-4.417-4.417c0-2.439,1.978-4.417,4.417-4.417C371.523,109.335,373.5,111.313,373.5,113.752z"/>
				<line style="fill:none;stroke:#AFE6FF;stroke-miterlimit:10;" x1="156.386" y1="350.886" x2="257.053" y2="350.886"/>
				<line style="fill:none;stroke:#AFE6FF;stroke-miterlimit:10;" x1="123.498" y1="337.666" x2="144.502" y2="337.666"/>
				<path style="fill:none;stroke:#AFE6FF;stroke-miterlimit:10;" d="M375.806,139.002c0,3.667-2.973,6.639-6.639,6.639
					s-6.639-2.972-6.639-6.639c0-3.667,2.972-6.639,6.639-6.639S375.806,135.335,375.806,139.002z"/>
				<polygon style="fill:#41B4E6;stroke:#AFE6FF;stroke-miterlimit:10;" points="382.333,139.002 356,139.002 362,114.669 
					376.333,114.669 				"/>
				<path style="fill:#41B4E6;stroke:#AFE6FF;stroke-miterlimit:10;" d="M427.083,109.71c0,2.232-1.809,4.042-4.042,4.042
					c-2.232,0-4.042-1.81-4.042-4.042c0-2.232,1.81-4.042,4.042-4.042C425.274,105.669,427.083,107.478,427.083,109.71z"/>
				
					<rect x="434.688" y="175.95" transform="matrix(0.0018 1 -1 0.0018 639.1352 -283.9759)" style="fill:#41B4E6;stroke:#AFE6FF;stroke-miterlimit:10;" width="54.25" height="4.417"/>
				<path style="fill:#41B4E6;stroke:#AFE6FF;stroke-miterlimit:10;" d="M465.729,152.78c-1.576,1.581-4.135,1.586-5.716,0.01
					s-1.586-4.135-0.01-5.716c1.576-1.581,4.135-1.586,5.716-0.01C467.299,148.639,467.304,151.199,465.729,152.78z"/>
				<polygon style="fill:#41B4E6;stroke:#AFE6FF;stroke-width:1.0852;stroke-miterlimit:10;" points="433.5,212.002 469.5,212.002 
					466.5,205.28 436.5,205.28 				"/>
				
					<line style="fill:#41B4E6;stroke:#AFE6FF;stroke-width:1.0852;stroke-miterlimit:10;" x1="454.25" y1="201.752" x2="454.25" y2="205.28"/>
				
					<line style="fill:#41B4E6;stroke:#AFE6FF;stroke-width:1.0852;stroke-miterlimit:10;" x1="364.667" y1="113.752" x2="364.667" y2="126.835"/>
				
					<line style="fill:#41B4E6;stroke:#AFE6FF;stroke-width:1.0852;stroke-miterlimit:10;" x1="364.667" y1="130.452" x2="364.667" y2="134.131"/>
				
					<line style="fill:none;stroke:#AFE6FF;stroke-width:1.0852;stroke-miterlimit:10;" x1="369.083" y1="149.927" x2="369.083" y2="157.002"/>
				
					<line style="fill:none;stroke:#AFE6FF;stroke-width:1.0852;stroke-miterlimit:10;" x1="361" y1="147.752" x2="356" y2="153.465"/>
				
					<line style="fill:none;stroke:#AFE6FF;stroke-width:1.0852;stroke-miterlimit:10;" x1="357.25" y1="142.252" x2="350.75" y2="143.502"/>
				
					<line style="fill:none;stroke:#AFE6FF;stroke-width:1.0852;stroke-miterlimit:10;" x1="376.833" y1="147.752" x2="381.833" y2="153.465"/>
				
					<line style="fill:none;stroke:#AFE6FF;stroke-width:1.0852;stroke-miterlimit:10;" x1="380.583" y1="142.252" x2="387.083" y2="143.502"/>
				<g>
					<text transform="matrix(1 0 0 1 352.0905 195.5023)" style="fill:#2FA4D6; font-family:'SourceSansPro-It'; font-size:17px;">IDEA</text>
				</g>
				<text transform="matrix(1 0 0 1 243.9828 130.1688)" style="fill:#2FA4D6; font-family:'SourceSansPro-It'; font-size:17px;">CREATIVITY</text>
				<text transform="matrix(1 0 0 1 83.4079 195.5023)" style="fill:#2FA4D6; font-family:'SourceSansPro-It'; font-size:17px;">CONCEPT</text>
				<text transform="matrix(1 0 0 1 65.7514 137.0288)" style="fill:#2FA4D6; font-family:'SourceSansPro-It'; font-size:11px;">GRAPHIC</text>
				<text transform="matrix(1 0 0 1 303.1518 157.9369)" style="fill:#2FA4D6; font-family:'SourceSansPro-It'; font-size:13px;">WEB</text>
				<path style="fill:none;stroke:#AFE6FF;stroke-miterlimit:10;" d="M107.896,109.967H78.632c-4.119,0-7.459-3.339-7.459-7.458
					V89.37c0-4.119,3.339-7.458,7.459-7.458h29.263c4.119,0,7.458,3.339,7.458,7.458v13.138
					C115.354,106.628,112.015,109.967,107.896,109.967z"/>
				<line style="fill:none;stroke:#AFE6FF;stroke-miterlimit:10;" x1="100" y1="82.669" x2="100" y2="109.967"/>
				<line style="fill:none;stroke:#AFE6FF;stroke-miterlimit:10;" x1="115.354" y1="95.939" x2="100" y2="95.939"/>
				<path style="fill:#41B4E6;stroke:#AFE6FF;stroke-miterlimit:10;" d="M105,98.356h-8.313c-1.478,0-2.677-1.198-2.677-2.677l0,0
					c0-1.478,1.198-2.677,2.677-2.677H105c1.478,0,2.677,1.198,2.677,2.677l0,0C107.677,97.157,106.479,98.356,105,98.356z"/>
				<path style="fill:none;stroke:#AFE6FF;stroke-miterlimit:10;" d="M71.174,96.318H47.486c-4.942,0-8.949,4.007-8.949,8.949
					v43.721c0,4.942,4.006,8.949,8.949,8.949h20.482h96.44"/>
				<polygon style="fill:#AFE6FF;" points="281.996,187.074 292.67,187.074 287.333,175.502 				"/>
				<polygon style="fill:none;stroke:#AFE6FF;stroke-miterlimit:10;" points="216.86,193.649 207.053,183.843 216.86,163.299 
					226.667,183.843 				"/>
				<line style="fill:none;stroke:#AFE6FF;stroke-miterlimit:10;" x1="216.86" y1="163.299" x2="216.86" y2="178.474"/>
				<path style="fill:none;stroke:#AFE6FF;stroke-miterlimit:10;" d="M219.14,180.754c0,1.259-1.021,2.28-2.28,2.28
					s-2.28-1.021-2.28-2.28s1.021-2.28,2.28-2.28S219.14,179.495,219.14,180.754z"/>
				<rect x="211.22" y="189.305" style="fill:#41B4E6;stroke:#AFE6FF;stroke-miterlimit:10;" width="11.279" height="9.972"/>
				<line style="fill:#41B4E6;stroke:#AFE6FF;stroke-miterlimit:10;" x1="211.22" y1="194.291" x2="222.499" y2="194.291"/>
				<g>
					<g>
						<path style="fill:#41B4E6;stroke:#AFE6FF;stroke-miterlimit:10;" d="M144,133.669L144,133.669c-5.523,0-10-4.477-10-10V73.002
							h20v50.667C154,129.192,149.523,133.669,144,133.669z"/>
						<line style="fill:none;stroke:#AFE6FF;stroke-miterlimit:10;" x1="134" y1="82.669" x2="154" y2="82.669"/>
						<line style="fill:none;stroke:#AFE6FF;stroke-miterlimit:10;" x1="134" y1="93.669" x2="154" y2="93.669"/>
						<line style="fill:none;stroke:#AFE6FF;stroke-miterlimit:10;" x1="134" y1="104.669" x2="154" y2="104.669"/>
						<line style="fill:none;stroke:#AFE6FF;stroke-miterlimit:10;" x1="134" y1="115.669" x2="154" y2="115.669"/>
					</g>
					<g>
						<path style="fill:#41B4E6;stroke:#AFE6FF;stroke-miterlimit:10;" d="M140.293,133.152L140.293,133.152
							c-5.166-1.953-7.77-7.725-5.817-12.89l17.919-47.392l18.707,7.073l-17.919,47.392
							C151.23,132.501,145.459,135.105,140.293,133.152z"/>
						<line style="fill:none;stroke:#AFE6FF;stroke-miterlimit:10;" x1="148.977" y1="81.912" x2="167.684" y2="88.985"/>
						<line style="fill:none;stroke:#AFE6FF;stroke-miterlimit:10;" x1="145.086" y1="92.201" x2="163.794" y2="99.274"/>
						<line style="fill:none;stroke:#AFE6FF;stroke-miterlimit:10;" x1="141.196" y1="102.49" x2="159.903" y2="109.563"/>
						<line style="fill:none;stroke:#AFE6FF;stroke-miterlimit:10;" x1="137.306" y1="112.779" x2="156.013" y2="119.852"/>
					</g>
					<g>
						<path style="fill:#41B4E6;stroke:#AFE6FF;stroke-miterlimit:10;" d="M137.482,131.83L137.482,131.83
							c-4.304-3.461-4.987-9.756-1.525-14.06l31.754-39.482l15.585,12.534l-31.754,39.482
							C148.08,134.608,141.786,135.291,137.482,131.83z"/>
						<line style="fill:none;stroke:#AFE6FF;stroke-miterlimit:10;" x1="161.652" y1="85.821" x2="177.237" y2="98.356"/>
						<line style="fill:none;stroke:#AFE6FF;stroke-miterlimit:10;" x1="154.758" y1="94.393" x2="170.343" y2="106.927"/>
						<line style="fill:none;stroke:#AFE6FF;stroke-miterlimit:10;" x1="147.864" y1="102.965" x2="163.449" y2="115.499"/>
						<line style="fill:none;stroke:#AFE6FF;stroke-miterlimit:10;" x1="140.97" y1="111.536" x2="156.555" y2="124.071"/>
					</g>
					<g>
						<path style="fill:#41B4E6;stroke:#AFE6FF;stroke-miterlimit:10;" d="M133.911,126.655L133.911,126.655
							c-1.33-5.36,1.938-10.784,7.298-12.114l49.176-12.199l4.816,19.412l-49.176,12.199
							C140.664,135.283,135.241,132.015,133.911,126.655z"/>
						<line style="fill:none;stroke:#AFE6FF;stroke-miterlimit:10;" x1="181.003" y1="104.67" x2="185.819" y2="124.081"/>
						<line style="fill:none;stroke:#AFE6FF;stroke-miterlimit:10;" x1="170.327" y1="107.318" x2="175.142" y2="126.73"/>
						<line style="fill:none;stroke:#AFE6FF;stroke-miterlimit:10;" x1="159.65" y1="109.967" x2="164.466" y2="129.378"/>
						<line style="fill:none;stroke:#AFE6FF;stroke-miterlimit:10;" x1="148.974" y1="112.615" x2="153.789" y2="132.027"/>
					</g>
					<path style="fill:#41B4E6;stroke:#AFE6FF;stroke-miterlimit:10;" d="M147.481,124.259c0,2.159-1.751,3.91-3.91,3.91
						s-3.91-1.751-3.91-3.91c0-2.16,1.751-3.91,3.91-3.91S147.481,122.099,147.481,124.259z"/>
				</g>
				<path style="fill:none;stroke:#AFE6FF;stroke-miterlimit:10;" d="M229.526,139.308c0,6.996-5.671,12.667-12.667,12.667
					c-6.996,0-12.667-5.671-12.667-12.667"/>
				<line style="fill:none;stroke:#AFE6FF;stroke-miterlimit:10;" x1="204.193" y1="151.975" x2="229.526" y2="151.975"/>
				<rect x="202.422" y="135.766" style="fill:#41B4E6;stroke:#AFE6FF;stroke-miterlimit:10;" width="3.542" height="3.542"/>
				<rect x="227.756" y="135.766" style="fill:#41B4E6;stroke:#AFE6FF;stroke-miterlimit:10;" width="3.542" height="3.542"/>
				<rect x="215.297" y="150.204" style="fill:#41B4E6;stroke:#AFE6FF;stroke-miterlimit:10;" width="3.542" height="3.542"/>
				<rect x="214.579" y="65.196" style="fill:#41B4E6;stroke:#AFE6FF;stroke-miterlimit:10;" width="58.129" height="37.488"/>
				<path style="fill:none;stroke:#AFE6FF;stroke-miterlimit:10;" d="M226.667,83.94c0,2.65-2.149,4.799-4.799,4.799
					c-2.65,0-4.799-2.149-4.799-4.799c0-2.65,2.149-4.799,4.799-4.799C224.518,79.141,226.667,81.29,226.667,83.94z"/>
				<line style="fill:none;stroke:#AFE6FF;stroke-miterlimit:10;" x1="221.867" y1="76.669" x2="221.867" y2="68.169"/>
				<line style="fill:none;stroke:#AFE6FF;stroke-miterlimit:10;" x1="221.867" y1="99.669" x2="221.867" y2="91.169"/>
				<polygon style="fill:#41B4E6;stroke:#AFE6FF;stroke-miterlimit:10;" points="279.667,87.502 245.667,87.502 239.5,84.169 
					245.667,80.835 279.667,80.835 				"/>
				<line style="fill:none;stroke:#AFE6FF;stroke-miterlimit:10;" x1="245.667" y1="80.835" x2="245.667" y2="87.502"/>
				<polygon style="fill:#41B4E6;stroke:#AFE6FF;stroke-miterlimit:10;" points="311.25,80.835 346,65.196 342.938,96.369 				"/>
				<polygon style="fill:#41B4E6;stroke:#AFE6FF;stroke-linejoin:round;stroke-miterlimit:10;" points="346,65.196 323.264,86.725 
					323.264,98.356 330.188,90.119 				"/>
				<rect x="406.25" y="149.927" style="fill:#41B4E6;stroke:#AFE6FF;stroke-miterlimit:10;" width="24.575" height="24.575"/>
				<rect x="403.875" y="147.552" style="fill:#41B4E6;stroke:#AFE6FF;stroke-miterlimit:10;" width="4.75" height="4.75"/>
				<rect x="428.45" y="147.552" style="fill:#41B4E6;stroke:#AFE6FF;stroke-miterlimit:10;" width="4.75" height="4.75"/>
				<rect x="428.45" y="147.552" style="fill:#41B4E6;stroke:#AFE6FF;stroke-miterlimit:10;" width="4.75" height="4.75"/>
				<rect x="428.45" y="172.127" style="fill:#41B4E6;stroke:#AFE6FF;stroke-miterlimit:10;" width="4.75" height="4.75"/>
				<rect x="403.875" y="172.127" style="fill:#41B4E6;stroke:#AFE6FF;stroke-miterlimit:10;" width="4.75" height="4.75"/>
				<path style="fill:#41B4E6;stroke:#AFE6FF;stroke-miterlimit:10;" d="M426.49,98.356h-49.656V65.196H433.5v26.149
					C433.5,95.217,430.361,98.356,426.49,98.356z"/>
				<path style="fill:#41B4E6;stroke:#AFE6FF;stroke-miterlimit:10;" d="M427.667,85.567c3.552,0,5.491,2.489,5.833,5.218V58.002
					c0-3.176-2.574-5.75-5.75-5.75c-5.708,0-5.95,5.75-5.95,5.75v33.063C422.044,88.229,424,85.567,427.667,85.567z"/>
				<line style="fill:#41B4E6;stroke:#AFE6FF;stroke-miterlimit:10;" x1="383.833" y1="72.835" x2="412.833" y2="72.835"/>
				<line style="fill:#41B4E6;stroke:#AFE6FF;stroke-miterlimit:10;" x1="383.833" y1="79.835" x2="403.833" y2="79.835"/>
				<g>
					<circle style="fill:#41B4E6;stroke:#AFE6FF;stroke-miterlimit:10;" cx="457.906" cy="108.929" r="9.239"/>
					<circle style="fill:none;stroke:#AFE6FF;stroke-miterlimit:10;" cx="471.052" cy="108.929" r="9.239"/>
					
						<ellipse transform="matrix(0.7071 -0.7071 0.7071 0.7071 66.5864 357.4978)" style="fill:none;stroke:#AFE6FF;stroke-miterlimit:10;" cx="464.831" cy="98.372" rx="9.239" ry="9.239"/>
				</g>
			</g>
		</g>
	</g>
</g>
<g id="OBJECTS">
	<g>
		
			<text transform="matrix(1 0 0 1 53.1475 291.6954)" style="fill:#FFFFFF; font-family:'SourceSansPro-Black'; font-size:121.8653px;">DESIGN</text>
		<path style="fill:#0091C8;" d="M470.667,294.295c0,1.213-0.983,2.196-2.196,2.196H45.345c-1.213,0-2.196-0.983-2.196-2.196v-0.404
			c0-1.213,0.983-2.196,2.196-2.196h423.126c1.213,0,2.196,0.983,2.196,2.196V294.295z"/>
	</g>
	<rect x="69.294" y="386.663" style="fill:none;" width="361.036" height="55.544"/>
	<text transform="matrix(1 0 0 1 86.2947 391.6465)"><tspan x="0" y="0" style="fill:#FFFFFF; font-family:'SourceSansPro-Regular'; font-size:7px;">Lorem ipsum dolor sit amet, consectetuer adipiscing elit, sed diam nonummy nibh euismod </tspan><tspan x="-3.094" y="15" style="fill:#FFFFFF; font-family:'SourceSansPro-Regular'; font-size:7px;">tincidunt ut laoreet dolore magna aliquam erat volutpat. Ut wisi enim ad minim veniam, quis </tspan><tspan x="36.522" y="30" style="fill:#FFFFFF; font-family:'SourceSansPro-Regular'; font-size:7px;">nostrud exerci tation ullamcorper suscipit lobortis nisl ut aliquip ex ea </tspan></text>
	<g>
		<ellipse style="fill:#0091C8;" cx="281.41" cy="311.842" rx="22.558" ry="2.413"/>
		<path style="fill:#CD5014;" d="M286.07,269.972c-1.095,5.135-5.698,6.293-8.57,5.68c-2.872-0.613-1.686-5.735-1.216-7.942
			c0.471-2.206,3.028-2.888,5.9-2.275C285.056,266.048,286.541,267.766,286.07,269.972z"/>
		<polygon style="fill:#FA968C;" points="281.558,279.413 276.466,279.846 278.012,271.467 280.768,274.408 		"/>
		<path style="fill:#FAB9AF;" d="M291.619,282.357c1.6,2.944,7.169,17.272,5.228,18.327c-1.941,1.055-10.656-11.563-12.256-14.507
			s-1.325-6.185,0.616-7.241C287.148,277.882,290.019,279.413,291.619,282.357z"/>
		<path style="fill:#FAB9AF;" d="M269.996,290.706c-3.11,5.368-7.88,8.423-9.177,7.665c-1.356-0.793,0.105-6.167,2.995-11.413
			c2.993-5.434,6.31-9.159,8.268-8.025C274.041,280.067,273.107,285.338,269.996,290.706z"/>
		<path style="fill:#82BE50;" d="M288.611,292.268c-1.847-2.567-3.425-4.997-4.02-6.091c-1.6-2.944-1.325-6.185,0.616-7.241
			c1.941-1.055,4.811,0.476,6.412,3.42c0.616,1.133,1.817,3.949,2.953,7.047C292.699,292.08,288.611,292.268,288.611,292.268z"/>
		<path style="fill:#82BE50;" d="M263.814,286.957c2.993-5.434,6.31-9.159,8.268-8.025c1.857,1.076,1.109,5.874-1.626,10.945
			C270.456,289.878,265.115,289.174,263.814,286.957z"/>
		<path style="fill:#FA968C;" d="M271.917,278.677l14.51-0.079c2.892-0.016,4.953,2.801,4.064,5.553l-7.861,24.312
			c-0.938,2.902-3.766,4.763-6.803,4.476l0,0c-3.166-0.299-5.652-2.844-5.878-6.016l-1.726-24.257
			C268.07,280.518,269.765,278.689,271.917,278.677z"/>
		<path style="fill:#82BE50;" d="M271.917,278.677l4.442-0.024c-0.432,1.637,0.294,3.612,2.459,3.897
			c2.515,0.331,3.744-2.033,3.291-3.928l4.317-0.024c2.892-0.016,4.953,2.801,4.064,5.553l-7.861,24.312
			c-0.938,2.902-3.767,4.763-6.803,4.476c-3.166-0.299-5.652-2.843-5.878-6.016l-1.726-24.257
			C268.07,280.518,269.765,278.689,271.917,278.677z"/>
		<path style="fill:#FAB9AF;" d="M268.637,298.766c2.28,1.017,13.642,6.922,13.066,8.213c-0.576,1.291-12.922-2.913-15.147-4.045
			c-4.087-2.079-6.701-4.25-6.125-5.541S266.357,297.749,268.637,298.766z"/>
		<path style="fill:#FA968C;" d="M296.883,309.76c-4.122,1.252-30.375,7.51-31.377,5.396c-0.385-0.814,24.791-12.251,28.914-13.504
			c4.122-1.252,8.016-0.452,8.696,1.786C303.796,305.677,301.005,308.508,296.883,309.76z"/>
		<path style="fill:#003C63;" d="M274.625,310.271c7.527-3.564,17.353-7.878,19.794-8.619c4.122-1.252,8.016-0.452,8.696,1.787
			c0.68,2.239-2.11,5.069-6.233,6.322c-2.457,0.746-12.188,3.719-20.336,5.19C276.188,313.233,275.722,311.345,274.625,310.271z"/>
		<path style="fill:#FAB9AF;" d="M284.984,272.934c-0.789,3.696-1.89,5.362-3.789,4.957c-2.312-0.493-4.691-3.653-4.041-6.698
			c0.65-3.045,2.371-4.519,4.684-4.026C284.149,267.661,285.634,269.889,284.984,272.934z"/>
		<path style="fill:#FF9669;" d="M277.488,270.017l5.856,1.249c0.617,0.132,1.229,0.06,1.771-0.167
			c-0.161-2.084-1.462-3.545-3.278-3.932C279.847,266.743,278.296,267.779,277.488,270.017z"/>
		<path style="fill:#CD5014;" d="M283.465,270.699l-6.74-1.438l0.287-1.344c0.342-1.604,1.919-2.626,3.523-2.284l6.758,1.442
			l-0.283,1.325C286.666,270.014,285.079,271.043,283.465,270.699z"/>
		<path style="fill:#CD5014;" d="M278.163,271.966L278.163,271.966l0.715-3.352l1.463,0.312l-0.403,1.889
			C279.766,271.623,278.971,272.139,278.163,271.966z"/>
		<path style="fill:#FAB9AF;" d="M278.86,271.437c-0.215,1.008-0.707,1.757-1.527,1.582c-0.82-0.175-1.052-1.673-0.837-2.681
			s0.795-1.143,1.615-0.968C278.932,269.544,279.075,270.429,278.86,271.437z"/>
		<path style="fill:#FAB9AF;" d="M293.777,302.894c-2.31,0.788-15.139,4.232-15.571,2.967c-0.432-1.265,11.698-6.761,14.008-7.549
			c2.31-0.788,4.533-0.401,4.964,0.864C297.61,300.442,296.087,302.106,293.777,302.894z"/>
		<path style="fill:#FA968C;" d="M271.162,312.233c0,0-0.075,0.216-2.32-0.009c-2.245-0.224-2.513-1.13-4.254,1.008
			c-1.74,2.139-5.956,2.332-6.074,3.395c-0.118,1.063,16.794-2.202,16.794-2.202L271.162,312.233z"/>
		<path style="fill:#373C41;" d="M264.589,313.233c1.74-2.138,2.009-1.233,4.254-1.008c0.004,0,0.007,0.001,0.011,0.001
			c-1.921,0.512-2.984,2.139-3.192,3.892c-3.772,0.587-7.2,0.991-7.146,0.511C258.633,315.565,262.848,315.371,264.589,313.233z"/>
		<path style="fill:#FAB9AF;" d="M281.463,303.199c0,0,2.218,0.864,2.179,1.628c-0.039,0.764-0.206,1.271-1.32,1.255
			c-1.115-0.015-2.637-0.568-3.483-1.082s-1.901-1.974-1.911-2.205c-0.035-0.84,1.4,0.251,2.121,0.746
			c0.721,0.495,1.584,0.982,1.724,0.568c0.14-0.414-1.312-1.258-1.308-1.786C279.467,301.796,281.463,303.199,281.463,303.199z"/>
		<path style="fill:#AFE6FF;" d="M277.37,307.847l15.031-1.788c0.692-0.082,1.213-0.669,1.213-1.366v-9.565
			c0-0.824-0.72-1.463-1.538-1.366l-15.031,1.788c-0.692,0.082-1.213,0.669-1.213,1.366v9.565
			C275.832,307.306,276.551,307.945,277.37,307.847z"/>
		<path style="fill:#D2F0FF;" d="M282.605,300.992c0,1.636,1.034,2.963,2.31,2.963c1.276,0,2.31-1.327,2.31-2.963
			c0-1.636-1.034-2.963-2.31-2.963C283.639,298.029,282.605,299.355,282.605,300.992z"/>
		<path style="fill:#FAB9AF;" d="M268.283,301.041c4.184,1.027,26.388,10.167,26.665,12.755c0.06,0.565-24.923-2.14-29.107-3.167
			c-4.184-1.027-6.878-4.343-6.257-6.87C260.204,301.23,264.099,300.014,268.283,301.041z"/>
		<path style="fill:#FAB9AF;" d="M289.502,309.907c0,0,2.035,1.091,4.281,1.305c2.246,0.214,2.684-0.623,3.978,1.811
			c1.294,2.435,5.392,3.439,5.303,4.505c-0.09,1.066-16.052-5.406-16.052-5.406L289.502,309.907z"/>
		<path style="fill:#373C41;" d="M293.441,311.163c0.115,0.016,0.226,0.038,0.342,0.049c2.246,0.214,2.684-0.623,3.978,1.811
			c1.294,2.435,5.392,3.439,5.303,4.505c-0.04,0.476-3.241-0.55-6.773-1.832C296.331,313.795,295.379,311.873,293.441,311.163z"/>
		<path style="fill:#0073AA;" d="M259.584,303.758c0.62-2.528,4.515-3.744,8.699-2.717c2.423,0.595,10.888,3.911,17.639,7.099
			c-0.457,1.767-0.918,4.524-0.79,5.732c-7.373-0.759-16.929-2.664-19.292-3.244C261.656,309.602,258.963,306.285,259.584,303.758z"
			/>
	</g>
	<g>
		<path style="fill:#B80B5A;" d="M147.579,241.426c-0.109,2.93,2.178,5.393,5.108,5.501c2.93,0.109,5.393-2.178,5.501-5.108
			c0.109-2.93-2.178-5.393-5.108-5.501C150.15,236.21,147.688,238.497,147.579,241.426z"/>
		<path style="fill:#FAB9AF;" d="M146.681,242.402c-1.617,2.242-7.337,12.41-6.027,13.354c1.309,0.944,9.151-7.693,10.768-9.935
			s1.866-4.825,0.557-5.769C150.669,239.107,148.297,240.16,146.681,242.402z"/>
		<path style="fill:#FAB9AF;" d="M140.334,251.888c-1.465-1.056-11.037-7.212-11.621-6.403c-0.583,0.809,8.045,8.275,9.509,9.331
			c1.465,1.056,3.125,1.257,3.708,0.449C142.513,254.456,141.799,252.945,140.334,251.888z"/>
		<path style="fill:#FAB9AF;" d="M130.069,244.685c0,0-0.558,1.818-1.711,1.368c-1.153-0.451-1.637-3.822-1.048-4.469
			C127.899,240.937,128.778,243.068,130.069,244.685z"/>
		<path style="fill:#965028;" d="M130.516,244.145L130.516,244.145c0.166-0.265,0.085-0.614-0.179-0.779l-5.483-3.431
			c-0.265-0.166-0.613-0.085-0.779,0.179l0,0c-0.166,0.265-0.085,0.614,0.179,0.779l5.483,3.431
			C130.001,244.49,130.35,244.41,130.516,244.145z"/>
		<path style="fill:#FAB9AF;" d="M128.611,241.632c0.21,0.008,0.311,0.614,0.358,1.326c0.026,0.394,0.147,0.796,0.43,1.071
			c0.185,0.179,0.299,0.461,0.287,0.775c-0.019,0.525-0.38,0.937-0.805,0.921c-0.555-0.021-0.629-1.017-0.633-1.402
			C128.24,243.645,128.344,241.622,128.611,241.632z"/>
		<path style="fill:#DCBE82;" d="M124.127,238.85c0.563,0.303,0.773,1.005,0.47,1.568c-0.303,0.563-1.005,0.773-1.568,0.47
			c-0.563-0.303-1.777-1.546-1.474-2.109C122.559,239.32,123.564,238.547,124.127,238.85z"/>
		<path style="fill:#FF640A;" d="M124.127,238.85c0.563,0.303-0.535,2.341-1.098,2.038c-0.563-0.303-1.777-1.546-1.474-2.109
			C122.559,239.32,123.564,238.547,124.127,238.85z"/>
		<path style="fill:#FF640A;" d="M121.996,241.264c0,0.315-0.255,0.57-0.57,0.57c-0.315,0-0.57-0.255-0.57-0.57
			c0-0.315,0.57-1.086,0.57-1.086S121.996,240.949,121.996,241.264z"/>
		<ellipse style="fill:#0091C8;" cx="154.684" cy="315.058" rx="7.566" ry="0.765"/>
		<path style="fill:#FA968C;" d="M152.445,305.338c0,0,1.641,4.296,2.315,4.729c0.673,0.433,1.515,1.443,0.746,2.261
			c-0.571,0.607-1.161,1.316-1.664,1.754c-0.432,0.377-0.978,0.591-1.551,0.609c-1.012,0.032-2.566,0.074-2.822,0.042
			c-0.385-0.048,0.168-1.01,1.612-1.203c1.443-0.193,2.299-3.485,0.473-5.867L152.445,305.338z"/>
		<path style="fill:#B80B5A;" d="M155.667,242.608c-0.109,2.93,2.178,5.393,5.108,5.501c2.93,0.109,5.393-2.178,5.501-5.108
			c0.109-2.93-2.178-5.393-5.108-5.501C158.239,237.392,155.776,239.679,155.667,242.608z"/>
		<path style="fill:#B80B5A;" d="M154.044,236.553c-0.089,2.393,1.779,4.405,4.172,4.494c2.393,0.089,4.405-1.779,4.494-4.172
			c0.089-2.393-1.779-4.405-4.172-4.494C156.145,232.292,154.133,234.16,154.044,236.553z"/>
		<path style="fill:#FFC305;" d="M149.263,262.356l6.81-0.823l1.657-4.712l5.274-13.736c0.549-1.429-0.471-2.975-2.001-3.031
			l-10.07-0.374c-1.692-0.063-3.067,1.352-2.956,3.041L149.263,262.356z"/>
		<path style="fill:#FFC305;" d="M154.005,243.157l-5.841-0.217l-1.982,5.204c-0.617,1.621,0.54,3.37,2.274,3.434l2.309,0.086
			L154.005,243.157z"/>
		<path style="fill:#C34646;" d="M154.349,273.033c-2.708,3.491-9.564,15.592-12.086,13.635c-2.522-1.956,2.207-19.759,4.916-23.251
			c2.708-3.491,10.733-5.853,13.255-3.896C162.956,261.478,157.058,269.542,154.349,273.033z"/>
		<path style="fill:#FAB9AF;" d="M153.235,290.355c0.282,2.75,3.025,24.191,3.917,23.887c0.773-0.264,2.179-21.733,1.898-24.482
			c-0.282-2.75-1.812-4.845-3.417-4.681C154.027,285.243,152.953,287.606,153.235,290.355z"/>
		<path style="fill:#FA968C;" d="M142.189,288.101c1.086,2.542,10.079,22.198,10.84,21.643c0.66-0.482-4.379-21.398-5.465-23.94
			c-1.086-2.542-3.17-4.088-4.654-3.454C141.426,282.985,141.103,285.56,142.189,288.101z"/>
		<path style="fill:#D25A50;" d="M155.901,309.367h2.054c0.543-6.497,1.263-17.961,1.095-19.607
			c-0.282-2.75-1.812-4.845-3.417-4.681c-1.606,0.164-2.679,2.527-2.397,5.277C153.4,291.962,154.916,303.064,155.901,309.367z"/>
		<path style="fill:#C34646;" d="M153.393,307.637c-1.176-6.173-5.01-19.917-5.829-21.833c-1.086-2.542-3.17-4.088-4.654-3.454
			c-1.484,0.634-1.807,3.209-0.721,5.751c0.781,1.828,6.589,14.237,9.546,19.886L153.393,307.637z"/>
		<path style="fill:#D25A50;" d="M152.991,270.5c-0.164,4.415-0.842,19.77,2.348,19.889c3.19,0.118,9.097-16.425,9.322-22.66
			c0.302-8.398-4.475-11.377-7.665-11.495C153.806,256.115,153.155,266.085,152.991,270.5z"/>
		<path style="fill:#FAB9AF;" d="M157.955,309.367c0,0-0.009,2.563,0.337,3.981c0.346,1.418,0.024,1.997-1.429,2.037
			c-1.452,0.04-5.116,0.457-5.527,0.021c-0.41-0.436,1.314-1.047,2.506-1.509c1.41-0.547,2.302-2.313,2.297-3.503L157.955,309.367z"
			/>
		<path style="fill:#783C28;" d="M154.839,310.124c-0.442,1.454-1.499,2.691-3.167,3.124c-0.181,0.151-0.379,0.254-0.592,0.282
			c-1.443,0.193-1.997,1.155-1.612,1.203c0.256,0.032,1.81-0.01,2.822-0.042c0.574-0.018,1.119-0.232,1.551-0.609
			c0.503-0.439,1.093-1.147,1.664-1.754C156.246,311.541,155.497,310.582,154.839,310.124z"/>
		<path style="fill:#783C28;" d="M158.291,313.344c-0.734,0.536-1.677,0.867-2.832,0.867c-0.633,0-1.2-0.102-1.706-0.278
			c-1.187,0.458-2.816,1.049-2.415,1.474c0.411,0.436,4.074,0.019,5.527-0.021c1.453-0.04,1.775-0.619,1.428-2.037
			C158.291,313.347,158.291,313.345,158.291,313.344z"/>
		<path style="fill:#FA968C;" d="M157.791,244.582c-0.554,2.708-1.596,14.328-0.015,14.651c1.581,0.324,5.187-10.772,5.741-13.48
			c0.554-2.708-0.279-5.165-1.86-5.489C160.076,239.941,158.345,241.874,157.791,244.582z"/>
		<path style="fill:#FA968C;" d="M156.132,256.504c-1.805-0.056-13.183,0.2-13.214,1.196c-0.031,0.996,11.298,2.356,13.102,2.412
			c1.805,0.056,3.293-0.707,3.324-1.703C159.375,257.412,157.937,256.559,156.132,256.504z"/>
		<path style="fill:#FA968C;" d="M141.81,256.77c0,0,1.753-0.142,1.974,0.378c0.221,0.521,0.274,0.911-0.472,1.26
			c-0.746,0.35-1.935,0.474-2.664,0.406c-0.728-0.068-1.901-0.698-1.982-0.848c-0.295-0.547,1.011-0.285,1.65-0.189
			c0.639,0.096,1.37,0.141,1.329-0.18c-0.041-0.32-1.278-0.412-1.446-0.764C140.031,256.482,141.81,256.77,141.81,256.77z"/>
		<path style="fill:#FFFAD7;" d="M143.928,257.029c0,0.809-2.1,1.464-4.691,1.464c-2.591,0-4.691-0.655-4.691-1.464
			c0-0.809,2.1-1.464,4.691-1.464C141.828,255.565,143.928,256.22,143.928,257.029z"/>
		<path style="fill:#FF640A;" d="M137.375,257.006c0,0.192-0.399,0.347-0.891,0.347c-0.492,0-0.891-0.155-0.891-0.347
			s0.399-0.347,0.891-0.347C136.976,256.659,137.375,256.814,137.375,257.006z"/>
		<path style="fill:#FF6196;" d="M139.514,257.537c0,0.192-0.399,0.347-0.891,0.347c-0.492,0-0.891-0.155-0.891-0.347
			s0.399-0.347,0.891-0.347C139.115,257.19,139.514,257.345,139.514,257.537z"/>
		<path style="fill:#6E64C3;" d="M139.701,256.232c0,0.192-0.399,0.347-0.891,0.347c-0.492,0-0.891-0.156-0.891-0.347
			c0-0.192,0.399-0.347,0.891-0.347C139.303,255.885,139.701,256.04,139.701,256.232z"/>
		<path style="fill:#FA968C;" d="M140.969,257.346c0,0,1.313,0.085,1.469-0.317c0.156-0.402-1.531-0.754-2.188-0.796
			c-0.656-0.043-1.125,0.008-0.719,0.264C139.938,256.752,140.969,257.346,140.969,257.346z"/>
		<polygon style="fill:#AFE6FF;stroke:#AFE6FF;stroke-miterlimit:10;" points="125.87,273.305 121.751,273.305 109.42,223.184 
			113.304,222.228 		"/>
		<polyline style="fill:none;stroke:#AFE6FF;stroke-miterlimit:10;" points="115.354,247.302 115.354,315.17 135.594,315.17 		"/>
		<line style="fill:none;stroke:#AFE6FF;stroke-miterlimit:10;" x1="121.751" y1="273.305" x2="133" y2="273.311"/>
		<rect x="109.42" y="275.377" style="fill:none;stroke:#AFE6FF;stroke-miterlimit:10;" width="2.83" height="7.625"/>
		<line style="fill:none;stroke:#AFE6FF;stroke-miterlimit:10;" x1="112.25" y1="279.19" x2="115.354" y2="279.19"/>
		<path style="fill:#B80B5A;" d="M150.855,227.001c0.773-0.155,1.484,0.069,1.995,0.514c0.808,0.705,1.784,1.19,2.855,1.229
			l0.566,0.021c0.829,0.031,1.565,0.541,1.885,1.307l1.087,2.605l-7.349-0.273l0.034-0.91c-0.214,0.056-0.436,0.093-0.669,0.084
			c-1.46-0.054-2.553-1.449-2.141-2.956C149.34,227.81,150.028,227.167,150.855,227.001z"/>
		<path style="fill:#FA968C;" d="M153.588,244.815c1.506,0.564,4.19-4.881,4.19-4.881l-1.862-4.017l-2.157,0.358l-0.13,3.505
			C153.628,239.78,152.409,244.373,153.588,244.815z"/>
		<path style="fill:#B80B5A;" d="M149.033,231.573c-0.047,1.277,0.95,2.352,2.227,2.399c1.277,0.047,2.352-0.95,2.399-2.227
			c0.047-1.277-0.95-2.352-2.227-2.399C150.155,229.299,149.081,230.296,149.033,231.573z"/>
		<path style="fill:#B80B5A;" d="M150.108,235.028c-0.047,1.277,0.95,2.352,2.227,2.399c1.277,0.047,2.351-0.95,2.399-2.227
			c0.047-1.278-0.95-2.352-2.227-2.399C151.23,232.754,150.156,233.751,150.108,235.028z"/>
		<g>
			<path style="fill:#B80B5A;" d="M151.202,231.974c-0.141,3.812,3.008,4.785,5.14,4.864c2.132,0.079,2.095-3.079,2.156-4.717
				c0.061-1.638-1.62-2.573-3.752-2.652C152.614,229.39,151.263,230.336,151.202,231.974z"/>
			<path style="fill:#FAB9AF;" d="M150.979,233.152c-0.018,0.474-0.193,1.09-0.125,1.641c0.256,2.075,1.813,4.338,2.664,4.338
				c0.618,0,2.609-1.261,3.299-2.845c0.262-0.602,0.427-1.244,0.45-1.867c0.084-2.261-0.867-3.605-2.584-3.669
				C152.967,230.687,151.063,230.891,150.979,233.152z"/>
			<path style="fill:#FF9669;" d="M157.241,233.532l-4.348-0.161c-0.458-0.017-1.413-0.407-1.69-1.396
				c0.06-1.62,0.992-1.616,3.481-1.223C156.144,230.981,157.069,231.811,157.241,233.532z"/>
			<path style="fill:#B80B5A;" d="M152.908,232.949l5.004,0.186l0.037-0.998c0.044-1.191-0.885-2.192-2.076-2.236l-5.017-0.186
				l-0.036,0.984C150.775,231.898,151.71,232.905,152.908,232.949z"/>
			<path style="fill:#B80B5A;" d="M156.419,234.785L156.419,234.785l0.092-2.489l-1.087-0.04l-0.052,1.402
				C155.35,234.258,155.819,234.763,156.419,234.785z"/>
			<path style="fill:#FAB9AF;" d="M156.022,234.288c-0.028,0.748,0.185,1.363,0.795,1.386c0.609,0.023,0.898-0.833,0.925-1.582
				c0.028-0.748-0.216-1.105-0.825-1.128C156.308,232.942,156.049,233.54,156.022,234.288z"/>
		</g>
	</g>
	<g>
		<path style="fill:#FAC855;" d="M446.194,259.19c0,2.554-2.07,4.625-4.625,4.625c-2.554,0-4.625-2.07-4.625-4.625
			s2.07-4.625,4.625-4.625C444.124,254.565,446.194,256.636,446.194,259.19z"/>
		<path style="fill:#FAC855;" d="M438.145,261.805c0,3.319-2.691,6.01-6.01,6.01c-3.319,0-6.01-2.691-6.01-6.01
			c0-3.319,2.691-6.01,6.01-6.01C435.454,255.795,438.145,258.486,438.145,261.805z"/>
		<path style="fill:#FAB9AF;" d="M413.034,274.024c0,0,1.353,1.895,0.912,2.499c-0.441,0.605-0.848,0.93-1.753,0.32
			s-1.854-1.876-2.272-2.75c-0.418-0.874-0.499-2.634-0.384-2.828c0.421-0.707,1.011,0.955,1.336,1.746
			c0.325,0.791,0.771,1.652,1.107,1.388c0.336-0.264-0.4-1.732-0.115-2.162C412.151,271.808,413.034,274.024,413.034,274.024z"/>
		<path style="fill:#FAB9AF;" d="M424.766,276.17c-2.016-0.214-12.887-0.776-13.005,0.337c-0.118,1.113,10.562,3.479,12.578,3.692
			c2.015,0.214,3.745-0.515,3.863-1.628C428.32,277.458,426.782,276.383,424.766,276.17z"/>
		<path style="fill:#FF82AA;" d="M424.766,276.17c-1.33-0.141-7.34-0.479-11.307-0.373c0.293,0.708,0.444,2.209,0.391,2.963
			c3.832,1.017,9.226,1.305,10.489,1.438c2.016,0.214,3.745-0.515,3.863-1.628C428.32,277.458,426.782,276.383,424.766,276.17z"/>
		<path style="fill:#FAB9AF;" d="M399.146,283.834c-2.65,1.06-23.168,9.893-22.634,10.74c0.463,0.735,22.09-3.768,24.74-4.827
			c2.65-1.059,4.326-3.242,3.745-4.875C404.415,283.24,401.796,282.775,399.146,283.834z"/>
		<path style="fill:#FF82AA;" d="M427.642,266.341c-1.134,2.368-3.157,13.611-1.646,14.334c1.511,0.724,5.983-9.345,7.117-11.713
			c1.134-2.368,0.829-4.874-0.681-5.598C430.921,262.639,428.777,263.973,427.642,266.341z"/>
		<path style="fill:#FAC855;" d="M448.013,262.763c-1.262-2.081-6.138-3.884-6.138-3.884l-2.27-6.649
			c-0.39-0.846-1.237-1.387-2.168-1.387h-0.377c-1.237,0-2.492-0.35-3.413-1.175c-0.599-0.536-1.447-0.797-2.356-0.579
			c-0.928,0.222-1.663,0.959-1.883,1.888c-0.404,1.71,0.882,3.231,2.523,3.231c0.262,0,0.509-0.05,0.747-0.122v1.022h5.778
			c-1.556,0.572-2.775,1.933-3.098,3.589c-0.443,2.27,0.703,4.299,2.504,5.256c-0.502,1.114-0.681,2.405-0.382,3.762
			c0.54,2.448,2.65,4.33,5.142,4.602c3.591,0.392,6.628-2.41,6.628-5.921C449.25,265.026,448.671,263.848,448.013,262.763z"/>
		<path style="fill:#5A325A;" d="M421.382,279.59c-3.552,0.245-22.129,2.088-21.882,5.662s20.335,7.457,25.351,7.103
			c6.755-0.477,8.628-6.102,8.381-9.676S424.934,279.344,421.382,279.59z"/>
		<path style="fill:#FAB9AF;" d="M381.516,291.898c0,0-3.47,0.881-4.956,0.856c-1.486-0.025-6.695-1.928-6.247-0.136
			c0,0,4.061,3.006,5.311,3.539c1.574,0.67,2.365-1.474,5.275-2.109L381.516,291.898z"/>
		<path style="fill:#C8462D;" d="M373.787,292.221c-1.841-0.403-3.752-0.719-3.473,0.396c0,0,4.061,3.006,5.311,3.539
			c1.043,0.444,1.746-0.348,2.947-1.118C376.713,295.17,374.827,294.363,373.787,292.221z"/>
		<path style="fill:#FF6196;" d="M443.212,263.306h-11.311c-1.901,0-3.119,4.216-3.119,4.216l-1.856,5.475
			c-0.625,1.844,0.746,3.757,2.694,3.757h0.112l1.24,12.055l7.604-1.207l1.663-5.353l5.344-15.626
			C446.139,264.997,444.931,263.306,443.212,263.306z"/>
		<path style="fill:#FF82AA;" d="M438.849,266.505c-1.72,2.582-7.712,14.224-6.205,15.229c1.508,1.004,9.944-9.01,11.664-11.592
			c1.72-2.582,1.892-5.489,0.385-6.494S440.569,263.923,438.849,266.505z"/>
		<path style="fill:#FA968C;" d="M406.536,284.935c-2.809,1.318-23.616,10.105-22.805,11.06c0.629,0.741,3.462-0.577,5.802-0.917
			c6.285-0.914,17.744-3.244,19.791-4.204c2.809-1.318,4.462-3.716,3.692-5.356C412.245,283.878,409.344,283.617,406.536,284.935z"
			/>
		<path style="fill:#823264;" d="M426.207,283.382c-4.164-0.294-18.641-1.439-18.893,2.134s15.116,10.612,20.997,11.021
			c7.921,0.549,10.946-4.733,11.198-8.306S430.372,283.677,426.207,283.382z"/>
		<path style="fill:#FA968C;" d="M387.699,293.537c0,0-3.5,0.749-4.984,0.668c-1.484-0.081-6.617-2.18-6.237-0.372
			c0,0,3.944,3.158,5.174,3.737c1.547,0.729,2.419-1.384,5.351-1.908L387.699,293.537z"/>
		<path style="fill:#C8462D;" d="M379.963,293.569c-1.825-0.473-3.722-0.86-3.486,0.264c0,0,3.944,3.158,5.174,3.737
			c1.026,0.483,1.758-0.282,2.987-1.006C382.776,296.626,380.922,295.747,379.963,293.569z"/>
		<g>
			<path style="fill:#82878C;" d="M425.481,283.464l-11.396-0.703l-3.706-11.792c1.054-0.331,2.177,0.255,2.508,1.308l2.694,8.572
				l8.026,0.495C424.71,281.413,425.548,282.362,425.481,283.464z"/>
		</g>
		<path style="fill:#FAB9AF;" d="M430.819,278.304c-2.017,0.203-14.64,2.157-14.528,3.27c0.112,1.113,12.917,0.964,14.934,0.761
			c2.017-0.203,3.561-1.27,3.449-2.383C434.561,278.839,432.836,278.101,430.819,278.304z"/>
		<path style="fill:#FF82AA;" d="M430.819,278.304c-1.331,0.134-7.283,1.031-11.144,1.945c0.432,0.633,0.886,2.072,0.988,2.821
			c3.959,0.213,9.298-0.608,10.562-0.735c2.017-0.203,3.561-1.27,3.449-2.383C434.561,278.839,432.836,278.101,430.819,278.304z"/>
		<path style="fill:#FAB9AF;" d="M416.164,279.35c0,0,2.112,0.981,2.026,1.725c-0.086,0.744-0.279,1.227-1.367,1.143
			c-1.087-0.084-2.539-0.718-3.333-1.272c-0.794-0.554-1.733-2.045-1.728-2.271c0.017-0.823,1.351,0.332,2.024,0.86
			c0.673,0.528,1.485,1.057,1.648,0.661c0.162-0.396-1.203-1.309-1.166-1.824C414.303,277.858,416.164,279.35,416.164,279.35z"/>
		<path style="fill:#FA968C;" d="M434.734,268.033c1.547,0.691,4.855-4.727,4.855-4.727l-2.256-4.428l-2.404,0.491v3.936
			C434.93,263.306,433.655,267.551,434.734,268.033z"/>
		<path style="fill:#FAC855;" d="M429.434,254.293c0,1.435,1.163,2.598,2.598,2.598c1.435,0,2.598-1.163,2.598-2.598
			s-1.163-2.598-2.598-2.598C430.598,251.695,429.434,252.859,429.434,254.293z"/>
		<g>
			<path style="fill:#FAC855;" d="M431.884,254.653c0,4.282,3.573,5.242,5.968,5.242c2.395,0,2.222-3.541,2.222-5.381
				c0-1.84-1.924-2.818-4.319-2.818C433.36,251.695,431.884,252.813,431.884,254.653z"/>
			<path style="fill:#FAB9AF;" d="M431.641,255.986c0,0.6,0.146,1.274,0.243,1.969c0.314,2.248,1.991,4.629,2.896,4.629
				c0.533,0,2.903-1.474,3.642-3.176c0.327-0.753,0.366-1.486,0.366-2.265c0-2.539-1.123-4.008-3.051-4.008
				C433.809,253.136,431.641,253.447,431.641,255.986z"/>
			<path style="fill:#FF9669;" d="M438.722,256.148h-4.884c-1.26-0.115-1.767-0.986-1.954-1.438c0-1.819,1.046-1.911,3.854-1.575
				C437.385,253.333,438.458,254.226,438.722,256.148z"/>
			<path style="fill:#FAC855;" d="M433.838,255.675h5.62v-1.12c0-1.337-1.084-2.421-2.421-2.421h-5.635v1.105
				C431.401,254.585,432.492,255.675,433.838,255.675z"/>
			<path style="fill:#FAC855;" d="M437.852,257.589L437.852,257.589v-2.795h-1.22v1.575
				C436.632,257.042,437.178,257.589,437.852,257.589z"/>
			<path style="fill:#FAB9AF;" d="M437.386,257.047c0,0.84,0.265,1.522,0.949,1.522s0.972-0.972,0.972-1.813
				s-0.288-1.231-0.972-1.231S437.386,256.207,437.386,257.047z"/>
		</g>
	</g>
	<g>
		<rect x="61.875" y="212.502" style="fill:#FF8C46;" width="7.5" height="30.875"/>
		<rect x="69.375" y="212.502" style="fill:#FF8C46;" width="7.5" height="20.024"/>
		<g>
			<path style="fill:none;stroke:#D2D2D7;stroke-width:0.5;stroke-miterlimit:10;" d="M56.664,279.065
				c0,2.326-1.885,4.211-4.211,4.211c-2.326,0-4.211-1.885-4.211-4.211c0-2.326,1.885-4.211,4.211-4.211
				C54.778,274.853,56.664,276.739,56.664,279.065z"/>
			<rect x="47.988" y="279.584" style="fill:#A0A0A5;" width="8.929" height="12.501"/>
			
				<line style="fill:none;stroke:#82878C;stroke-linecap:round;stroke-miterlimit:10;" x1="47.988" y1="279.584" x2="56.917" y2="279.584"/>
			
				<line style="fill:none;stroke:#82878C;stroke-linecap:round;stroke-miterlimit:10;" x1="47.988" y1="285.584" x2="56.917" y2="285.584"/>
			
				<line style="fill:none;stroke:#82878C;stroke-linecap:round;stroke-miterlimit:10;" x1="47.988" y1="291.584" x2="56.917" y2="291.584"/>
			<path style="fill:#FF8C46;" d="M54.759,287.127L54.759,287.127c-0.513,0-0.929-0.416-0.929-0.929v-7.134h1.858v7.134
				C55.688,286.711,55.272,287.127,54.759,287.127z"/>
		</g>
		<path style="fill:#FAB9AF;" d="M52.452,273.002c0,0,1.298,1.96,0.798,2.386s-2.063,0.739-2.5,0.614s-0.875-2.875-0.375-3
			S52.452,273.002,52.452,273.002z"/>
		<ellipse style="fill:#0091C8;" cx="38.652" cy="316.301" rx="16.941" ry="2.095"/>
		<path style="fill:#FAB9AF;" d="M54.287,261.866c-0.099,2.117-1.399,13.576-2.558,13.522c-1.159-0.054-1.739-11.601-1.64-13.718
			c0.099-2.117,1.119-3.789,2.278-3.735C53.525,257.989,54.385,259.749,54.287,261.866z"/>
		<path style="fill:#FAB9AF;" d="M51.307,242.842c0.851,2.515,3.727,18.226,1.959,18.824c-1.768,0.599-7.512-14.142-8.363-16.657
			c-0.851-2.515-0.108-5.039,1.66-5.638C48.332,238.774,50.455,240.327,51.307,242.842z"/>
		<path style="fill:#1C9585;" d="M52.525,248.212c-0.424-2.364-0.915-4.471-1.219-5.37c-0.851-2.515-2.975-4.069-4.743-3.47
			c-1.768,0.598-2.512,3.122-1.66,5.638c0.327,0.965,1.291,3.18,2.455,5.51C47.358,250.52,50.394,250.407,52.525,248.212z"/>
		<path style="fill:#FA968C;" d="M44.624,308.496l0.018,4.869l-0.845,2.766c-0.058,0.19,0.084,0.383,0.283,0.383h1.927v-0.616
			l0.936,0.616c0,0,4.987,0.275,5.157,0c0.642-1.038-2.259-1.438-4.382-2.259c-2.122-0.822-0.658-8.88-0.658-8.88L44.624,308.496z"
			/>
		<path style="fill:#FA968C;" d="M49.672,290.358c-0.359,2.565-3.673,22.547-4.498,22.231c-0.715-0.274-1.286-20.426-0.927-22.991
			c0.359-2.565,1.865-4.474,3.363-4.264C49.108,285.544,50.031,287.793,49.672,290.358z"/>
		<path style="fill:#004875;" d="M46.944,309.537c1.166-5.93,2.513-17.641,2.728-19.178c0.359-2.565-0.564-4.814-2.062-5.024
			c-1.498-0.21-3.003,1.699-3.363,4.264c-0.222,1.581-0.412,13.767-0.111,19.938H46.944z"/>
		<path style="fill:#FAB9AF;" d="M30.515,304.948l-2.034,5.509c0,0-0.924,0.581-1.301,1.129c-0.219,0.319-0.519,0.741-0.732,1.039
			c-0.15,0.21-0.124,0.498,0.06,0.679l0.956,0.935c0.183,0.178,0.476,0.174,0.652-0.011l0.235-0.246l0.523,1.254
			c0.182,0.436,0.578,0.741,1.045,0.804c1.2,0.161,3.415,0.418,3.49,0.133c0.234-0.893-3.047-2.088-3.047-2.088l-0.342-2.875
			l1.48-3.556L30.515,304.948z"/>
		<path style="fill:#FAB9AF;" d="M40.033,290.299c-1.049,2.368-9.714,20.676-10.42,20.146c-0.612-0.459,4.363-19.996,5.412-22.364
			c1.049-2.368,3.02-3.792,4.403-3.179C40.81,285.514,41.081,287.931,40.033,290.299z"/>
		<path style="fill:#0073AA;" d="M39.428,284.902c-1.383-0.612-3.354,0.811-4.403,3.179c-0.681,1.538-4.562,13.26-5.949,19.352
			l2.565,0.821c2.769-5.409,7.755-16.515,8.393-17.955C41.081,287.931,40.81,285.514,39.428,284.902z"/>
		<path style="fill:#004875;" d="M51.704,266.538c0.085,3.74-1.195,27.461-3.825,27.521c-2.629,0.06-5.612-23.565-5.697-27.305
			c-0.085-3.74,1.978-6.82,4.607-6.879C49.419,259.815,51.619,262.798,51.704,266.538z"/>
		<path style="fill:#0073AA;" d="M44.64,265.792c0.085,3.74-2.895,25.195-5.524,25.255c-2.629,0.06-4.388-21.364-4.473-25.103
			c-0.085-3.74,2.453-6.755,5.083-6.815C42.355,259.069,44.556,262.052,44.64,265.792z"/>
		<path style="fill:#007D72;" d="M37.448,240.156l6.128-0.841c5.01-0.688,9.227,3.725,8.313,8.699l-2.822,15.354
			c-0.595,3.235-3.682,5.39-6.924,4.831l-7.46-1.285l0.191-7.387l-1.561-14.063C33.024,242.866,34.859,240.512,37.448,240.156z"/>
		<g>
			<path style="fill:#FA968C;" d="M44.55,239.958c0,0,0,1.72-1.07,1.72c-2.578,0-3.249-1.903-3.249-1.903l0.832-4.508l2.8,0.347
				L44.55,239.958z"/>
			<g>
				<path style="fill:#69280F;" d="M47.256,229.977c0,4.558-3.698,6.375-6.248,6.375c-2.549,0-2.471-4.564-2.471-6.523
					c0-1.959,2.048-3.001,4.597-3.001C45.684,226.829,47.256,228.018,47.256,229.977z"/>
				<path style="fill:#FAB9AF;" d="M46.87,232.689c0,3.281-0.634,4.895-2.319,4.895c-2.053,0-4.645-2.252-4.645-4.955
					s1.195-4.266,3.248-4.266S46.87,229.985,46.87,232.689z"/>
				<path style="fill:#FF9669;" d="M39.976,231.57h5.199c0.548,0,1.055-0.172,1.474-0.462c-0.515-1.74-1.883-2.745-3.496-2.745
					C41.386,228.362,40.257,229.523,39.976,231.57z"/>
				<path style="fill:#69280F;" d="M45.175,231.066h-5.983v-1.193c0-1.424,1.154-2.578,2.578-2.578h5.999v1.176
					C47.769,229.904,46.608,231.066,45.175,231.066z"/>
				<path style="fill:#69280F;" d="M40.902,233.102L40.902,233.102v-2.976h1.299v1.677C42.201,232.521,41.62,233.102,40.902,233.102
					z"/>
				<path style="fill:#FAB9AF;" d="M41.398,232.526c0,0.895-0.282,1.62-1.01,1.62c-0.728,0-1.196-1.23-1.196-2.125
					c0-0.895,0.468-1.115,1.196-1.115C41.117,230.906,41.398,231.632,41.398,232.526z"/>
			</g>
		</g>
		<path style="fill:#FA968C;" d="M44.165,245.745c5.458-0.408,13.627-3.572,13.525-4.873c-0.107-1.36-8.843-1.657-14.119-1.376
			c-5.465,0.291-9.7,1.48-9.553,3.44C34.164,244.896,38.707,246.153,44.165,245.745z"/>
		<path style="fill:#1C9585;" d="M42.484,245.816c-4.679,0.062-8.336-1.126-8.467-2.88c-0.146-1.959,4.088-3.148,9.553-3.44
			C44.066,239.47,42.484,245.816,42.484,245.816z"/>
		<path style="fill:#FA968C;" d="M57.858,236.207c1.683-1.426,9.598-7.214,10.526-6.118c0.928,1.095-5.844,8.515-7.608,9.84
			c-3.241,2.435-6.05,3.592-6.978,2.496C52.87,241.33,56.175,237.633,57.858,236.207z"/>
		<path style="fill:#FFFFFF;" d="M47.72,314.256c-0.659-0.255-0.971-1.209-1.089-2.402h-1.994l0.005,1.512l-0.845,2.766
			c-0.058,0.19,0.084,0.383,0.283,0.383h1.927v-0.616l0.936,0.616c0,0,4.987,0.275,5.157,0
			C52.743,315.477,49.842,315.077,47.72,314.256z"/>
		<path style="fill:#FFFFFF;" d="M30.364,314.085l-0.342-2.875l0.511-1.228c-0.66-0.041-1.221-0.224-1.687-0.512l-0.365,0.988
			c0,0-0.924,0.581-1.301,1.129c-0.219,0.319-0.519,0.741-0.732,1.039c-0.15,0.21-0.124,0.498,0.06,0.679l0.956,0.935
			c0.182,0.179,0.476,0.174,0.652-0.011l0.235-0.246l0.523,1.254c0.182,0.436,0.578,0.741,1.046,0.804
			c1.2,0.161,3.415,0.418,3.49,0.133C33.645,315.279,30.364,314.085,30.364,314.085z"/>
		<path style="fill:#5A2D19;" d="M47.723,314.257c-0.305,0.076-0.628,0.128-0.986,0.128c-0.9,0-1.631-0.261-2.198-0.682l-0.742,2.43
			c-0.058,0.19,0.084,0.383,0.283,0.383h1.927v-0.616l0.936,0.616c0,0,4.987,0.275,5.157,0
			C52.743,315.477,49.845,315.078,47.723,314.257z"/>
		<path style="fill:#5A2D19;" d="M30.364,314.085l-0.125-1.05c-1.1-0.416-1.795-1.313-2.087-2.352
			c-0.303,0.219-0.74,0.567-0.971,0.903c-0.219,0.319-0.519,0.741-0.732,1.039c-0.15,0.21-0.124,0.498,0.06,0.679l0.956,0.935
			c0.182,0.179,0.476,0.174,0.652-0.011l0.235-0.246l0.523,1.254c0.182,0.436,0.578,0.741,1.046,0.804
			c1.2,0.161,3.415,0.418,3.49,0.133C33.645,315.279,30.364,314.085,30.364,314.085z"/>
		<g>
			<path style="fill:none;stroke:#FFFFFF;stroke-linecap:round;stroke-miterlimit:10;" d="M68.813,215.151l11.023,7.38
				c0.616,0.413,0.781,1.247,0.369,1.863l-0.638,0.954c-0.413,0.616-1.247,0.781-1.863,0.369l-3.9-2.611
				c-0.582-0.389-1.369-0.234-1.758,0.348l-2.815,4.204"/>
			
				<rect x="68.625" y="216.882" transform="matrix(0.831 0.5563 -0.5563 0.831 134.6151 -4.6033)" style="fill:#FF640A;" width="12.516" height="4.667"/>
			
				<rect x="67.651" y="220.086" transform="matrix(0.831 0.5563 -0.5563 0.831 135.2596 -3.8159)" style="fill:#CD5014;" width="12.516" height="1.167"/>
			
				<line style="fill:none;stroke:#965028;stroke-width:2;stroke-miterlimit:10;" x1="71.174" y1="224.755" x2="68.432" y2="228.85"/>
		</g>
		<path style="fill:#FA968C;" d="M70.063,226.967c-0.469,0.247-2.068,1.962-2.068,1.962l0,0c-0.613,0.353-1.187,0.733-1.186,1.235
			c0.003,0.968,0.445,1.105,1.109,1.128c0.664,0.023,2.533-2.025,2.989-2.441c0.63-0.574,0.177-1.515,0.063-1.974
			C71.139,226.738,70.531,226.721,70.063,226.967z"/>
		<path style="fill:#FA968C;" d="M68.813,226.408c0,0-0.375-0.031-0.657,0c-0.281,0.031-0.188,1.249-0.188,1.249L68.813,226.408z"/>
	</g>
</g>
<g id="DESIGNED_BY_FREEPIK">
	<g id="XMLID_1_">
		<g id="XMLID_63814_">
			<path id="XMLID_63815_" style="fill:#0091C8;" d="M175.683,484.601v-0.172c-0.232,0.266-0.461,0.483-0.687,0.648
				c-0.225,0.168-0.471,0.294-0.734,0.38c-0.264,0.089-0.551,0.13-0.864,0.13c-0.414,0-0.797-0.087-1.149-0.262
				c-0.352-0.176-0.657-0.426-0.914-0.751c-0.258-0.324-0.453-0.705-0.586-1.145c-0.133-0.439-0.199-0.914-0.199-1.424
				c0-1.08,0.264-1.923,0.791-2.527c0.527-0.603,1.222-0.905,2.083-0.905c0.498,0,0.918,0.086,1.259,0.257
				c0.342,0.171,0.675,0.435,1,0.788v-2.55c0-0.355,0.07-0.622,0.212-0.805c0.141-0.181,0.342-0.272,0.604-0.272
				c0.262,0,0.463,0.083,0.604,0.25c0.142,0.168,0.212,0.413,0.212,0.738v7.622c0,0.329-0.076,0.575-0.228,0.741
				c-0.152,0.164-0.348,0.246-0.589,0.246c-0.236,0-0.432-0.085-0.586-0.255C175.76,485.161,175.683,484.918,175.683,484.601z
				 M172.284,482.063c0,0.469,0.073,0.867,0.218,1.196c0.146,0.329,0.345,0.577,0.598,0.743c0.253,0.167,0.53,0.251,0.829,0.251
				c0.304,0,0.581-0.079,0.833-0.238c0.251-0.158,0.451-0.401,0.601-0.728c0.15-0.327,0.225-0.737,0.225-1.225
				c0-0.461-0.075-0.856-0.225-1.188c-0.15-0.331-0.352-0.583-0.608-0.759c-0.255-0.174-0.535-0.262-0.839-0.262
				c-0.316,0-0.599,0.09-0.848,0.268c-0.249,0.18-0.442,0.436-0.579,0.772C172.352,481.23,172.284,481.619,172.284,482.063z"/>
			<path id="XMLID_63818_" style="fill:#0091C8;" d="M183.303,482.5h-3.38c0.004,0.392,0.083,0.738,0.238,1.038
				c0.154,0.299,0.359,0.526,0.614,0.677c0.255,0.152,0.537,0.228,0.845,0.228c0.207,0,0.395-0.023,0.567-0.072
				c0.171-0.049,0.337-0.125,0.497-0.229c0.161-0.103,0.308-0.214,0.443-0.332c0.135-0.118,0.309-0.28,0.525-0.482
				c0.089-0.076,0.215-0.115,0.381-0.115c0.177,0,0.32,0.049,0.43,0.147c0.11,0.098,0.165,0.233,0.165,0.411
				c0,0.156-0.062,0.337-0.184,0.547c-0.123,0.21-0.308,0.41-0.554,0.601c-0.248,0.193-0.557,0.352-0.931,0.478
				c-0.373,0.128-0.802,0.19-1.288,0.19c-1.109,0-1.973-0.316-2.589-0.949c-0.616-0.633-0.924-1.492-0.924-2.576
				c0-0.511,0.076-0.985,0.228-1.421c0.152-0.437,0.374-0.811,0.665-1.123c0.291-0.312,0.65-0.552,1.076-0.718
				c0.426-0.167,0.899-0.25,1.418-0.25c0.675,0,1.254,0.142,1.737,0.427c0.484,0.285,0.846,0.653,1.086,1.104
				c0.24,0.452,0.361,0.913,0.361,1.38c0,0.436-0.125,0.717-0.373,0.846C184.106,482.435,183.755,482.5,183.303,482.5z
				 M179.923,481.519h3.134c-0.042-0.591-0.202-1.033-0.478-1.326c-0.277-0.294-0.64-0.44-1.092-0.44
				c-0.431,0-0.784,0.148-1.06,0.445C180.15,480.496,179.983,480.936,179.923,481.519z"/>
			<path id="XMLID_63821_" style="fill:#0091C8;" d="M191.178,483.328c0,0.476-0.115,0.885-0.348,1.225
				c-0.232,0.34-0.575,0.598-1.029,0.773c-0.453,0.174-1.005,0.262-1.655,0.262c-0.62,0-1.152-0.095-1.595-0.285
				c-0.443-0.189-0.77-0.427-0.981-0.711c-0.211-0.286-0.317-0.571-0.317-0.859c0-0.19,0.067-0.351,0.203-0.487
				c0.135-0.134,0.306-0.202,0.513-0.202c0.181,0,0.32,0.044,0.417,0.133c0.097,0.089,0.19,0.214,0.278,0.372
				c0.177,0.31,0.39,0.538,0.637,0.691c0.247,0.151,0.583,0.228,1.01,0.228c0.346,0,0.63-0.078,0.851-0.232
				c0.221-0.155,0.332-0.331,0.332-0.529c0-0.305-0.115-0.525-0.345-0.664c-0.23-0.139-0.609-0.273-1.136-0.4
				c-0.595-0.147-1.079-0.303-1.453-0.466c-0.374-0.161-0.672-0.376-0.896-0.642c-0.223-0.266-0.335-0.594-0.335-0.982
				c0-0.345,0.103-0.673,0.31-0.982c0.207-0.307,0.512-0.553,0.915-0.737c0.402-0.184,0.888-0.276,1.458-0.276
				c0.448,0,0.85,0.047,1.206,0.141c0.357,0.091,0.655,0.217,0.893,0.374c0.239,0.155,0.42,0.328,0.544,0.518
				c0.124,0.19,0.186,0.375,0.186,0.557c0,0.198-0.066,0.361-0.199,0.488c-0.133,0.125-0.322,0.19-0.567,0.19
				c-0.177,0-0.328-0.051-0.452-0.154c-0.124-0.1-0.267-0.253-0.427-0.454c-0.131-0.169-0.284-0.305-0.462-0.406
				c-0.177-0.102-0.418-0.151-0.722-0.151c-0.312,0-0.571,0.065-0.778,0.199c-0.207,0.133-0.31,0.298-0.31,0.496
				c0,0.182,0.076,0.331,0.227,0.447c0.152,0.117,0.357,0.214,0.615,0.289c0.257,0.076,0.611,0.168,1.063,0.277
				c0.535,0.132,0.973,0.288,1.313,0.469c0.339,0.181,0.597,0.396,0.773,0.643C191.09,482.731,191.178,483.012,191.178,483.328z"/>
			<path id="XMLID_63823_" style="fill:#0091C8;" d="M192.943,477.758c-0.241,0-0.446-0.074-0.617-0.221
				c-0.171-0.147-0.256-0.357-0.256-0.627c0-0.245,0.088-0.445,0.263-0.604c0.175-0.159,0.379-0.238,0.611-0.238
				c0.224,0,0.422,0.072,0.595,0.216c0.173,0.143,0.26,0.352,0.26,0.626c0,0.267-0.085,0.474-0.254,0.624
				C193.376,477.683,193.175,477.758,192.943,477.758z M193.798,479.543v4.995c0,0.346-0.082,0.608-0.247,0.785
				c-0.165,0.177-0.373,0.266-0.627,0.266c-0.253,0-0.459-0.09-0.617-0.272c-0.158-0.181-0.237-0.441-0.237-0.778v-4.944
				c0-0.341,0.079-0.599,0.237-0.772c0.158-0.173,0.364-0.26,0.617-0.26c0.254,0,0.462,0.087,0.627,0.26
				C193.716,478.995,193.798,479.236,193.798,479.543z"/>
			<path id="XMLID_63826_" style="fill:#0091C8;" d="M201.368,479.828v5.019c0,0.574-0.062,1.069-0.185,1.483
				c-0.121,0.413-0.318,0.755-0.588,1.024c-0.27,0.27-0.623,0.471-1.06,0.601c-0.437,0.132-0.98,0.197-1.63,0.197
				c-0.595,0-1.127-0.083-1.595-0.25c-0.468-0.168-0.829-0.383-1.082-0.646c-0.253-0.264-0.38-0.535-0.38-0.814
				c0-0.211,0.072-0.384,0.216-0.516c0.143-0.134,0.317-0.2,0.519-0.2c0.253,0,0.475,0.112,0.665,0.336
				c0.092,0.113,0.188,0.229,0.288,0.345c0.099,0.117,0.21,0.216,0.329,0.298c0.12,0.082,0.265,0.143,0.434,0.184
				c0.169,0.039,0.363,0.06,0.583,0.06c0.447,0,0.795-0.062,1.042-0.187c0.247-0.124,0.42-0.298,0.519-0.522
				c0.099-0.223,0.157-0.462,0.174-0.719c0.017-0.255,0.029-0.665,0.038-1.231c-0.266,0.372-0.572,0.655-0.921,0.849
				c-0.348,0.194-0.763,0.292-1.243,0.292c-0.578,0-1.083-0.148-1.516-0.444c-0.432-0.296-0.765-0.708-0.996-1.241
				c-0.232-0.532-0.348-1.145-0.348-1.842c0-0.518,0.07-0.988,0.212-1.405c0.142-0.419,0.343-0.771,0.605-1.058
				c0.262-0.286,0.563-0.503,0.905-0.648c0.342-0.146,0.717-0.219,1.127-0.219c0.489,0,0.913,0.095,1.272,0.281
				c0.358,0.189,0.692,0.483,1,0.884v-0.234c0-0.299,0.074-0.531,0.221-0.696c0.148-0.164,0.338-0.247,0.57-0.247
				c0.333,0,0.554,0.109,0.664,0.327C201.313,479.106,201.368,479.419,201.368,479.828z M196.361,482.019
				c0,0.7,0.153,1.23,0.459,1.588c0.306,0.359,0.702,0.539,1.187,0.539c0.287,0,0.558-0.078,0.813-0.232
				c0.256-0.154,0.463-0.387,0.624-0.697c0.16-0.31,0.24-0.686,0.24-1.13c0-0.704-0.155-1.254-0.465-1.645
				c-0.31-0.392-0.719-0.588-1.225-0.588c-0.494,0-0.889,0.187-1.187,0.564C196.509,480.793,196.361,481.326,196.361,482.019z"/>
			<path id="XMLID_63829_" style="fill:#0091C8;" d="M204.115,479.518v0.208c0.303-0.401,0.636-0.695,0.997-0.883
				c0.361-0.187,0.775-0.282,1.244-0.282c0.456,0,0.863,0.1,1.222,0.298c0.358,0.199,0.627,0.479,0.804,0.841
				c0.114,0.212,0.188,0.44,0.221,0.685c0.034,0.245,0.051,0.557,0.051,0.937v3.215c0,0.346-0.079,0.608-0.238,0.785
				c-0.158,0.177-0.364,0.266-0.617,0.266c-0.258,0-0.466-0.09-0.627-0.272c-0.161-0.181-0.24-0.441-0.24-0.778v-2.881
				c0-0.569-0.079-1.005-0.238-1.307c-0.159-0.301-0.473-0.453-0.947-0.453c-0.307,0-0.588,0.092-0.842,0.276
				c-0.253,0.184-0.439,0.436-0.557,0.756c-0.084,0.258-0.127,0.738-0.127,1.444v2.165c0,0.35-0.082,0.613-0.243,0.789
				c-0.162,0.174-0.372,0.262-0.63,0.262c-0.25,0-0.454-0.09-0.614-0.272c-0.16-0.181-0.24-0.441-0.24-0.778v-4.995
				c0-0.329,0.072-0.575,0.215-0.738c0.143-0.161,0.34-0.243,0.588-0.243c0.152,0,0.29,0.036,0.412,0.108
				c0.122,0.073,0.22,0.18,0.294,0.323C204.078,479.135,204.115,479.311,204.115,479.518z"/>
			<path id="XMLID_63831_" style="fill:#0091C8;" d="M214.628,482.5h-3.38c0.005,0.392,0.083,0.738,0.238,1.038
				c0.154,0.299,0.358,0.526,0.614,0.677c0.255,0.152,0.537,0.228,0.844,0.228c0.207,0,0.396-0.023,0.567-0.072
				c0.17-0.049,0.336-0.125,0.497-0.229c0.16-0.103,0.307-0.214,0.443-0.332c0.134-0.118,0.309-0.28,0.525-0.482
				c0.089-0.076,0.215-0.115,0.38-0.115c0.177,0,0.321,0.049,0.43,0.147c0.11,0.098,0.164,0.233,0.164,0.411
				c0,0.156-0.061,0.337-0.184,0.547s-0.307,0.41-0.554,0.601c-0.247,0.193-0.557,0.352-0.93,0.478
				c-0.374,0.128-0.803,0.19-1.288,0.19c-1.11,0-1.973-0.316-2.589-0.949c-0.616-0.633-0.924-1.492-0.924-2.576
				c0-0.511,0.076-0.985,0.228-1.421c0.152-0.437,0.374-0.811,0.665-1.123c0.291-0.312,0.65-0.552,1.076-0.718
				c0.426-0.167,0.899-0.25,1.418-0.25c0.675,0,1.253,0.142,1.737,0.427c0.484,0.285,0.846,0.653,1.086,1.104
				c0.24,0.452,0.361,0.913,0.361,1.38c0,0.436-0.124,0.717-0.374,0.846C215.43,482.435,215.08,482.5,214.628,482.5z
				 M211.248,481.519h3.133c-0.042-0.591-0.201-1.033-0.478-1.326c-0.276-0.294-0.64-0.44-1.092-0.44
				c-0.431,0-0.785,0.148-1.061,0.445C211.474,480.496,211.307,480.936,211.248,481.519z"/>
			<path id="XMLID_63834_" style="fill:#0091C8;" d="M221.672,484.601v-0.172c-0.232,0.266-0.461,0.483-0.687,0.648
				c-0.226,0.168-0.47,0.294-0.734,0.38c-0.263,0.089-0.551,0.13-0.864,0.13c-0.414,0-0.797-0.087-1.149-0.262
				c-0.352-0.176-0.657-0.426-0.915-0.751c-0.258-0.324-0.453-0.705-0.585-1.145c-0.133-0.439-0.2-0.914-0.2-1.424
				c0-1.08,0.264-1.923,0.791-2.527c0.527-0.603,1.222-0.905,2.083-0.905c0.498,0,0.918,0.086,1.26,0.257
				c0.342,0.171,0.675,0.435,1,0.788v-2.55c0-0.355,0.071-0.622,0.213-0.805c0.141-0.181,0.343-0.272,0.605-0.272
				c0.261,0,0.463,0.083,0.604,0.25c0.141,0.168,0.212,0.413,0.212,0.738v7.622c0,0.329-0.076,0.575-0.228,0.741
				c-0.152,0.164-0.348,0.246-0.589,0.246c-0.236,0-0.432-0.085-0.586-0.255C221.75,485.161,221.672,484.918,221.672,484.601z
				 M218.274,482.063c0,0.469,0.072,0.867,0.218,1.196c0.146,0.329,0.345,0.577,0.599,0.743c0.253,0.167,0.529,0.251,0.829,0.251
				c0.304,0,0.582-0.079,0.832-0.238c0.251-0.158,0.452-0.401,0.601-0.728c0.15-0.327,0.225-0.737,0.225-1.225
				c0-0.461-0.075-0.856-0.225-1.188c-0.149-0.331-0.352-0.583-0.607-0.759c-0.256-0.174-0.535-0.262-0.839-0.262
				c-0.316,0-0.599,0.09-0.848,0.268c-0.249,0.18-0.442,0.436-0.579,0.772C218.342,481.23,218.274,481.619,218.274,482.063z"/>
			<path id="XMLID_63837_" style="fill:#0091C8;" d="M228.736,476.98v2.639c0.325-0.337,0.656-0.596,0.994-0.775
				c0.337-0.18,0.756-0.27,1.253-0.27c0.574,0,1.077,0.137,1.51,0.408c0.432,0.273,0.767,0.668,1.006,1.185
				c0.238,0.517,0.358,1.13,0.358,1.839c0,0.523-0.067,1.002-0.2,1.44c-0.133,0.437-0.326,0.816-0.579,1.136
				c-0.253,0.32-0.56,0.569-0.921,0.745c-0.361,0.174-0.759,0.262-1.193,0.262c-0.266,0-0.516-0.031-0.75-0.095
				c-0.235-0.063-0.434-0.146-0.598-0.25c-0.164-0.103-0.305-0.21-0.421-0.319c-0.116-0.109-0.27-0.275-0.459-0.495v0.172
				c0,0.324-0.078,0.57-0.234,0.738c-0.156,0.167-0.354,0.249-0.595,0.249c-0.245,0-0.44-0.082-0.585-0.249
				c-0.146-0.168-0.218-0.414-0.218-0.738v-7.546c0-0.35,0.071-0.616,0.212-0.794c0.141-0.18,0.339-0.269,0.592-0.269
				c0.266,0,0.471,0.086,0.614,0.256C228.664,476.42,228.736,476.662,228.736,476.98z M228.818,482.114
				c0,0.687,0.157,1.216,0.472,1.584c0.314,0.37,0.727,0.556,1.238,0.556c0.434,0,0.809-0.189,1.123-0.568
				c0.314-0.378,0.471-0.919,0.471-1.623c0-0.456-0.065-0.849-0.196-1.178c-0.131-0.329-0.316-0.583-0.557-0.763
				c-0.241-0.178-0.522-0.268-0.842-0.268c-0.329,0-0.623,0.09-0.88,0.268c-0.257,0.18-0.46,0.439-0.608,0.778
				C228.892,481.24,228.818,481.645,228.818,482.114z"/>
			<path id="XMLID_63840_" style="fill:#0091C8;" d="M236.098,485.804l0.158-0.387l-2.127-5.355
				c-0.13-0.307-0.196-0.533-0.196-0.672c0-0.147,0.038-0.284,0.114-0.41c0.076-0.128,0.18-0.229,0.313-0.305
				c0.133-0.077,0.271-0.115,0.415-0.115c0.249,0,0.436,0.079,0.564,0.238c0.127,0.158,0.238,0.384,0.335,0.679l1.462,4.254
				l1.386-3.956c0.109-0.32,0.209-0.571,0.297-0.754c0.089-0.181,0.182-0.303,0.282-0.366c0.099-0.064,0.239-0.096,0.421-0.096
				c0.131,0,0.256,0.035,0.377,0.105c0.12,0.069,0.213,0.163,0.278,0.281c0.065,0.118,0.099,0.242,0.099,0.374
				c-0.018,0.079-0.044,0.194-0.083,0.342c-0.038,0.147-0.084,0.298-0.139,0.449l-2.254,5.899c-0.195,0.519-0.384,0.926-0.57,1.221
				c-0.186,0.296-0.431,0.523-0.737,0.681c-0.306,0.159-0.719,0.238-1.238,0.238c-0.506,0-0.886-0.055-1.139-0.164
				c-0.254-0.111-0.38-0.311-0.38-0.603c0-0.198,0.06-0.351,0.181-0.458c0.12-0.108,0.298-0.163,0.534-0.163
				c0.093,0,0.184,0.013,0.273,0.039c0.11,0.025,0.204,0.038,0.284,0.038c0.198,0,0.355-0.029,0.469-0.089
				c0.114-0.059,0.216-0.161,0.307-0.307C235.875,486.301,235.979,486.087,236.098,485.804z"/>
		</g>
		<g id="XMLID_63842_">
			<path id="XMLID_63843_" style="fill:#0091C8;" d="M261.132,478.711h0.413v-0.518c0-0.543,0.066-0.971,0.204-1.291
				c0.135-0.319,0.37-0.551,0.698-0.696c0.327-0.145,0.775-0.217,1.343-0.217c1.013,0,1.515,0.245,1.515,0.742
				c0,0.159-0.053,0.297-0.16,0.41c-0.103,0.113-0.229,0.17-0.372,0.17c-0.066,0-0.185-0.012-0.352-0.039
				c-0.158-0.022-0.301-0.038-0.415-0.038c-0.311,0-0.51,0.094-0.603,0.277c-0.085,0.184-0.13,0.445-0.13,0.789v0.411h0.422
				c0.66,0,0.987,0.198,0.987,0.598c0,0.279-0.085,0.46-0.262,0.536c-0.174,0.076-0.415,0.113-0.725,0.113h-0.422v4.579
				c0,0.341-0.081,0.6-0.246,0.778c-0.161,0.182-0.37,0.271-0.629,0.271c-0.245,0-0.447-0.089-0.612-0.271
				c-0.163-0.178-0.242-0.437-0.242-0.778v-4.579h-0.476c-0.259,0-0.454-0.056-0.595-0.174c-0.139-0.113-0.21-0.266-0.21-0.452
				C260.264,478.917,260.553,478.711,261.132,478.711"/>
			<path id="XMLID_63844_" style="fill:#0091C8;" d="M266.79,483.093v1.445c0,0.349-0.089,0.613-0.25,0.786
				c-0.164,0.177-0.372,0.263-0.625,0.263c-0.254,0-0.458-0.087-0.617-0.267c-0.157-0.176-0.241-0.437-0.241-0.782v-4.814
				c0-0.777,0.28-1.165,0.841-1.165c0.289,0,0.495,0.09,0.622,0.272c0.126,0.182,0.197,0.449,0.211,0.804
				c0.206-0.355,0.417-0.622,0.633-0.804c0.221-0.182,0.508-0.272,0.872-0.272c0.366,0,0.715,0.09,1.057,0.272
				c0.344,0.182,0.514,0.424,0.514,0.723c0,0.21-0.074,0.387-0.217,0.521c-0.147,0.139-0.303,0.208-0.471,0.208
				c-0.066,0-0.22-0.042-0.461-0.12c-0.243-0.076-0.459-0.116-0.642-0.116c-0.254,0-0.462,0.069-0.621,0.199
				c-0.161,0.137-0.288,0.331-0.376,0.591c-0.086,0.263-0.146,0.577-0.182,0.936C266.805,482.133,266.79,482.575,266.79,483.093"/>
			<path id="XMLID_63845_" style="fill:#0091C8;" d="M274.735,482.498h-3.382c0.007,0.392,0.083,0.741,0.237,1.039
				c0.156,0.298,0.359,0.525,0.616,0.678c0.257,0.151,0.536,0.227,0.846,0.227c0.207,0,0.394-0.022,0.566-0.074
				c0.169-0.047,0.336-0.124,0.496-0.228c0.161-0.102,0.307-0.212,0.443-0.333c0.135-0.116,0.311-0.277,0.527-0.479
				c0.09-0.076,0.216-0.116,0.379-0.116c0.178,0,0.32,0.049,0.432,0.148c0.111,0.098,0.163,0.233,0.163,0.411
				c0,0.156-0.06,0.338-0.178,0.545c-0.125,0.212-0.309,0.411-0.557,0.604c-0.25,0.19-0.56,0.352-0.932,0.476
				c-0.372,0.126-0.803,0.19-1.287,0.19c-1.113,0-1.975-0.315-2.59-0.948c-0.616-0.634-0.927-1.494-0.927-2.577
				c0-0.512,0.078-0.986,0.232-1.423c0.15-0.439,0.371-0.811,0.665-1.125c0.29-0.314,0.647-0.552,1.075-0.719
				c0.424-0.167,0.897-0.25,1.417-0.25c0.674,0,1.254,0.143,1.738,0.431c0.482,0.281,0.849,0.651,1.086,1.103
				c0.241,0.453,0.361,0.911,0.361,1.382c0,0.432-0.125,0.713-0.374,0.844C275.537,482.434,275.186,482.498,274.735,482.498
				 M271.353,481.515h3.133c-0.042-0.59-0.198-1.032-0.475-1.324c-0.279-0.294-0.639-0.44-1.093-0.44
				c-0.431,0-0.785,0.147-1.061,0.447C271.581,480.495,271.412,480.933,271.353,481.515"/>
			<path id="XMLID_63848_" style="fill:#0091C8;" d="M281.924,482.498h-3.381c0.004,0.392,0.083,0.741,0.236,1.039
				c0.155,0.298,0.359,0.525,0.615,0.678c0.255,0.151,0.536,0.227,0.847,0.227c0.204,0,0.394-0.022,0.562-0.074
				c0.173-0.047,0.337-0.124,0.5-0.228c0.161-0.102,0.307-0.212,0.443-0.333c0.133-0.116,0.31-0.277,0.526-0.479
				c0.09-0.076,0.217-0.116,0.379-0.116c0.178,0,0.322,0.049,0.434,0.148c0.109,0.098,0.16,0.233,0.16,0.411
				c0,0.156-0.059,0.338-0.182,0.545c-0.118,0.212-0.303,0.411-0.553,0.604c-0.247,0.19-0.56,0.352-0.931,0.476
				c-0.371,0.126-0.804,0.19-1.289,0.19c-1.112,0-1.972-0.315-2.59-0.948c-0.616-0.634-0.926-1.494-0.926-2.577
				c0-0.512,0.077-0.986,0.232-1.423c0.151-0.439,0.372-0.811,0.664-1.125c0.29-0.314,0.648-0.552,1.075-0.719
				c0.426-0.167,0.901-0.25,1.419-0.25c0.673,0,1.252,0.143,1.742,0.431c0.48,0.281,0.843,0.651,1.08,1.103
				c0.24,0.453,0.363,0.911,0.363,1.382c0,0.432-0.127,0.713-0.374,0.844C282.725,482.434,282.374,482.498,281.924,482.498
				 M278.544,481.515h3.133c-0.043-0.59-0.203-1.032-0.476-1.324c-0.281-0.294-0.642-0.44-1.095-0.44
				c-0.431,0-0.784,0.147-1.062,0.447C278.769,480.495,278.6,480.933,278.544,481.515"/>
			<path id="XMLID_63851_" style="fill:#0091C8;" d="M285.71,479.531v0.207c0.324-0.401,0.663-0.695,1.017-0.883
				c0.345-0.19,0.745-0.285,1.187-0.285c0.53,0,1.023,0.139,1.471,0.411c0.448,0.276,0.799,0.677,1.06,1.204
				c0.259,0.53,0.391,1.153,0.391,1.876c0,0.53-0.076,1.021-0.224,1.467c-0.15,0.445-0.358,0.818-0.62,1.12
				c-0.262,0.299-0.57,0.534-0.926,0.696c-0.362,0.161-0.741,0.242-1.152,0.242c-0.492,0-0.909-0.099-1.243-0.298
				c-0.334-0.194-0.655-0.488-0.961-0.87v2.594c0,0.756-0.277,1.139-0.829,1.139c-0.327,0-0.539-0.098-0.647-0.293
				c-0.102-0.199-0.156-0.482-0.156-0.86v-7.46c0-0.329,0.072-0.573,0.213-0.738c0.143-0.159,0.341-0.242,0.59-0.242
				c0.246,0,0.444,0.083,0.598,0.249C285.634,478.977,285.71,479.215,285.71,479.531 M289.098,482.042
				c0-0.457-0.07-0.849-0.21-1.175c-0.139-0.328-0.332-0.578-0.577-0.751c-0.245-0.176-0.522-0.264-0.821-0.264
				c-0.476,0-0.879,0.189-1.205,0.562c-0.328,0.378-0.493,0.929-0.493,1.661c0,0.685,0.163,1.222,0.491,1.604
				c0.324,0.383,0.724,0.573,1.208,0.573c0.285,0,0.553-0.085,0.798-0.249c0.247-0.168,0.443-0.418,0.588-0.751
				C289.024,482.917,289.098,482.513,289.098,482.042"/>
			<path id="XMLID_63854_" style="fill:#0091C8;" d="M292.575,477.754c-0.242,0-0.447-0.077-0.616-0.224
				c-0.173-0.148-0.258-0.354-0.258-0.623c0-0.246,0.087-0.447,0.264-0.607c0.174-0.156,0.378-0.237,0.609-0.237
				c0.227,0,0.423,0.07,0.595,0.212c0.173,0.146,0.26,0.357,0.26,0.631c0,0.265-0.085,0.474-0.251,0.623
				C293.009,477.678,292.809,477.754,292.575,477.754 M293.43,479.539v5c0,0.344-0.082,0.605-0.246,0.781
				c-0.167,0.18-0.374,0.267-0.627,0.267c-0.254,0-0.457-0.089-0.618-0.271c-0.156-0.184-0.237-0.443-0.237-0.777v-4.95
				c0-0.34,0.081-0.596,0.237-0.769c0.161-0.176,0.365-0.26,0.618-0.26c0.254,0,0.461,0.085,0.627,0.26
				C293.348,478.992,293.43,479.234,293.43,479.539"/>
			<path id="XMLID_63857_" style="fill:#0091C8;" d="M299.001,484.798l-1.522-2.51l-0.939,0.885v1.377
				c0,0.332-0.089,0.587-0.264,0.765c-0.172,0.182-0.377,0.271-0.604,0.271c-0.266,0-0.476-0.087-0.627-0.267
				c-0.151-0.176-0.229-0.437-0.229-0.782v-7.373c0-0.383,0.077-0.674,0.221-0.876c0.148-0.203,0.363-0.301,0.635-0.301
				c0.266,0,0.475,0.091,0.633,0.273c0.156,0.181,0.236,0.449,0.236,0.802v4.194l1.943-2.041c0.241-0.251,0.422-0.427,0.551-0.519
				c0.126-0.092,0.28-0.138,0.459-0.138c0.217,0,0.396,0.069,0.544,0.206c0.141,0.137,0.213,0.31,0.213,0.516
				c0,0.253-0.236,0.592-0.703,1.014l-0.918,0.841l1.772,2.788c0.129,0.208,0.227,0.362,0.283,0.47
				c0.056,0.107,0.087,0.214,0.087,0.309c0,0.275-0.077,0.49-0.228,0.65c-0.15,0.158-0.349,0.236-0.59,0.236
				c-0.211,0-0.376-0.053-0.489-0.17C299.353,485.302,299.195,485.095,299.001,484.798"/>
			<path id="XMLID_63858_" style="fill:#0091C8;" d="M302.758,485.587c-0.262,0-0.485-0.083-0.676-0.254
				c-0.19-0.165-0.286-0.404-0.286-0.71c0-0.257,0.092-0.479,0.273-0.663c0.184-0.186,0.405-0.28,0.672-0.28
				c0.266,0,0.491,0.094,0.682,0.275c0.186,0.183,0.281,0.409,0.281,0.668c0,0.302-0.095,0.539-0.281,0.707
				C303.232,485.503,303.01,485.587,302.758,485.587"/>
			<path id="XMLID_63859_" style="fill:#0091C8;" d="M311.354,483.448c0,0.214-0.065,0.445-0.194,0.689
				c-0.128,0.247-0.325,0.479-0.591,0.7c-0.263,0.221-0.594,0.401-0.996,0.535c-0.401,0.135-0.854,0.204-1.354,0.204
				c-1.07,0-1.904-0.312-2.504-0.933c-0.596-0.624-0.897-1.459-0.897-2.506c0-0.712,0.137-1.337,0.413-1.882
				c0.272-0.543,0.669-0.965,1.187-1.263c0.519-0.298,1.144-0.446,1.863-0.446c0.449,0,0.858,0.065,1.234,0.197
				c0.374,0.13,0.689,0.301,0.95,0.506c0.258,0.21,0.457,0.428,0.592,0.661c0.138,0.234,0.206,0.453,0.206,0.657
				c0,0.206-0.076,0.381-0.229,0.525c-0.156,0.143-0.344,0.216-0.558,0.216c-0.146,0-0.266-0.038-0.361-0.111
				c-0.096-0.074-0.203-0.193-0.319-0.36c-0.212-0.319-0.431-0.561-0.664-0.72c-0.229-0.161-0.521-0.241-0.876-0.241
				c-0.508,0-0.922,0.198-1.235,0.597c-0.311,0.397-0.469,0.946-0.469,1.636c0,0.325,0.042,0.626,0.122,0.898
				c0.078,0.271,0.194,0.504,0.346,0.695c0.154,0.191,0.336,0.337,0.551,0.436c0.216,0.103,0.454,0.151,0.709,0.151
				c0.348,0,0.644-0.081,0.89-0.241c0.251-0.16,0.469-0.405,0.657-0.734c0.105-0.194,0.219-0.345,0.34-0.456
				c0.121-0.109,0.272-0.167,0.45-0.167c0.211,0,0.387,0.082,0.523,0.242C311.283,483.095,311.354,483.267,311.354,483.448"/>
			<path id="XMLID_63860_" style="fill:#0091C8;" d="M318.812,482.075c0,0.513-0.081,0.989-0.237,1.425
				c-0.164,0.435-0.394,0.808-0.699,1.118c-0.303,0.312-0.668,0.552-1.088,0.72c-0.426,0.165-0.9,0.25-1.425,0.25
				c-0.523,0-0.994-0.085-1.414-0.255c-0.415-0.165-0.78-0.409-1.083-0.721c-0.307-0.318-0.539-0.689-0.702-1.117
				c-0.152-0.43-0.233-0.904-0.233-1.42c0-0.525,0.082-1.004,0.238-1.438c0.161-0.436,0.393-0.808,0.693-1.116
				c0.301-0.307,0.663-0.544,1.087-0.713c0.43-0.165,0.899-0.249,1.414-0.249c0.523,0,0.999,0.083,1.425,0.254
				c0.426,0.168,0.789,0.41,1.096,0.72c0.305,0.316,0.535,0.686,0.693,1.114C318.732,481.08,318.812,481.553,318.812,482.075
				 M317.077,482.075c0-0.706-0.156-1.254-0.465-1.645c-0.309-0.397-0.726-0.592-1.25-0.592c-0.338,0-0.636,0.089-0.894,0.263
				c-0.258,0.174-0.454,0.432-0.594,0.776c-0.139,0.342-0.21,0.742-0.21,1.199c0,0.452,0.068,0.845,0.206,1.182
				c0.139,0.34,0.335,0.597,0.591,0.777c0.256,0.177,0.556,0.27,0.901,0.27c0.523,0,0.941-0.198,1.25-0.595
				C316.921,483.315,317.077,482.769,317.077,482.075"/>
			<path id="XMLID_63863_" style="fill:#0091C8;" d="M325.405,482.201v2.298c0,0.365-0.081,0.634-0.246,0.818
				c-0.167,0.182-0.381,0.272-0.652,0.272c-0.262,0-0.475-0.09-0.634-0.272c-0.164-0.184-0.247-0.453-0.247-0.818v-2.753
				c0-0.436-0.014-0.775-0.043-1.017c-0.03-0.236-0.112-0.436-0.241-0.588c-0.132-0.156-0.34-0.234-0.621-0.234
				c-0.566,0-0.937,0.194-1.117,0.587c-0.178,0.384-0.271,0.942-0.271,1.671v2.334c0,0.358-0.082,0.63-0.241,0.815
				c-0.167,0.182-0.379,0.275-0.643,0.275c-0.264,0-0.478-0.092-0.644-0.275c-0.168-0.185-0.251-0.457-0.251-0.815v-4.945
				c0-0.326,0.074-0.573,0.224-0.741c0.152-0.171,0.35-0.254,0.592-0.254c0.238,0,0.435,0.082,0.595,0.237
				c0.158,0.159,0.236,0.378,0.236,0.656v0.163c0.302-0.357,0.624-0.621,0.963-0.786c0.344-0.173,0.721-0.258,1.142-0.258
				c0.433,0,0.807,0.087,1.118,0.26c0.312,0.173,0.569,0.436,0.773,0.784c0.293-0.352,0.605-0.614,0.94-0.786
				c0.333-0.172,0.702-0.258,1.108-0.258c0.47,0,0.88,0.095,1.222,0.28c0.34,0.185,0.595,0.453,0.764,0.797
				c0.147,0.315,0.22,0.806,0.22,1.477v3.374c0,0.365-0.081,0.634-0.245,0.818c-0.164,0.182-0.383,0.272-0.652,0.272
				c-0.263,0-0.476-0.092-0.643-0.275c-0.167-0.185-0.251-0.457-0.251-0.815v-2.907c0-0.372-0.016-0.669-0.046-0.892
				c-0.031-0.225-0.119-0.414-0.255-0.565c-0.142-0.151-0.354-0.229-0.635-0.229c-0.228,0-0.444,0.072-0.65,0.206
				c-0.204,0.131-0.365,0.318-0.48,0.542C325.47,480.945,325.405,481.462,325.405,482.201"/>
		</g>
		<g id="XMLID_63864_">
			<path id="XMLID_63865_" style="fill:#0091C8;" d="M244.958,481.656c-0.001-0.003-0.001-0.007-0.001-0.012
				C244.957,481.649,244.957,481.653,244.958,481.656z"/>
			<path id="XMLID_63866_" style="fill:#0091C8;" d="M245.046,482.209c0.001,0,0.001,0,0.001,0
				c-0.032-0.158-0.058-0.314-0.078-0.469C244.989,481.896,245.014,482.053,245.046,482.209z"/>
			<path id="XMLID_63867_" style="fill:#0091C8;" d="M245.618,483.813c-0.004-0.007-0.007-0.014-0.011-0.022
				C245.61,483.798,245.614,483.806,245.618,483.813z"/>
			<path id="XMLID_63868_" style="fill:#0091C8;" d="M245.563,483.706c-0.015-0.03-0.029-0.06-0.044-0.09
				C245.534,483.647,245.548,483.676,245.563,483.706z"/>
			<path id="XMLID_63869_" style="fill:#0091C8;" d="M245.206,482.826c0.085,0.267,0.187,0.526,0.305,0.772
				c-0.12-0.251-0.22-0.51-0.302-0.772C245.208,482.826,245.207,482.826,245.206,482.826z"/>
			<path id="XMLID_63870_" style="fill:#0091C8;" d="M251.648,475.034c0.334,0,0.58,0.026,0.863,0.074l0.081-0.509
				c0,0-0.781-0.24-1.807-0.156l-0.081-0.276c0.319-0.068,0.558-0.352,0.558-0.69c0-0.388-0.316-0.702-0.704-0.702
				c-0.389,0-0.704,0.314-0.704,0.702c0,0.338,0.239,0.622,0.557,0.69l0.09,0.309c-1.09,0.15-1.957,0.574-1.957,0.574l0.154,0.47
				c0.659-0.219,1.23-0.353,1.749-0.409C250.955,475.057,251.337,475.034,251.648,475.034z"/>
			<path id="XMLID_63871_" style="fill:#0091C8;" d="M245.605,477.605l0.004-0.005c0.026-0.033,0.051-0.064,0.076-0.095l-0.209-0.15
				l-0.325-0.238c-0.018,0.026-0.53,0.496-0.934,1.366c-0.017-0.027-0.037-0.055-0.06-0.079c-0.121-0.133-0.29-0.2-0.505-0.197
				c-0.003,0-0.006,0-0.01,0c-0.133,0-0.225-0.044-0.284-0.098c0.06-0.076,0.095-0.171,0.095-0.276c0-0.245-0.2-0.445-0.446-0.445
				c-0.246,0-0.445,0.201-0.445,0.445c0,0.247,0.2,0.447,0.445,0.447c0.039,0,0.076-0.007,0.111-0.014
				c0.11,0.122,0.283,0.228,0.538,0.223c0.131-0.001,0.227,0.033,0.292,0.104c0.074,0.081,0.099,0.197,0.107,0.285
				c-0.001,0.001-0.001,0.003-0.002,0.003c-0.29,0.793-0.207,1.779-0.207,1.779l0.704,0.029c0.014-0.359,0.066-0.988,0.248-1.487
				C245.147,478.235,245.587,477.631,245.605,477.605z"/>
			<path id="XMLID_63872_" style="fill:#0091C8;" d="M257.779,475.622c-0.245,0-0.445,0.199-0.445,0.447
				c0,0.038,0.005,0.074,0.016,0.109c-0.122,0.111-0.229,0.285-0.225,0.54c0.003,0.131-0.031,0.226-0.103,0.292
				c-0.056,0.049-0.128,0.077-0.197,0.094c-0.525-0.735-1.17-1.183-1.17-1.183l-0.506,0.542c0.383,0.348,0.773,0.784,1.152,1.327
				c0.263,0.376,0.532,0.86,0.758,1.343l0.682-0.324c0,0-0.311-0.771-0.75-1.461c0.076-0.027,0.152-0.069,0.22-0.129
				c0.134-0.12,0.199-0.29,0.195-0.505c-0.001-0.138,0.044-0.232,0.099-0.294c0.077,0.059,0.172,0.095,0.275,0.095
				c0.247,0,0.447-0.199,0.447-0.445C258.225,475.821,258.026,475.622,257.779,475.622z"/>
			<path id="XMLID_63873_" style="fill:#0091C8;" d="M256.008,481.756c-0.94,0.457-2.485,1.062-4.519,1.346
				c-0.799,0.111-1.573,0.151-2.285,0.151c-0.927,0-1.746-0.069-2.374-0.148c-0.717-0.09-1.278-0.201-1.621-0.279
				c0.082,0.262,0.182,0.521,0.302,0.772c0.002,0.007,0.005,0.014,0.008,0.018c0.014,0.03,0.029,0.06,0.044,0.09
				c0.014,0.029,0.029,0.057,0.043,0.085c0.004,0.008,0.007,0.016,0.011,0.022c0.202,0.38,0.444,0.729,0.72,1.032
				c0.96,1.049,1.938,1.216,1.947,1.217l0.015,0.001l0.014,0.005c0.009,0.004,0.876,0.284,2.193,0.284
				c1.297,0,2.57-0.262,3.781-0.779c0.898-0.46,1.748-1.157,2.169-1.779c0.325-0.482,0.561-0.995,0.7-1.528
				c0.074-0.284,0.133-0.738,0.098-1.217C256.991,481.227,256.573,481.48,256.008,481.756z"/>
			<path id="XMLID_63874_" style="fill:#0091C8;" d="M245.906,477.827c-0.027,0.04-0.435,0.617-0.757,1.502
				c-0.241,0.663-0.23,1.628-0.23,1.639v0.003c0,0.227,0.013,0.45,0.038,0.673c0,0.005,0,0.009,0.001,0.012
				c0.003,0.029,0.008,0.056,0.01,0.085c0.02,0.155,0.046,0.311,0.079,0.469c0.467,0.118,3.251,0.768,6.363,0.335
				c1.951-0.272,3.433-0.849,4.332-1.285c0.747-0.362,1.228-0.69,1.412-0.825c-0.185-0.685-0.694-1.76-1.161-2.43
				c-1.337-1.91-2.778-2.399-3.517-2.521c-0.282-0.046-0.509-0.073-0.829-0.073c-0.298,0-0.668,0.025-1.161,0.077
				c-0.495,0.051-1.048,0.181-1.688,0.397c-0.898,0.301-1.711,0.772-2.351,1.364l-0.022,0.021
				C246.332,477.355,246.134,477.538,245.906,477.827z M254.083,477.383c0.64,0,1.162,0.521,1.162,1.161
				c0,0.642-0.522,1.163-1.162,1.163c-0.64,0-1.161-0.521-1.161-1.163C252.922,477.904,253.443,477.383,254.083,477.383z
				 M248.591,477.336c1.038,0,1.878,0.841,1.878,1.878c0,1.036-0.84,1.876-1.878,1.876c-1.036,0-1.877-0.84-1.877-1.876
				C246.714,478.177,247.555,477.336,248.591,477.336z"/>
		</g>
	</g>
</g>
</svg>
