<svg width="700" height="215" viewBox="0 0 700 215" fill="none" xmlns="http://www.w3.org/2000/svg">
<path d="M20.8363 215C17.2927 215 13.6074 214.718 9.78031 214.154C5.81149 213.73 2.55139 213.166 0 212.461V187.702C2.55139 188.266 4.96103 188.689 7.22892 188.971C9.49682 189.395 12.0482 189.606 14.8831 189.606C19.1354 189.606 22.7498 188.407 25.7265 186.009C28.7031 183.611 30.1914 178.955 30.1914 172.042V48.6711H61.8711V176.698C61.8711 183.752 60.5245 190.171 57.8314 195.955C55.1383 201.739 50.7442 206.324 44.6492 209.71C38.696 213.237 30.7584 215 20.8363 215ZM28.9157 18.8335C28.9157 12.9083 30.5457 8.88762 33.8059 6.77148C37.2077 4.51425 41.3183 3.38564 46.1375 3.38564C50.8151 3.38564 54.8548 4.51425 58.2566 6.77148C61.6585 8.88762 63.3594 12.9083 63.3594 18.8335C63.3594 24.6176 61.6585 28.6383 58.2566 30.8955C54.8548 33.1527 50.8151 34.2813 46.1375 34.2813C41.3183 34.2813 37.2077 33.1527 33.8059 30.8955C30.5457 28.6383 28.9157 24.6176 28.9157 18.8335Z" fill="black"/>
<path d="M186.145 106.23C186.145 115.824 184.798 124.359 182.105 131.836C179.554 139.313 175.797 145.661 170.836 150.881C166.017 155.96 160.135 159.839 153.189 162.52C146.244 165.059 138.377 166.329 129.589 166.329C121.51 166.329 113.997 165.059 107.052 162.52C100.248 159.839 94.3657 155.96 89.4047 150.881C84.4437 145.661 80.5457 139.313 77.7109 131.836C75.0177 124.359 73.6712 115.824 73.6712 106.23C73.6712 93.3925 75.9391 82.6001 80.4749 73.8534C85.0107 64.9656 91.5309 58.1939 100.035 53.5384C108.54 48.8829 118.604 46.5551 130.227 46.5551C141.141 46.5551 150.78 48.8829 159.143 53.5384C167.505 58.1939 174.097 64.9656 178.916 73.8534C183.735 82.6001 186.145 93.3925 186.145 106.23ZM105.989 106.23C105.989 113.849 106.768 120.267 108.327 125.487C110.028 130.566 112.651 134.446 116.194 137.126C119.738 139.665 124.345 140.935 130.014 140.935C135.684 140.935 140.22 139.665 143.622 137.126C147.165 134.446 149.717 130.566 151.276 125.487C152.977 120.267 153.827 113.849 153.827 106.23C153.827 98.6123 152.977 92.2638 151.276 87.1851C149.717 82.1064 147.165 78.2973 143.622 75.7579C140.078 73.2186 135.471 71.9489 129.802 71.9489C121.439 71.9489 115.344 74.8409 111.517 80.6251C107.831 86.2681 105.989 94.8032 105.989 106.23Z" fill="black"/>
<path d="M507.942 43.1693C520.416 43.1693 530.409 46.5552 537.921 53.3268C545.433 59.9574 549.19 70.6792 549.19 85.4922V160.827H517.51V93.3219C517.51 84.9984 516.022 78.7911 513.045 74.6999C510.068 70.4676 505.32 68.3514 498.8 68.3514C489.161 68.3514 482.57 71.6667 479.027 78.2973C475.483 84.7868 473.711 94.1684 473.711 106.442V160.827H442.031V45.2855H466.27L470.522 60.0985H472.223C474.774 56.1483 477.893 52.9741 481.578 50.5758C485.263 48.0365 489.374 46.2025 493.91 45.0738C498.445 43.8042 503.123 43.1693 507.942 43.1693Z" fill="black"/>
<path d="M593.25 45.2855V160.827H561.57V45.2855H593.25ZM577.517 0C582.194 0 586.234 1.12861 589.636 3.38584C593.037 5.50198 594.738 9.52264 594.738 15.4478C594.738 21.232 593.037 25.2526 589.636 27.5099C586.234 29.7671 582.194 30.8957 577.517 30.8957C572.697 30.8957 568.587 29.7671 565.185 27.5099C561.925 25.2526 560.295 21.232 560.295 15.4478C560.295 9.52264 561.925 5.50198 565.185 3.38584C568.587 1.12861 572.697 0 577.517 0Z" fill="black"/>
<path d="M660.106 160.827C648.625 160.827 638.845 158.781 630.765 154.69C622.686 150.458 616.52 143.968 612.268 135.222C608.015 126.475 605.889 115.259 605.889 101.575C605.889 87.4673 608.299 75.9696 613.118 67.0817C617.937 58.1939 624.599 51.6339 633.104 47.4016C641.75 43.1693 651.672 41.0532 662.87 41.0532C670.808 41.0532 677.682 41.8291 683.494 43.381C689.447 44.9328 694.621 46.7668 699.015 48.8829L689.66 73.2186C684.699 71.2435 680.021 69.6211 675.627 68.3514C671.375 67.0818 667.122 66.4469 662.87 66.4469C657.342 66.4469 652.735 67.7871 649.05 70.4676C645.365 73.007 642.601 76.8866 640.758 82.1064C639.057 87.1851 638.207 93.6041 638.207 101.363C638.207 108.981 639.128 115.33 640.971 120.409C642.955 125.346 645.79 129.085 649.475 131.624C653.161 134.022 657.626 135.222 662.87 135.222C669.532 135.222 675.414 134.375 680.517 132.682C685.62 130.848 690.581 128.379 695.4 125.276V152.151C690.581 155.254 685.478 157.441 680.092 158.711C674.847 160.122 668.186 160.827 660.106 160.827Z" fill="black"/>
<path d="M196.783 164.48V3.75964H227.233L226.438 64.1291H228.027C246.297 42.9468 260.019 41.3007 279.924 49.8311C296.605 56.9801 306.49 69.6894 308.785 78.4271L304.548 80.2806C297.929 88.7535 291.839 95.5495 289.191 97.7559C284.955 81.3397 259.801 66.5121 245.767 69.4247C231.734 72.3372 222.467 101.728 229.086 119.733C235.706 137.737 254.219 145.666 268.009 137.737C278.6 131.648 288.75 108.524 297.929 94.049C297.046 98.8151 295.546 108.93 296.605 111.26C297.929 114.172 300.312 113.643 305.342 111.524C309.367 109.83 311.432 99.3446 311.962 94.3138C314.698 93.9608 322.129 93.0429 329.967 92.1956C337.804 91.3483 344.353 91.1365 346.648 91.1365C349.296 91.0482 354.062 91.719 351.943 95.1082C349.825 98.4973 345.059 99.8742 342.941 100.139L325.995 103.316L338.705 103.052C342.676 102.345 350.514 101.622 350.09 104.375C349.56 107.818 348.501 107.553 345.589 109.671C343.259 111.366 330.496 112.848 324.406 113.378C328.378 113.643 337.222 114.013 340.823 113.378C344.424 112.742 345.677 113.466 345.854 113.907C346.207 114.437 345.854 116.185 341.617 118.938C337.51 121.608 328.426 121.175 324.015 120.583C324.493 120.741 325.347 121.045 326.789 121.586C330.179 122.857 335.968 122.469 338.44 122.116C339.411 121.939 341.352 122.221 341.352 124.763C341.352 127.305 337.116 129.176 334.998 129.794C335.086 129.353 334.68 128.047 332.35 126.352C329.437 124.234 328.378 125.822 327.054 127.146C325.995 128.205 325.377 127.941 325.201 127.676C324.318 125.999 322.023 122.645 319.905 122.645C317.257 122.645 314.08 127.146 314.08 126.882C314.08 126.67 313.021 125.734 312.491 125.293C307.725 122.91 304.813 128.205 304.019 128.735C303.383 129.159 303.93 130.5 304.283 131.118L303.754 131.383C301.324 130.573 297.664 133.236 295.281 138.532C292.302 145.151 290.072 151.179 289.191 152.3C282.13 162.185 267.691 166.651 253.711 166.863C236.235 167.128 230.145 154.154 229.086 150.447C228.239 147.481 227.145 149.211 226.703 150.447L220.613 164.48H196.783Z" fill="black"/>
<path d="M315.668 82.6635C320.964 83.5107 325.289 81.6043 326.789 80.5452C345.588 24.6771 433.676 24.0377 435.083 101.992C436.407 175.336 384.246 165.539 370.477 165.539C356.709 165.539 330.815 149.485 333.938 144.092C336.851 139.061 338.439 134.825 342.941 129.529C346.541 125.293 345.941 123.351 346.647 121.056C349.56 131.912 368.515 144.092 376.567 144.092H376.568C384.776 144.092 392.719 144.092 403.045 133.766C413.372 123.439 416.284 80.8101 399.074 71.8077C381.863 62.8052 374.449 66.5121 364.917 71.8077C357.686 75.8249 356.532 87.2529 354.591 93.2546C353.32 90.5009 351.766 89.8125 351.149 89.8125C350.619 88.2238 323.082 91.4011 316.992 91.4011C310.902 91.4011 309.578 92.725 307.99 97.491C306.719 101.304 305.342 105.611 304.812 107.288C304.636 108.523 303.383 110.73 299.782 109.671C296.181 108.612 300.576 93.1663 303.224 85.576C305.166 84.2521 310.373 81.8162 315.668 82.6635Z" fill="black"/>
<path d="M302.513 134.698C301.542 134.422 299.796 135.067 299.044 135.424C299.134 135.743 299.8 137.333 301.455 138.472C302.779 139.383 304.801 138.713 305.647 138.265C305.489 137.876 305.117 136.949 304.891 136.355C304.609 135.612 303.728 135.044 302.513 134.698Z" fill="black"/>
<path d="M313.649 130.418C312.833 127.224 310.238 128.036 308.893 128.122C308.786 128.124 308.34 128.25 307.144 129.148C305.112 130.675 307.113 135.789 307.762 137.701C308.281 139.23 309.699 139.582 310.343 139.567C311.098 139.477 312.824 139.068 313.688 138.148C314.768 136.998 314.67 134.409 313.649 130.418Z" fill="black"/>
<path d="M323.083 127.804C321.972 126.117 320.101 126.09 319.304 126.287C318.329 126.489 316.289 127.345 315.936 129.152C315.494 131.412 315.844 131.885 315.826 134.242C315.808 136.598 317.011 137.158 317.626 137.679C318.242 138.2 319.078 138.608 321.587 137.799C323.594 137.151 324.304 134.414 324.408 133.126C324.43 132.055 324.194 129.49 323.083 127.804Z" fill="black"/>
<path d="M333.55 133.604C333.685 133.065 333.421 130.984 332.416 129.722C331.639 128.748 329.51 128.758 328.441 128.895C327.529 128.959 326.52 130.212 326.342 130.933C326.162 131.661 325.371 134.796 325.983 135.766C326.245 136.563 327.333 138.015 329.593 137.447C332.418 136.737 333.427 134.09 333.55 133.604Z" fill="black"/>
<path d="M328.331 128.91C328.367 128.905 328.403 128.9 328.441 128.895M328.441 128.895C329.51 128.758 331.639 128.748 332.416 129.722C333.421 130.984 333.685 133.065 333.55 133.604C333.427 134.09 332.418 136.737 329.593 137.447C327.333 138.015 326.245 136.563 325.983 135.766C325.371 134.796 326.162 131.661 326.342 130.933C326.52 130.212 327.529 128.959 328.441 128.895ZM299.044 135.424C299.796 135.067 301.542 134.422 302.513 134.698C303.728 135.044 304.609 135.612 304.891 136.355C305.117 136.949 305.489 137.876 305.647 138.265C304.801 138.713 302.779 139.383 301.455 138.472C299.8 137.333 299.134 135.743 299.044 135.424ZM308.893 128.122C310.238 128.036 312.833 127.224 313.649 130.418C314.67 134.409 314.768 136.998 313.688 138.148C312.824 139.068 311.098 139.477 310.343 139.567C309.699 139.582 308.281 139.23 307.762 137.701C307.113 135.789 305.112 130.675 307.144 129.148C308.34 128.25 308.786 128.124 308.893 128.122ZM319.304 126.287C320.101 126.09 321.972 126.117 323.083 127.804C324.194 129.49 324.43 132.055 324.408 133.126C324.304 134.414 323.594 137.151 321.587 137.799C319.078 138.608 318.242 138.2 317.626 137.679C317.011 137.158 315.808 136.598 315.826 134.242C315.844 131.885 315.494 131.412 315.936 129.152C316.289 127.345 318.329 126.489 319.304 126.287Z" stroke="black"/>
</svg>
