<svg width="1440" height="4227" viewBox="0 0 1440 4227" fill="none" xmlns="http://www.w3.org/2000/svg">
<g clip-path="url(#clip0_287_2488)">
<rect width="1440" height="4227" fill="white"/>
<path d="M1248.01 972.581C1317.62 915.27 1422.92 926.177 1483.01 999.157C1543.1 1072.14 1533.59 1177.57 1463.99 1234.88C1394.38 1292.19 1289.08 1281.29 1228.99 1208.31C1168.9 1135.33 1178.41 1029.89 1248.01 972.581Z" stroke="#E6F4F7" stroke-width="54"/>
<circle cx="1355.73" cy="1103.73" r="257.616" transform="rotate(121.563 1355.73 1103.73)" stroke="#E6F4F7" stroke-width="2"/>
<circle cx="1359.54" cy="1107.54" r="22.4057" transform="rotate(-129.467 1359.54 1107.54)" fill="#EAF6F1"/>
<path d="M1171.15 3176.24C1271.32 3265.09 1280.51 3418.33 1191.66 3518.51C1102.8 3618.69 949.566 3627.87 849.388 3539.02C749.21 3450.17 740.028 3296.93 828.879 3196.75C917.729 3096.57 1070.97 3087.39 1171.15 3176.24Z" fill="#F1FCFE"/>
<path d="M1423.35 2891.88C1523.53 2980.73 1532.71 3133.97 1443.86 3234.15C1355.01 3334.32 1201.78 3343.51 1101.6 3254.66C1001.42 3165.8 992.236 3012.57 1081.09 2912.39C1169.94 2812.21 1323.18 2803.03 1423.35 2891.88Z" fill="#F1FCFE"/>
<ellipse cx="1009.45" cy="3357.68" rx="137.064" ry="141.671" transform="rotate(-48.4293 1009.45 3357.68)" fill="white"/>
<path d="M1361.02 2961.29C1419.55 3013.21 1426.29 3101.21 1376.06 3157.84C1325.83 3214.47 1237.66 3218.3 1179.12 3166.38C1120.59 3114.46 1113.85 3026.46 1164.08 2969.83C1214.31 2913.2 1302.48 2909.38 1361.02 2961.29Z" fill="white"/>
<path d="M508.089 916.176C547.728 951.333 551.361 1011.97 516.204 1051.61C481.047 1091.25 420.412 1094.88 380.773 1059.72C341.134 1024.57 337.501 963.931 372.658 924.292C407.815 884.653 468.449 881.019 508.089 916.176Z" fill="#E4F3F7"/>
<path d="M607.885 803.658C647.524 838.815 651.157 899.449 616 939.089C580.843 978.728 520.208 982.361 480.569 947.204C440.93 912.047 437.296 851.412 472.454 811.773C507.611 772.134 568.245 768.501 607.885 803.658Z" fill="#E4F3F7"/>
<ellipse cx="444.109" cy="987.969" rx="54.2345" ry="56.0575" transform="rotate(-48.4293 444.109 987.969)" fill="white"/>
<path d="M583.218 831.125C606.381 851.668 609.045 886.487 589.17 908.896C569.295 931.305 534.407 932.818 511.244 912.274C488.082 891.731 485.418 856.912 505.293 834.503C525.168 812.094 560.056 810.582 583.218 831.125Z" fill="white"/>
<circle cx="253.935" cy="2245.94" r="511.031" transform="rotate(121.563 253.935 2245.94)" stroke="#F3FBFD" stroke-width="48"/>
<path d="M80.6437 2528.55C-69.7861 2436.14 -114.463 2234.71 -18.4913 2078.48C77.4801 1922.26 277.35 1871.05 427.78 1963.46C578.209 2055.87 622.886 2257.3 526.915 2413.53C430.943 2569.76 231.074 2620.96 80.6437 2528.55Z" stroke="#F3FBFD" stroke-width="13"/>
<circle cx="1182.16" cy="528.161" r="102.625" transform="rotate(121.563 1182.16 528.161)" fill="#E0F6F7"/>
<circle cx="173.325" cy="297.325" r="125.5" transform="rotate(-57.4285 173.325 297.325)" fill="#DDEEF1"/>
<circle cx="1317" cy="772" r="294.166" transform="rotate(121.563 1317 772)" stroke="#D6EFF0" stroke-width="2"/>
<circle cx="1243.22" cy="191.217" r="50.0484" transform="rotate(121.563 1243.22 191.217)" stroke="#CFEDF4" stroke-width="2"/>
<circle cx="1242.62" cy="190.62" r="127.404" transform="rotate(121.563 1242.62 190.62)" stroke="#CFEDF4" stroke-width="2"/>
<circle cx="330.727" cy="486.727" r="257.616" transform="rotate(121.563 330.727 486.727)" stroke="#7DC6D1" stroke-opacity="0.6" stroke-width="2"/>
<circle cx="1316.8" cy="295.801" r="14.3955" transform="rotate(121.563 1316.8 295.801)" fill="url(#paint0_linear_287_2488)"/>
<circle cx="1241.86" cy="190.862" r="34.0688" transform="rotate(121.563 1241.86 190.862)" fill="#CFEDF4"/>
<circle cx="329.066" cy="487.066" r="218.5" transform="rotate(39.1557 329.066 487.066)" fill="#E6FBFF"/>
<circle cx="409.614" cy="235.614" r="32.4344" transform="rotate(121.563 409.614 235.614)" fill="#DCECF7"/>
<path d="M1350 3064.5C1350 3108.41 1314.41 3144 1270.5 3144C1226.59 3144 1191 3108.41 1191 3064.5C1191 3020.59 1226.59 2985 1270.5 2985C1314.41 2985 1350 3020.59 1350 3064.5ZM1087.5 3359.5C1087.5 3403.41 1051.91 3439 1008 3439C964.093 3439 928.5 3403.41 928.5 3359.5C928.5 3315.59 964.093 3280 1008 3280C1051.91 3280 1087.5 3315.59 1087.5 3359.5Z" stroke="#F2FAFC" stroke-width="8"/>
<path d="M675.956 873.022C675.956 944.28 618.209 1002.04 546.978 1002.04C475.747 1002.04 418 944.28 418 873.022C418 801.764 475.747 744 546.978 744C618.209 744 675.956 801.764 675.956 873.022Z" stroke="#E4F3F7" stroke-width="8"/>
<circle cx="254.199" cy="2246.2" r="163.193" transform="rotate(121.563 254.199 2246.2)" stroke="#F3FBFD" stroke-width="161"/>
<circle cx="916.199" cy="1532.2" r="163.193" transform="rotate(121.563 916.199 1532.2)" stroke="#EDFAFC" stroke-width="161"/>
<path d="M894.147 1567.18C875.435 1555.68 869.623 1530.4 881.817 1510.55C894.012 1490.7 919.188 1484.46 937.9 1495.95C956.611 1507.45 962.424 1532.73 950.229 1552.58C938.035 1572.43 912.858 1578.67 894.147 1567.18Z" stroke="#EDFAFC" stroke-width="13"/>
<path d="M-866.541 5287.76C-1392.2 4964.84 -1571.19 4306.02 -1270.95 3817.26C-970.701 3328.5 -302.122 3190.34 223.541 3513.26C749.204 3836.18 928.194 4495 627.947 4983.76C327.701 5472.52 -340.878 5610.67 -866.541 5287.76Z" stroke="#F1FAFB" stroke-width="48"/>
<path d="M-603.954 4905.58C-926.891 4707.19 -1030.63 4307.53 -851.84 4016.48C-673.049 3725.44 -269.655 3637.31 53.2823 3835.69C376.219 4034.07 479.959 4433.74 301.168 4724.78C122.377 5015.83 -281.017 5103.96 -603.954 4905.58Z" stroke="#F2FEFE" stroke-width="168"/>
</g>
<defs>
<linearGradient id="paint0_linear_287_2488" x1="1302.41" y1="295.801" x2="1331.2" y2="295.801" gradientUnits="userSpaceOnUse">
<stop stop-color="#D4EDF2"/>
<stop offset="1" stop-color="#B0DCE4"/>
</linearGradient>
<clipPath id="clip0_287_2488">
<rect width="1440" height="4227" fill="white"/>
</clipPath>
</defs>
</svg>
