<svg width="1440" height="4227" viewBox="0 0 1440 4227" fill="none" xmlns="http://www.w3.org/2000/svg">
<g clip-path="url(#clip0_287_2488)">
<rect width="1440" height="4227" fill="white"/>
<path d="M1248.01 972.581C1317.62 915.27 1422.92 926.177 1483.01 999.157C1543.1 1072.14 1533.59 1177.57 1463.99 1234.88C1394.38 1292.19 1289.08 1281.29 1228.99 1208.31C1168.9 1135.33 1178.41 1029.89 1248.01 972.581Z" stroke="#D7F5E4" stroke-opacity="0.7" stroke-width="54"/>
<circle cx="1355.73" cy="1103.73" r="257.616" transform="rotate(121.563 1355.73 1103.73)" stroke="#96D3B9" stroke-opacity="0.47" stroke-width="2"/>
<circle cx="1359.54" cy="1107.54" r="22.4057" transform="rotate(-129.467 1359.54 1107.54)" fill="#EAF6F1"/>
<path d="M1171.15 3176.24C1271.32 3265.09 1280.51 3418.33 1191.66 3518.51C1102.8 3618.69 949.566 3627.87 849.388 3539.02C749.21 3450.17 740.028 3296.93 828.879 3196.75C917.729 3096.57 1070.97 3087.39 1171.15 3176.24Z" fill="#FFEBEB"/>
<path d="M1423.35 2891.88C1523.53 2980.73 1532.71 3133.97 1443.86 3234.15C1355.01 3334.32 1201.78 3343.51 1101.6 3254.66C1001.42 3165.8 992.236 3012.57 1081.09 2912.39C1169.94 2812.21 1323.18 2803.03 1423.35 2891.88Z" fill="#FFEBEB"/>
<ellipse cx="1009.45" cy="3357.68" rx="137.064" ry="141.671" transform="rotate(-48.4293 1009.45 3357.68)" fill="white"/>
<path d="M1361.02 2961.29C1419.55 3013.21 1426.29 3101.21 1376.06 3157.84C1325.83 3214.47 1237.66 3218.3 1179.12 3166.38C1120.58 3114.46 1113.85 3026.46 1164.08 2969.83C1214.31 2913.2 1302.48 2909.38 1361.02 2961.29Z" fill="white"/>
<path d="M514.089 970.176C553.728 1005.33 557.361 1065.97 522.204 1105.61C487.047 1145.25 426.412 1148.88 386.773 1113.72C347.134 1078.57 343.501 1017.93 378.658 978.292C413.815 938.653 474.449 935.019 514.089 970.176Z" fill="#FFEBEB"/>
<path d="M613.885 857.658C653.524 892.815 657.157 953.449 622 993.089C586.843 1032.73 526.208 1036.36 486.569 1001.2C446.93 966.047 443.296 905.412 478.454 865.773C513.611 826.134 574.245 822.501 613.885 857.658Z" fill="#FFEBEB"/>
<ellipse cx="450.109" cy="1041.97" rx="54.2345" ry="56.0575" transform="rotate(-48.4293 450.109 1041.97)" fill="white"/>
<path d="M589.218 885.125C612.381 905.668 615.045 940.487 595.17 962.896C575.295 985.305 540.407 986.818 517.244 966.274C494.082 945.731 491.418 910.912 511.293 888.503C531.168 866.094 566.056 864.582 589.218 885.125Z" fill="white"/>
<circle cx="253.935" cy="2245.94" r="511.031" transform="rotate(121.563 253.935 2245.94)" stroke="#96D3B9" stroke-opacity="0.2" stroke-width="48"/>
<path d="M80.6433 2528.55C-69.7866 2436.14 -114.463 2234.71 -18.4917 2078.48C77.4796 1922.26 277.349 1871.05 427.779 1963.46C578.209 2055.87 622.886 2257.3 526.914 2413.53C430.943 2569.76 231.073 2620.96 80.6433 2528.55Z" stroke="#96D3B9" stroke-opacity="0.2" stroke-width="13"/>
<circle cx="1182.16" cy="528.161" r="102.625" transform="rotate(121.563 1182.16 528.161)" fill="url(#paint0_linear_287_2488)" fill-opacity="0.2"/>
<circle cx="173.325" cy="297.325" r="125.5" transform="rotate(-57.4285 173.325 297.325)" fill="#80C3D0" fill-opacity="0.25"/>
<circle cx="1317" cy="772" r="294.166" transform="rotate(121.563 1317 772)" stroke="#D38DD6" stroke-opacity="0.6" stroke-width="2"/>
<circle cx="1243.22" cy="191.217" r="50.0484" transform="rotate(121.563 1243.22 191.217)" stroke="#D38DD6" stroke-opacity="0.5" stroke-width="2"/>
<circle cx="1242.62" cy="190.62" r="127.404" transform="rotate(121.563 1242.62 190.62)" stroke="#D38DD6" stroke-opacity="0.5" stroke-width="2"/>
<circle cx="330.727" cy="486.727" r="257.616" transform="rotate(121.563 330.727 486.727)" stroke="#7DC6D1" stroke-opacity="0.6" stroke-width="2"/>
<circle cx="1316.8" cy="295.801" r="14.3955" transform="rotate(121.563 1316.8 295.801)" fill="url(#paint1_linear_287_2488)" fill-opacity="0.5"/>
<circle cx="1241.86" cy="190.862" r="34.0688" transform="rotate(121.563 1241.86 190.862)" fill="url(#paint2_linear_287_2488)" fill-opacity="0.5"/>
<circle cx="1241.86" cy="190.862" r="33.5688" transform="rotate(121.563 1241.86 190.862)" stroke="#D38DD6" stroke-opacity="0.5"/>
<circle cx="329.066" cy="487.066" r="218.5" transform="rotate(39.1557 329.066 487.066)" fill="#AEFCFE" fill-opacity="0.3"/>
<circle cx="136.614" cy="675.614" r="32.4344" transform="rotate(121.563 136.614 675.614)" fill="url(#paint3_linear_287_2488)" fill-opacity="0.4"/>
<path d="M1350 3064.5C1350 3108.41 1314.41 3144 1270.5 3144C1226.59 3144 1191 3108.41 1191 3064.5C1191 3020.59 1226.59 2985 1270.5 2985C1314.41 2985 1350 3020.59 1350 3064.5ZM1087.5 3359.5C1087.5 3403.41 1051.91 3439 1008 3439C964.093 3439 928.5 3403.41 928.5 3359.5C928.5 3315.59 964.093 3280 1008 3280C1051.91 3280 1087.5 3315.59 1087.5 3359.5Z" stroke="#FFEBEB" stroke-width="8"/>
<path d="M681.956 927.022C681.956 998.28 624.209 1056.04 552.978 1056.04C481.747 1056.04 424 998.28 424 927.022C424 855.764 481.747 798 552.978 798C624.209 798 681.956 855.764 681.956 927.022Z" stroke="#FFEBEB" stroke-width="8"/>
<circle cx="254.199" cy="2246.2" r="163.193" transform="rotate(121.563 254.199 2246.2)" stroke="#96D3B9" stroke-opacity="0.2" stroke-width="161"/>
<circle cx="916.199" cy="1532.2" r="163.193" transform="rotate(121.563 916.199 1532.2)" stroke="#D7AEE2" stroke-opacity="0.2" stroke-width="161"/>
<path d="M894.146 1567.18C875.435 1555.68 869.622 1530.4 881.817 1510.55C894.011 1490.7 919.188 1484.46 937.899 1495.95C956.611 1507.45 962.423 1532.73 950.229 1552.58C938.034 1572.43 912.858 1578.67 894.146 1567.18Z" stroke="#F7EFF9" stroke-width="13"/>
<path d="M-866.541 5287.76C-1392.2 4964.84 -1571.19 4306.02 -1270.95 3817.26C-970.701 3328.5 -302.122 3190.34 223.541 3513.26C749.204 3836.18 928.194 4495 627.947 4983.76C327.701 5472.52 -340.878 5610.67 -866.541 5287.76Z" stroke="#DFF0F3" stroke-width="48"/>
<path d="M-603.954 4905.58C-926.891 4707.19 -1030.63 4307.53 -851.84 4016.48C-673.049 3725.44 -269.655 3637.31 53.2823 3835.69C376.219 4034.07 479.959 4433.74 301.168 4724.78C122.377 5015.83 -281.017 5103.96 -603.954 4905.58Z" stroke="#E7FEFF" stroke-width="168"/>
</g>
<defs>
<linearGradient id="paint0_linear_287_2488" x1="1182.16" y1="425.536" x2="1182.16" y2="630.786" gradientUnits="userSpaceOnUse">
<stop stop-color="#62AEA2"/>
<stop offset="1" stop-color="#A3D8B7"/>
</linearGradient>
<linearGradient id="paint1_linear_287_2488" x1="1316.8" y1="281.405" x2="1316.8" y2="310.197" gradientUnits="userSpaceOnUse">
<stop stop-color="#71BAC7" stop-opacity="0.8"/>
<stop offset="1" stop-color="#AEFCFE" stop-opacity="0.8"/>
</linearGradient>
<linearGradient id="paint2_linear_287_2488" x1="1241.86" y1="156.793" x2="1241.86" y2="224.93" gradientUnits="userSpaceOnUse">
<stop stop-color="#DAB4E9"/>
<stop offset="1" stop-color="#D492D6"/>
</linearGradient>
<linearGradient id="paint3_linear_287_2488" x1="136.614" y1="643.179" x2="136.614" y2="708.048" gradientUnits="userSpaceOnUse">
<stop stop-color="#62AEA2"/>
<stop offset="1" stop-color="#A3D8B7"/>
</linearGradient>
<clipPath id="clip0_287_2488">
<rect width="1440" height="4227" fill="white"/>
</clipPath>
</defs>
</svg>
