<svg width="161" height="50" viewBox="0 0 161 50" fill="none" xmlns="http://www.w3.org/2000/svg">
<path d="M4.79911 49.5197C3.98293 49.5197 3.13411 49.4547 2.25264 49.3247C1.33853 49.2273 0.587646 49.0973 0 48.9348V43.2323C0.587646 43.3622 1.14264 43.4597 1.665 43.5247C2.18735 43.6222 2.77499 43.6709 3.42793 43.6709C4.40734 43.6709 5.23984 43.3947 5.92543 42.8423C6.61101 42.2899 6.95381 41.2177 6.95381 39.6255V11.2101H14.2504V40.6978C14.2504 42.3224 13.9403 43.8009 13.32 45.1331C12.6997 46.4653 11.6876 47.5214 10.2838 48.3012C8.91263 49.1135 7.0844 49.5197 4.79911 49.5197ZM6.65998 4.33781C6.65998 2.97309 7.03542 2.04703 7.78631 1.55964C8.56983 1.03974 9.51659 0.779795 10.6266 0.779795C11.7039 0.779795 12.6344 1.03974 13.4179 1.55964C14.2014 2.04703 14.5932 2.97309 14.5932 4.33781C14.5932 5.67003 14.2014 6.59609 13.4179 7.11598C12.6344 7.63588 11.7039 7.89582 10.6266 7.89582C9.51659 7.89582 8.56983 7.63588 7.78631 7.11598C7.03542 6.59609 6.65998 5.67003 6.65998 4.33781Z" fill="white"/>
<path d="M42.8736 24.4674C42.8736 26.677 42.5635 28.6428 41.9432 30.365C41.3556 32.0871 40.4904 33.5493 39.3478 34.7516C38.2378 35.9213 36.8829 36.8149 35.2832 37.4322C33.6835 38.0171 31.8716 38.3096 29.8475 38.3096C27.9866 38.3096 26.2563 38.0171 24.6566 37.4322C23.0896 36.8149 21.7347 35.9213 20.5921 34.7516C19.4494 33.5493 18.5516 32.0871 17.8987 30.365C17.2784 28.6428 16.9683 26.677 16.9683 24.4674C16.9683 21.5105 17.4906 19.0248 18.5353 17.0102C19.58 14.9631 21.0818 13.4035 23.0406 12.3312C24.9994 11.2589 27.3173 10.7228 29.9944 10.7228C32.5082 10.7228 34.7282 11.2589 36.6544 12.3312C38.5806 13.4035 40.0987 14.9631 41.2086 17.0102C42.3186 19.0248 42.8736 21.5105 42.8736 24.4674ZM24.4118 24.4674C24.4118 26.2221 24.5913 27.7005 24.9504 28.9028C25.3422 30.0725 25.9462 30.9661 26.7624 31.5835C27.5785 32.1683 28.6396 32.4608 29.9454 32.4608C31.2513 32.4608 32.296 32.1683 33.0795 31.5835C33.8957 30.9661 34.4834 30.0725 34.8425 28.9028C35.2342 27.7005 35.4301 26.2221 35.4301 24.4674C35.4301 22.7128 35.2342 21.2506 34.8425 20.0808C34.4834 18.9111 33.8957 18.0338 33.0795 17.4489C32.2634 16.864 31.2023 16.5716 29.8965 16.5716C27.9703 16.5716 26.5665 17.2377 25.685 18.5699C24.8362 19.8696 24.4118 21.8355 24.4118 24.4674Z" fill="white"/>
<path d="M116.991 9.94294C119.864 9.94294 122.166 10.7228 123.896 12.2825C125.627 13.8096 126.492 16.2791 126.492 19.6909V37.0423H119.195V21.4943C119.195 19.5772 118.852 18.1475 118.167 17.2052C117.481 16.2304 116.387 15.743 114.886 15.743C112.666 15.743 111.148 16.5066 110.331 18.0338C109.515 19.5285 109.107 21.6893 109.107 24.5162V37.0423H101.811V10.4303H107.393L108.373 13.8421H108.764C109.352 12.9323 110.07 12.2012 110.919 11.6488C111.768 11.064 112.715 10.6415 113.759 10.3816C114.804 10.0892 115.881 9.94294 116.991 9.94294Z" fill="white"/>
<path d="M136.64 10.4303V37.0423H129.343V10.4303H136.64ZM133.016 0C134.093 0 135.024 0.259947 135.807 0.77984C136.591 1.26724 136.983 2.1933 136.983 3.55801C136.983 4.89024 136.591 5.81629 135.807 6.33619C135.024 6.85608 134.093 7.11603 133.016 7.11603C131.906 7.11603 130.959 6.85608 130.176 6.33619C129.425 5.81629 129.049 4.89024 129.049 3.55801C129.049 2.1933 129.425 1.26724 130.176 0.77984C130.959 0.259947 131.906 0 133.016 0Z" fill="white"/>
<path d="M152.038 37.0423C149.394 37.0423 147.141 36.5712 145.28 35.6289C143.42 34.6541 141.999 33.1594 141.02 31.1448C140.041 29.1302 139.551 26.547 139.551 23.3952C139.551 20.1458 140.106 17.4976 141.216 15.4505C142.326 13.4035 143.86 11.8925 145.819 10.9177C147.811 9.94294 150.096 9.45554 152.675 9.45554C154.503 9.45554 156.087 9.63426 157.425 9.99168C158.796 10.3491 159.988 10.7715 161 11.2589L158.845 16.864C157.703 16.4091 156.625 16.0354 155.613 15.743C154.634 15.4506 153.654 15.3043 152.675 15.3043C151.402 15.3043 150.341 15.613 149.492 16.2304C148.643 16.8153 148.007 17.7088 147.582 18.9111C147.19 20.0808 146.994 21.5593 146.994 23.3464C146.994 25.1011 147.207 26.5632 147.631 27.733C148.088 28.8703 148.741 29.7313 149.59 30.3162C150.439 30.8686 151.467 31.1448 152.675 31.1448C154.209 31.1448 155.564 30.9498 156.74 30.5599C157.915 30.1375 159.058 29.5689 160.168 28.854V35.044C159.058 35.7589 157.882 36.2625 156.642 36.5549C155.434 36.8799 153.899 37.0423 152.038 37.0423Z" fill="white"/>
<path d="M45.324 37.8837V0.865845H52.3372L52.1543 14.7704H52.5202C56.7281 9.8916 59.8888 9.51245 64.4732 11.4772C68.3153 13.1238 70.592 16.0511 71.1206 18.0636L70.1448 18.4905C68.6202 20.442 67.2175 22.0073 66.6077 22.5155C65.6319 18.7344 59.8384 15.3193 56.6062 15.9901C53.374 16.6609 51.2395 23.4302 52.7641 27.5772C54.2887 31.7242 58.5528 33.5504 61.7289 31.7242C64.1683 30.3215 66.506 24.9955 68.6202 21.6617C68.4169 22.7594 68.0713 25.089 68.3153 25.6257C68.6202 26.2965 69.1691 26.1746 70.3278 25.6867C71.2547 25.2964 71.7304 22.8814 71.8524 21.7227C72.4826 21.6414 74.1942 21.4299 75.9994 21.2348C77.8045 21.0396 79.3129 20.9908 79.8414 20.9908C80.4512 20.9705 81.549 21.125 81.0611 21.9056C80.5732 22.6862 79.4755 23.0033 78.9876 23.0643L75.0846 23.7962L78.0119 23.7352C78.9266 23.5725 80.7318 23.4058 80.6342 24.0401C80.5122 24.8329 80.2683 24.7719 79.5975 25.2598C79.0608 25.6501 76.1213 25.9916 74.7187 26.1136C75.6334 26.1746 77.6703 26.2599 78.4997 26.1136C79.3291 25.9672 79.6178 26.1339 79.6584 26.2355C79.7398 26.3575 79.6584 26.76 78.6827 27.3943C77.7367 28.0091 75.6443 27.9094 74.6284 27.7731C74.7385 27.8094 74.9352 27.8795 75.2675 28.0041C76.0481 28.2968 77.3817 28.2074 77.9509 28.1261C78.1745 28.0854 78.6217 28.1505 78.6217 28.7359C78.6217 29.3214 77.6459 29.7523 77.1581 29.8946C77.1784 29.793 77.0849 29.4921 76.5482 29.1018C75.8774 28.614 75.6334 28.9799 75.3285 29.2848C75.0846 29.5287 74.9423 29.4677 74.9016 29.4068C74.6983 29.0205 74.1698 28.248 73.6819 28.248C73.0721 28.248 72.3403 29.2848 72.3403 29.2238C72.3403 29.175 72.0963 28.9595 71.9744 28.8579C70.8766 28.309 70.2058 29.5287 70.0228 29.6507C69.8765 29.7483 70.0025 30.0573 70.0838 30.1996L69.9619 30.2605C69.4021 30.074 68.5592 30.6874 68.0103 31.9071C67.3243 33.4318 66.8106 34.8201 66.6077 35.0783C64.9814 37.3551 61.6557 38.3837 58.4357 38.4325C54.4107 38.4935 53.0081 35.5052 52.7641 34.6515C52.569 33.9684 52.3169 34.3669 52.2153 34.6515L50.8126 37.8837H45.324Z" fill="white"/>
<path d="M72.7061 19.0392C73.9258 19.2344 74.9219 18.7953 75.2675 18.5513C79.5974 5.68353 99.8862 5.53627 100.21 23.4911C100.515 40.384 88.5012 38.1275 85.33 38.1275C82.1587 38.1275 76.1948 34.4299 76.9141 33.1877C77.5849 32.029 77.9508 31.0532 78.9875 29.8335C79.8169 28.8577 79.6787 28.4106 79.8413 27.882C80.5122 30.3824 84.8779 33.1877 86.7326 33.1877H86.7327C88.6232 33.1877 90.4528 33.1877 92.8311 30.8093C95.2095 28.4309 95.8804 18.6123 91.9164 16.5389C87.9523 14.4654 86.2447 15.3192 84.0493 16.5389C82.3838 17.4641 82.1181 20.0963 81.6709 21.4786C81.3782 20.8444 81.0204 20.6858 80.8781 20.6858C80.7561 20.3199 74.4137 21.0517 73.011 21.0517C71.6084 21.0517 71.3035 21.3566 70.9375 22.4544C70.6448 23.3325 70.3277 24.3246 70.2057 24.7108C70.1651 24.9954 69.8764 25.5036 69.047 25.2597C68.2176 25.0157 69.23 21.4583 69.8398 19.71C70.287 19.4051 71.4864 18.844 72.7061 19.0392Z" fill="white"/>
<path d="M69.7878 31.6008C69.564 31.5371 69.1618 31.6857 68.9887 31.7679C69.0095 31.8414 69.1629 32.2077 69.544 32.47C69.8489 32.6797 70.3148 32.5255 70.5096 32.4222C70.4732 32.3327 70.3874 32.1193 70.3354 31.9824C70.2705 31.8113 70.0675 31.6805 69.7878 31.6008Z" fill="white"/>
<path d="M72.3527 30.6148C72.1646 29.8794 71.567 30.0663 71.2572 30.086C71.2325 30.0866 71.1299 30.1155 70.8544 30.3225C70.3864 30.6742 70.8471 31.8519 70.9966 32.2923C71.1161 32.6447 71.4427 32.7257 71.591 32.7221C71.765 32.7015 72.1626 32.6073 72.3616 32.3954C72.6103 32.1305 72.5877 31.5342 72.3527 30.6148Z" fill="white"/>
<path d="M74.5255 30.0128C74.2696 29.6242 73.8386 29.6181 73.6551 29.6636C73.4304 29.7101 72.9606 29.9071 72.8792 30.3234C72.7775 30.8439 72.8581 30.9529 72.8539 31.4957C72.8497 32.0384 73.1268 32.1675 73.2686 32.2874C73.4104 32.4073 73.603 32.5014 74.1808 32.3149C74.6431 32.1658 74.8067 31.5353 74.8307 31.2388C74.8356 30.992 74.7814 30.4013 74.5255 30.0128Z" fill="white"/>
<path d="M76.9362 31.3488C76.9675 31.2247 76.9065 30.7452 76.675 30.4548C76.4962 30.2303 76.0058 30.2327 75.7595 30.2641C75.5495 30.279 75.3172 30.5674 75.2761 30.7336C75.2347 30.9012 75.0524 31.6233 75.1935 31.8468C75.2537 32.0303 75.5042 32.3647 76.0248 32.2339C76.6755 32.0703 76.9079 31.4607 76.9362 31.3488Z" fill="white"/>
<path d="M75.7343 30.2676C75.7424 30.2664 75.7508 30.2652 75.7595 30.2641M75.7595 30.2641C76.0058 30.2327 76.4962 30.2303 76.675 30.4548C76.9065 30.7452 76.9675 31.2247 76.9362 31.3488C76.9079 31.4607 76.6755 32.0703 76.0248 32.2339C75.5042 32.3647 75.2537 32.0303 75.1935 31.8468C75.0524 31.6233 75.2347 30.9012 75.2761 30.7336C75.3172 30.5674 75.5495 30.279 75.7595 30.2641ZM68.9887 31.7679C69.1618 31.6857 69.564 31.5371 69.7878 31.6008C70.0675 31.6805 70.2705 31.8113 70.3354 31.9824C70.3874 32.1193 70.4732 32.3327 70.5096 32.4222C70.3148 32.5255 69.8489 32.6797 69.544 32.47C69.1629 32.2077 69.0095 31.8414 68.9887 31.7679ZM71.2572 30.086C71.567 30.0663 72.1646 29.8794 72.3527 30.6148C72.5877 31.5342 72.6103 32.1305 72.3616 32.3954C72.1626 32.6073 71.765 32.7015 71.591 32.7221C71.4427 32.7257 71.1161 32.6447 70.9966 32.2923C70.8471 31.8519 70.3864 30.6742 70.8544 30.3225C71.1299 30.1155 71.2325 30.0866 71.2572 30.086ZM73.6551 29.6636C73.8386 29.6181 74.2696 29.6242 74.5255 30.0128C74.7814 30.4013 74.8356 30.992 74.8307 31.2388C74.8067 31.5353 74.6431 32.1658 74.1808 32.3149C73.603 32.5014 73.4104 32.4073 73.2686 32.2874C73.1269 32.1675 72.8497 32.0384 72.8539 31.4957C72.8581 30.9529 72.7775 30.8439 72.8792 30.3234C72.9606 29.9071 73.4304 29.7101 73.6551 29.6636Z" stroke="white"/>
</svg>
