<?xml version="1.0" encoding="utf-8"?>
<!-- Generator: Adobe Illustrator 27.5.0, SVG Export Plug-In . SVG Version: 6.00 Build 0)  -->
<svg version="1.1" xmlns="http://www.w3.org/2000/svg" xmlns:xlink="http://www.w3.org/1999/xlink" x="0px" y="0px"
	 viewBox="0 0 750 500" style="enable-background:new 0 0 750 500;" xml:space="preserve">
<g id="BACKGROUND">
	<rect style="fill:#292954;" width="750" height="500"/>
</g>
<g id="OBJECTS">
	<g style="opacity:0.5;">
		<rect x="0.001" y="36.346" style="opacity:0.1;fill:#FFFFFF;" width="749.996" height="10.927"/>
		<rect x="0.001" y="56.346" style="opacity:0.1;fill:#FFFFFF;" width="749.996" height="10.927"/>
		<rect x="0.001" y="76.346" style="opacity:0.1;fill:#FFFFFF;" width="749.996" height="10.927"/>
		<rect x="0.001" y="96.346" style="opacity:0.1;fill:#FFFFFF;" width="749.996" height="10.927"/>
		<rect x="0.001" y="116.346" style="opacity:0.1;fill:#FFFFFF;" width="749.996" height="10.927"/>
		<rect x="0.001" y="136.346" style="opacity:0.1;fill:#FFFFFF;" width="749.996" height="10.927"/>
		<rect x="0.001" y="156.346" style="opacity:0.1;fill:#FFFFFF;" width="749.996" height="10.927"/>
	</g>
	<g>
		<g>
			<path style="fill:#B83D5D;" d="M437.767,312.931c12.416,4.238,26.957,7.46,41.958,9.084c28.402,3.14,58.474,0.623,78.924-11.264
				c1.191-10.752-1.241-23.109-1.241-23.109c4.555,4.107,7.059,11.61,8.44,18.195c9.033-7.222,15.246-16.978,17.209-29.737
				c6.763-44.062-47.961-32.932-53.778-98.882c0,0-70.566,24.862-107.333,49.241c-7.526,4.992-13.643,9.977-17.431,14.702
				C382.159,269.06,387.052,295.636,437.767,312.931z"/>
			<path style="fill:#B83D5D;" d="M410.483,196.527c-51.269,15.154-6.487-97.642,71.055-70.37
				c95.64,33.637,27.406,154.187-6.147,160.897c-33.553,6.71-22.034-15.875-22.034-15.875L410.483,196.527z"/>
			<path style="opacity:0.5;fill:#9A304F;" d="M437.767,312.931c12.416,4.238,26.957,7.46,41.958,9.084
				c20.071-1.071,39.666-2.969,51.135-6.165c30.539-8.591,21.879-67.893-39.438-107.732l-69.477,18.342
				c-7.526,4.992-13.643,9.977-17.431,14.702C382.159,269.06,387.052,295.636,437.767,312.931z"/>
			<polygon style="fill:#E3B5AA;" points="424.462,293.3 438.141,301.033 475.578,298.916 484.274,236.176 430.665,247.398 
				429.254,257.891 			"/>
			<path style="fill:#C87E84;" d="M425.157,288.163c33.447,3.371,40.465-33.286,40.465-33.286l-37.626,12.304L425.157,288.163z"/>
			<path style="fill:#E3B5AA;" d="M474.36,245.24c-6.84,15.133-29.614,32.752-48.701,29.71
				c-16.129-2.58-29.877-16.144-27.295-48.523c0.005-0.152,0.032-0.32,0.039-0.473c0.467-10.167,2.211-21.273,3.751-34.556
				c0.44-3.791,5.974-4.542,5.5-6.267c1.663-4.946,3.565-10.131,5.729-15.572l68.453,17.178
				C481.838,186.737,484.608,222.566,474.36,245.24z"/>
			<path style="fill:none;stroke:#C87E84;stroke-width:0.5;stroke-miterlimit:10;" d="M399.472,213.021
				c7.922-6.2,5.939-14.441,5.939-14.441"/>
			
				<linearGradient id="SVGID_1_" gradientUnits="userSpaceOnUse" x1="-5805.3066" y1="21.0956" x2="-5795.167" y2="21.0956" gradientTransform="matrix(0.9988 -0.0492 0.0492 0.9988 6205.4858 -51.8459)">
				<stop  offset="0" style="stop-color:#D78F97"/>
				<stop  offset="1" style="stop-color:#D19097;stop-opacity:0"/>
			</linearGradient>
			<path style="fill:url(#SVGID_1_);" d="M418.311,254.347c0.059,1.207-2.159,2.298-4.956,2.436
				c-2.796,0.138-5.112-0.73-5.171-1.937c-0.059-1.208,2.159-2.298,4.956-2.436C415.936,252.272,418.251,253.139,418.311,254.347z"
				/>
			<path style="fill:#B83D5D;" d="M466.323,184.389c-16.763,45.569,9.617,53.264,9.617,53.264l15.486-29.539l13.758-29.421
				l-33.508-0.86L466.323,184.389z"/>
			<path style="fill:#B83D5D;" d="M461.492,176.333c-8.154,18.318-12.212,34.702-6.444,40.434
				c5.769,5.733,12.877-22.324,13.855-32.374C469.882,174.343,461.492,176.333,461.492,176.333z"/>
			<g>
				<path style="fill:#E3B5AA;" d="M474.243,217.532c7.514-12.785,17.854-13.859,22.934,0.544
					c5.08,14.403-8.591,27.171-20.453,23.327C464.862,237.56,474.243,217.532,474.243,217.532z"/>
				<path style="fill:#D78F97;" d="M483.628,217.547c5.365-1.446,9.496,14.552-2.405,16.074l1.99-5.865l-2.695-4.521
					L483.628,217.547z"/>
				<path style="fill:none;stroke:#C87E84;stroke-width:0.5;stroke-miterlimit:10;" d="M479.299,235.675
					c6.596-7.795,1.294-12.725,1.294-12.725s5.942-13.962,9.14-3.659"/>
			</g>
			<path style="fill:#B83D5D;" d="M433.794,189.486c14.617,8.757,25.306,9.044,13.265,0.429
				C435.017,181.3,426.219,184.948,433.794,189.486"/>
			<path style="fill:#233F4E;" d="M424.907,217.126L424.907,217.126c-2.306-0.182-4.044-2.218-3.861-4.524l0.323-4.075
				c0.183-2.306,2.218-4.043,4.524-3.861l0,0c2.306,0.182,4.044,2.218,3.861,4.525l-0.322,4.075
				C429.249,215.57,427.213,217.308,424.907,217.126z"/>
			<path style="fill:#B83D5D;" d="M401.367,197.926c13.258,0.865,37.759-22.192,37.759-22.192s2.775,20.781,27.197,8.655
				c32.565-16.168-5.933-22.89-5.933-22.89l-47.825-8.322L393.31,176.64L401.367,197.926z"/>
			<path style="fill:#C87E84;" d="M398.012,231.703c-0.106-0.01-0.168-0.022-0.168-0.022c-5.351-0.952-10.714-2.755-10.072-6.085
				c7.885-2.531,14.311,0.815,16.335,3.938C405.965,232.39,399.203,231.811,398.012,231.703z"/>
			<path style="fill:none;stroke:#233F4E;stroke-width:0.75;stroke-miterlimit:10;" d="M404.908,245.702
				c0,0,6.378,6.842,16.188-0.797"/>
			<path style="fill:#B83D5D;" d="M495.976,149.07c16.973-20.922,37.921-38.19,43.697-29.478c5.776,8.712-33.184,28.96-33.184,28.96
				s30.985-18.538,34.36-5.092c3.375,13.446-36.749,13.226-36.749,13.226L495.976,149.07z"/>
			
				<ellipse transform="matrix(0.0514 -0.9987 0.9987 0.0514 192.0431 624.9761)" style="fill:none;stroke:#FFFFFF;stroke-width:2;stroke-miterlimit:10;" cx="425.019" cy="211.394" rx="18.823" ry="12.449"/>
			<path style="fill:#E3B5AA;" d="M387.772,225.595c0.258-5.824,18.694-17.394,18.694-17.394l-2.359,21.331L387.772,225.595z"/>
		</g>
		<g>
			<g>
				<path style="fill:#FFFFFF;" d="M280.491,498.204H172.163c-4.007,0-7.256-3.249-7.256-7.256v-22.546
					c0-4.007,3.249-7.256,7.256-7.256h108.328V498.204z"/>
			</g>
			<rect x="166.703" y="472.703" style="opacity:0.4;fill:#A3D5E6;" width="113.788" height="2.043"/>
			<rect x="166.703" y="478.687" style="opacity:0.4;fill:#A3D5E6;" width="113.788" height="2.043"/>
			<rect x="166.703" y="490.657" style="opacity:0.4;fill:#A3D5E6;" width="113.788" height="2.043"/>
			<rect x="166.703" y="466.718" style="opacity:0.4;fill:#A3D5E6;" width="113.788" height="2.043"/>
			<rect x="166.703" y="484.672" style="opacity:0.4;fill:#A3D5E6;" width="113.788" height="2.043"/>
			<g>
				<path style="fill:#006890;" d="M280.491,500H173.593c-5.779,0-10.48-4.702-10.48-10.481v-19.687
					c0-5.779,4.701-10.48,10.48-10.48h106.899v3.591H173.593c-3.799,0-6.89,3.091-6.89,6.89v19.687c0,3.799,3.091,6.89,6.89,6.89
					h106.899V500z"/>
			</g>
			<g>
				<path style="fill:none;stroke:#C33E5D;stroke-width:3;stroke-miterlimit:10;" d="M280.491,498.204"/>
			</g>
			<g>
				<path style="fill:none;stroke:#C33E5D;stroke-width:3;stroke-miterlimit:10;" d="M280.491,461.146"/>
			</g>
			<polygon style="fill:#C33E5D;" points="272.304,492.474 265.103,485.292 257.903,492.474 257.903,472.703 272.304,472.703 			"/>
		</g>
		<path style="fill:#E3B5AA;" d="M416.545,291.825c28.586-5.329,66.078,4.371,66.078,4.371v51.524L385,346.004L416.545,291.825z"/>
		<path style="fill:#FFFFFF;" d="M611.723,399.041l-50.333,34.574l-31.504-26.694c-1.316,27.572-23.332,92.772-23.332,92.772
			h-166.16c16.651-79.747,17.061-95.813,17.061-95.813l-18.128,18.486l-44.003-52.329c0,0,40.699-47.585,70.01-61.151
			c13.025-6.023,24.575-10.072,33.404-12.689c11.037-3.289,17.806-4.371,17.806-4.371s-3.508,28.887,21.87,33.258
			c25.393,4.371,44.208-28.887,44.208-28.887s7.397,1.798,17.411,4.62c17.938,5.073,44.267,13.464,51.299,20.759
			C562.267,332.962,611.723,399.041,611.723,399.041z"/>
		<path style="fill:#E3B5AA;" d="M479.231,463.028l-0.073,2.719l-1.009,33.945c0,0-18.113,0.117-33.653-1.316
			c-9.604-0.877-18.23-2.354-20.978-4.81c-7.192-6.432-0.263-11.973-0.263-11.973c-9.853-8.172,0.643-14.429,0.643-14.429
			s-4.839-10.628,3.421-14.093c4.313-1.798,11.491-1.798,20.905,0.058c1.491,0.292,3.026,0.643,4.634,1.023
			c0.029,0.015,0.044,0.015,0.059,0.015c5.219,1.272,11.008,3.055,17.265,5.336C473.091,460.572,476.118,461.742,479.231,463.028z"
			/>
		<path style="opacity:0.4;fill:#C87E84;" d="M479.231,463.028l-0.073,2.719l-3.436,12.031c0,0-7.88-18.654-22.806-23.61
			c5.219,1.272,11.008,3.055,17.265,5.336C473.091,460.572,476.118,461.742,479.231,463.028z"/>
		<path style="opacity:0.4;fill:#6CABBD;" d="M529.886,406.92c-1.316,27.572-23.332,92.772-23.332,92.772h-36.372
			c19.94-21.095,49.866-100.652,49.866-100.652L529.886,406.92z"/>
		<path style="fill:#006890;" d="M486.229,454.432c-19.3-5.113-19.984,45.26-19.984,45.26h25.969L486.229,454.432z"/>
		<path style="fill:#C33E5D;" d="M366.602,451.921c18.006-0.834,23.2,21.713,20.279,47.772h-17.965L366.602,451.921z"/>
		<path style="fill:#FFFFFF;" d="M500.049,300.83c-47.395,69.514-98.386,29.472-101.31-4.634
			c11.037-3.289,17.806-4.371,17.806-4.371s-3.508,28.887,21.87,33.258c25.393,4.371,44.208-28.887,44.208-28.887
			s7.397,1.798,17.411,4.62L500.049,300.83z"/>
		<path style="fill:#FFFFFF;" d="M616.095,499.693H483.412c0,0-4.737-35.699,6.432-52.833c11.184-17.133,67.701,0,67.701,0
			s-13.041-9.313,3.845-13.245l50.333-34.574c2.515,3.275,4.78,6.476,6.813,9.619c11.432,17.601,15.657,32.951,15.993,45.772v0.059
			C635.304,483.597,616.095,499.693,616.095,499.693z"/>
		<path style="fill:none;stroke:#6CABBD;stroke-miterlimit:10;" d="M520.041,370.949c0,0,7.496-40.271,24.16-54.292"/>
		<path style="fill:none;stroke:#6CABBD;stroke-miterlimit:10;" d="M356.06,347.72c0,0,4.414,33.58,1.395,56.159l-14.244-28.08"/>
		<polyline style="fill:none;stroke:#6CABBD;stroke-miterlimit:10;" points="570.987,456.982 557.546,446.86 586.354,446.86 		"/>
		<path style="fill:#FFFFFF;" d="M368.916,499.693c-56.466,0-64.514-1.681-83.343-8.991c-16.168-6.257-25.934-16.68-29.764-33.726
			c-2.354-10.511-0.176-22.075,4.166-33.258c6.418-16.534,17.528-32.22,25.598-42.307v-0.015c5.629-7.046,9.751-11.359,9.751-11.359
			l44.003,52.336c8.055,9.575-9.97,13.479-9.97,13.479C386.313,427.855,368.916,499.693,368.916,499.693z"/>
		<polyline style="fill:none;stroke:#6CABBD;stroke-miterlimit:10;" points="304.91,440.192 329.352,435.845 309.67,429.483 		"/>
		<path style="opacity:0.4;fill:#A3D5E6;" d="M339.327,422.373l-53.754-40.963v-0.015c5.629-7.046,9.751-11.359,9.751-11.359
			L339.327,422.373z"/>
		<path style="opacity:0.4;fill:#A3D5E6;" d="M285.573,490.702c-16.168-6.257-25.934-16.68-29.764-33.726
			c-2.354-10.511-0.176-22.075,4.166-33.258c12.09,1.213,1.36,20.145,16.052,34.282
			C290.704,472.107,290.324,481.872,285.573,490.702z"/>
		<path style="opacity:0.4;fill:#A3D5E6;" d="M616.095,499.693h-21.344c21.066-15.511,18.055-44.924,39.778-45.26v0.059
			C635.304,483.597,616.095,499.693,616.095,499.693z"/>
		<path style="fill:#54B3CD;" d="M470.584,489.766c6.379,0,7.043,9.616,0.689,10.191c-0.306,0.028-0.617,0.042-0.93,0.042H227.082
			c-5.643,0-10.219-4.59-10.219-10.233l-0.029-0.102L178.94,382.631c-2.895-8.178,3.171-16.761,11.846-16.761h157.947
			c5.324,0,10.07,3.354,11.846,8.373l40.863,115.422l0.029,0.102H470.584z"/>
		<line style="fill:none;stroke:#FFFFFF;stroke-miterlimit:10;" x1="401.443" y1="489.664" x2="216.834" y2="489.664"/>
		<path style="fill:none;stroke:#C87E84;stroke-width:0.5;stroke-miterlimit:10;" d="M431.734,466.968c0,0-1.924-0.779-7.832,0.204"
			/>
		<path style="fill:none;stroke:#C87E84;stroke-width:0.5;stroke-miterlimit:10;" d="M429.698,481.595c0,0-2.7,0-6.439,0"/>
		<path style="fill:#FFFFFF;" d="M292.864,425.228c2.853,8.297-0.373,16.927-7.207,19.277c-6.833,2.35-14.686-2.471-17.539-10.767
			c-2.853-8.297,0.373-16.927,7.207-19.277C282.158,412.111,290.011,416.932,292.864,425.228z"/>
		<g>
			<path style="fill:#FFFFFF;" d="M411.937,209.949c-0.029-0.036-2.928-3.606-6.638-3.734c-1.759-0.069-3.494,0.684-5.138,2.224
				c-0.378,0.354-0.98,0.348-1.378,0.015l0,0c-0.471-0.395-0.473-1.096-0.022-1.513c2.048-1.896,4.269-2.82,6.628-2.724
				c4.712,0.171,8.085,4.348,8.225,4.525L411.937,209.949z"/>
		</g>
	</g>
	<line style="fill:#C87E84;" x1="392.03" y1="188.23" x2="405.328" y2="193.529"/>
	<g>
		<g>
			<g>
				<g>
					<path style="fill:#FFFFFF;" d="M703.241,497.897H594.913c-4.007,0-7.256-3.249-7.256-7.256v-22.546
						c0-4.007,3.248-7.256,7.256-7.256h108.328V497.897z"/>
				</g>
				<rect x="589.452" y="472.396" style="opacity:0.4;fill:#A3D5E6;" width="113.788" height="2.043"/>
				<rect x="589.452" y="478.38" style="opacity:0.4;fill:#A3D5E6;" width="113.788" height="2.043"/>
				<rect x="589.452" y="490.35" style="opacity:0.4;fill:#A3D5E6;" width="113.788" height="2.043"/>
				<rect x="589.452" y="466.411" style="opacity:0.4;fill:#A3D5E6;" width="113.788" height="2.043"/>
				<rect x="589.452" y="484.365" style="opacity:0.4;fill:#A3D5E6;" width="113.788" height="2.043"/>
				<g>
					<path style="fill:#094F68;" d="M703.241,499.693H596.342c-5.779,0-10.48-4.702-10.48-10.481v-19.687
						c0-5.779,4.701-10.48,10.48-10.48h106.899v3.591H596.342c-3.799,0-6.89,3.091-6.89,6.889v19.687c0,3.799,3.091,6.89,6.89,6.89
						h106.899V499.693z"/>
				</g>
				<g>
					<path style="fill:none;stroke:#C33E5D;stroke-width:3;stroke-miterlimit:10;" d="M703.241,497.897"/>
				</g>
				<g>
					<path style="fill:none;stroke:#C33E5D;stroke-width:3;stroke-miterlimit:10;" d="M703.241,460.839"/>
				</g>
				<polygon style="fill:#C33E5D;" points="695.053,492.167 687.853,484.985 680.652,492.167 680.652,472.396 695.053,472.396 				
					"/>
			</g>
			<g>
				<path style="fill:#C33E5D;" d="M671.675,413.001h-1.666v-5.219h-50.728v21.987c0,13.786,11.009,25.013,24.721,25.349
					c0.205,0.015,0.424,0.015,0.643,0.015c4.736,0,9.166-1.301,12.952-3.567c3.801-2.266,6.944-5.497,9.123-9.342h4.955
					c8.055,0,14.605-6.564,14.605-14.619C686.28,419.551,679.731,413.001,671.675,413.001z M671.675,435.939h-2.456
					c0.497-1.988,0.789-4.035,0.789-6.169v-10.482h1.666c4.591,0,8.319,3.728,8.319,8.318S676.266,435.939,671.675,435.939z"/>
				<path style="fill:#54B3CD;" d="M673.441,459.044h-55.558c-2.958,0-5.356-2.398-5.356-5.356v-2.474h66.27v2.474
					C678.798,456.646,676.4,459.044,673.441,459.044z"/>
				<path style="fill:#FFFFFF;" d="M661.184,407.783h-6.657l10.865-19.934c0.512-0.939,1.496-1.524,2.566-1.524l0,0
					c2.218,0,3.627,2.374,2.566,4.321L661.184,407.783z"/>
				<g>
					<rect x="634.374" y="407.783" style="fill:#FFFFFF;" width="1.462" height="16.525"/>
				</g>
				<g>
					<rect x="628.671" y="417.874" style="fill:#FFFFFF;" width="12.867" height="12.868"/>
				</g>
			</g>
		</g>
		<g>
			<path style="fill:#FFFFFF;" d="M674.464,96.429h-57.708c-3.673,0-6.651,2.978-6.651,6.651v57.708c0,3.673,2.977,6.65,6.651,6.65
				h57.708c3.673,0,6.651-2.977,6.651-6.65V103.08C681.114,99.407,678.136,96.429,674.464,96.429z"/>
			
				<text transform="matrix(1 0 0 1 622.4463 142.2407)" style="fill:#B83D5D; font-family:'Montserrat-Black'; font-size:26.7494px;">&lt;/&gt;</text>
		</g>
		<g>
			<path style="fill:#B83D5D;" d="M674.464,270.079h-57.708c-3.673,0-6.651,2.978-6.651,6.651v57.708c0,3.673,2.977,6.65,6.651,6.65
				h57.708c3.673,0,6.651-2.977,6.651-6.65V276.73C681.114,273.057,678.136,270.079,674.464,270.079z"/>
			
				<text transform="matrix(1 0 0 1 629.8818 313.3413)" style="fill:#FFFFFF; font-family:'Montserrat-Black'; font-size:26.7494px;">{ }</text>
		</g>
		<g>
			<g>
				<path style="fill:#54B3CD;" d="M674.464,183.254h-57.708c-3.673,0-6.651,2.978-6.651,6.651v57.708
					c0,3.673,2.977,6.65,6.651,6.65h57.708c3.673,0,6.651-2.977,6.651-6.65v-57.708
					C681.114,186.232,678.136,183.254,674.464,183.254z"/>
			</g>
			<path style="fill:#FFFFFF;" d="M657.125,218.919c0-0.055,0.007-0.104,0.007-0.16s-0.007-0.104-0.007-0.153
				c0.799-0.368,1.605-0.792,2.398-1.307c0.848-0.584,1.71-1.258,2.509-2.029l-0.174-0.681c-0.167-0.771-0.466-1.515-0.737-2.259
				c-0.153-0.361-0.334-0.716-0.507-1.07c-0.16-0.368-0.354-0.709-0.57-1.042l-0.361-0.598c-1.091,0.007-2.196,0.146-3.204,0.334
				c-0.91,0.188-1.793,0.459-2.613,0.771l-0.222-0.222c0.306-0.827,0.584-1.703,0.765-2.613c0.194-1.008,0.333-2.113,0.34-3.204
				l-0.598-0.361c-0.334-0.215-0.681-0.41-1.042-0.57c-0.355-0.174-0.709-0.355-1.078-0.508c-0.744-0.271-1.48-0.57-2.252-0.737
				l-0.681-0.174c-0.771,0.799-1.446,1.654-2.03,2.509c-0.514,0.786-0.938,1.592-1.306,2.398c-0.049,0-0.104-0.014-0.153-0.014
				c-0.056,0-0.104,0.014-0.16,0.014c-0.361-0.806-0.792-1.612-1.307-2.398c-0.576-0.855-1.258-1.71-2.022-2.509l-0.681,0.174
				c-0.779,0.167-1.515,0.466-2.259,0.737c-0.362,0.153-0.716,0.334-1.078,0.508c-0.361,0.16-0.702,0.354-1.042,0.57l-0.598,0.361
				c0.014,1.091,0.153,2.196,0.341,3.204c0.187,0.91,0.458,1.786,0.771,2.613c-0.076,0.076-0.153,0.146-0.222,0.222
				c-0.827-0.313-1.703-0.584-2.613-0.771c-1.008-0.188-2.12-0.327-3.204-0.334l-0.368,0.598c-0.208,0.333-0.403,0.674-0.57,1.042
				c-0.167,0.354-0.348,0.709-0.501,1.07c-0.278,0.744-0.57,1.487-0.736,2.259l-0.174,0.681c0.799,0.771,1.654,1.446,2.509,2.029
				c0.785,0.514,1.591,0.938,2.391,1.307c0,0.049-0.007,0.097-0.007,0.153s0.007,0.104,0.007,0.16
				c-0.799,0.361-1.605,0.792-2.391,1.307c-0.855,0.577-1.71,1.258-2.509,2.022l0.174,0.681c0.167,0.771,0.458,1.515,0.736,2.259
				c0.153,0.361,0.334,0.716,0.501,1.077c0.167,0.361,0.361,0.702,0.57,1.035l0.368,0.598c1.084-0.007,2.196-0.146,3.204-0.334
				c0.91-0.188,1.786-0.459,2.613-0.771c0.069,0.076,0.146,0.153,0.222,0.223c-0.313,0.827-0.584,1.703-0.771,2.613
				c-0.188,1.008-0.327,2.12-0.341,3.204l0.598,0.368c0.341,0.208,0.681,0.403,1.042,0.563c0.362,0.174,0.716,0.355,1.078,0.507
				c0.743,0.278,1.48,0.57,2.259,0.737l0.681,0.174c0.765-0.799,1.446-1.654,2.022-2.509c0.514-0.785,0.945-1.592,1.307-2.398
				c0.055,0.007,0.104,0.014,0.16,0.014c0.049,0,0.104-0.007,0.153-0.014c0.369,0.806,0.792,1.612,1.306,2.398
				c0.584,0.855,1.258,1.71,2.03,2.509l0.681-0.174c0.771-0.167,1.508-0.459,2.252-0.737c0.369-0.153,0.723-0.334,1.078-0.507
				c0.361-0.16,0.709-0.354,1.042-0.563l0.598-0.368c-0.007-1.084-0.146-2.196-0.34-3.204c-0.181-0.911-0.459-1.786-0.765-2.613
				c0.076-0.07,0.146-0.146,0.222-0.223c0.82,0.313,1.703,0.584,2.613,0.771c1.008,0.188,2.113,0.327,3.204,0.334l0.361-0.598
				c0.216-0.333,0.41-0.674,0.57-1.035c0.174-0.361,0.354-0.716,0.507-1.077c0.271-0.744,0.57-1.487,0.737-2.259l0.174-0.681
				c-0.799-0.764-1.661-1.446-2.509-2.022C658.731,219.711,657.924,219.28,657.125,218.919z M645.609,224.27
				c-3.044,0-5.511-2.467-5.511-5.511c0-3.044,2.467-5.511,5.511-5.511s5.511,2.467,5.511,5.511
				C651.12,221.803,648.653,224.27,645.609,224.27z"/>
		</g>
		<g>
			<path style="fill:#54B3CD;" d="M345.409,96.272H78.242c-7.981,0-14.451,6.47-14.451,14.451v155.73
				c0,7.981,6.47,14.451,14.451,14.451h267.167c7.981,0,14.451-6.47,14.451-14.451v-155.73
				C359.86,102.742,353.39,96.272,345.409,96.272z"/>
			<g>
				<line style="fill:none;stroke:#FFFFFF;stroke-miterlimit:10;" x1="111.11" y1="144.719" x2="111.11" y2="253.758"/>
				<g>
					<circle style="fill:#FFFFFF;" cx="96.7" cy="149.609" r="4.712"/>
					<rect x="120.535" y="144.897" style="fill:#006890;" width="54.004" height="9.425"/>
					<rect x="183.965" y="144.897" style="fill:#FFD348;" width="70.117" height="9.425"/>
					<rect x="263.252" y="144.897" style="fill:#FFFFFF;" width="53.553" height="9.425"/>
				</g>
				<g>
					<circle style="fill:#FFFFFF;" cx="96.7" cy="166.182" r="4.712"/>
					<rect x="120.535" y="161.47" style="fill:#006890;" width="120.219" height="9.425"/>
					<rect x="250.18" y="161.47" style="fill:#FFD348;" width="29.22" height="9.425"/>
					<rect x="288.571" y="161.47" style="fill:#FFFFFF;" width="28.234" height="9.425"/>
				</g>
				<g>
					<circle style="fill:#FFFFFF;" cx="96.7" cy="182.755" r="4.712"/>
					<rect x="120.535" y="178.042" style="fill:#006890;" width="63.43" height="9.425"/>
					<rect x="193.392" y="178.042" style="fill:#FFD348;" width="86.009" height="9.425"/>
					<rect x="288.571" y="178.042" style="fill:#FFFFFF;" width="28.234" height="9.425"/>
				</g>
				<g>
					<circle style="fill:#FFFFFF;" cx="96.7" cy="199.327" r="4.712"/>
					<rect x="120.535" y="194.615" style="fill:#006890;" width="15.065" height="9.425"/>
					<rect x="145.027" y="194.615" style="fill:#FFD348;" width="38.938" height="9.425"/>
					<rect x="193.136" y="194.615" style="fill:#FFFFFF;" width="123.669" height="9.425"/>
				</g>
				<g>
					<circle style="fill:#FFFFFF;" cx="96.7" cy="215.9" r="4.712"/>
					<rect x="120.535" y="211.188" style="fill:#006890;" width="54.004" height="9.425"/>
					<rect x="183.965" y="211.188" style="fill:#FFD348;" width="95.435" height="9.425"/>
					<rect x="288.571" y="211.188" style="fill:#FFFFFF;" width="28.234" height="9.425"/>
				</g>
				<g>
					<path style="fill:#FFFFFF;" d="M101.413,232.473c0,2.603-2.11,4.712-4.712,4.712s-4.712-2.11-4.712-4.712
						s2.11-4.713,4.712-4.713S101.413,229.87,101.413,232.473z"/>
					<rect x="120.535" y="227.76" style="fill:#006890;" width="90.432" height="9.425"/>
					<rect x="220.394" y="227.76" style="fill:#FFD348;" width="33.688" height="9.425"/>
					<rect x="263.252" y="227.76" style="fill:#FFFFFF;" width="53.553" height="9.425"/>
				</g>
				<g>
					<circle style="fill:#FFFFFF;" cx="96.7" cy="249.046" r="4.712"/>
					<rect x="120.535" y="244.333" style="fill:#006890;" width="30.131" height="9.425"/>
					<rect x="160.092" y="244.333" style="fill:#FFD348;" width="119.308" height="9.425"/>
					<rect x="288.571" y="244.333" style="fill:#FFFFFF;" width="28.234" height="9.425"/>
				</g>
				<line style="fill:none;stroke:#FFFFFF;stroke-miterlimit:10;" x1="326.449" y1="144.719" x2="326.449" y2="253.758"/>
			</g>
			<text transform="matrix(1 0 0 1 111.1099 128.2731)" style="fill:#FFFFFF; font-family:'Montserrat-Black'; font-size:12px;">APP DEVELOPMENT</text>
		</g>
		<g>
			<path style="fill:#4F4F8E;" d="M168.269,500H46.759c3.11-18.43,11.58-26.76,20.54-32.62c12.479-8.18,25.91-11.53,27.18-30.54
				c0.62-9.18-0.03-17.83-1.37-25.69c-4.65-27.21-17.83-45.28-17.83-45.28h64.5c0,0-13.21,18.1-17.86,45.28
				c-1.37,7.86-1.99,16.51-1.39,25.69c1.13,16.47,11.31,21.19,22.12,27.44c0.05,0.03,0.12,0.08,0.17,0.08
				c1.65,0.95,3.31,1.94,4.94,3.02C156.709,473.25,165.169,481.59,168.269,500z"/>
		</g>
		<g>
			<path style="fill:#1EAB82;" d="M408.962,109.958c2.333,9.611-3.566,19.293-13.177,21.626
				c-9.611,2.333-19.293-3.566-21.626-13.177c-2.333-9.611,3.566-19.293,13.177-21.626
				C396.946,94.448,406.629,100.348,408.962,109.958z"/>
			<g>
				<path style="fill:#FFFFFF;" d="M387.451,125.554l-7.064-11.499c-0.713-1.161-0.35-2.68,0.811-3.393l0,0
					c1.161-0.713,2.68-0.35,3.393,0.811l3.638,5.921l10.224-11.178c0.919-1.005,2.48-1.075,3.485-0.156l0,0
					c1.006,0.92,1.075,2.48,0.156,3.486L387.451,125.554z"/>
			</g>
		</g>
	</g>
</g>
</svg>
