<svg width="379" height="366" viewBox="0 0 379 366" fill="none" xmlns="http://www.w3.org/2000/svg">
<path d="M219.771 0.508647C219.477 -0.500283 218.331 0.124577 218.565 1.22505C219.166 4.04894 225.524 35.8352 228.125 34.1915C229.172 33.5467 228.565 30.5756 219.771 0.508647Z" fill="black"/>
<path d="M259.35 3.02894C259.299 2.86178 259.118 2.77621 258.958 2.8379C257.366 3.44485 244.364 32.0948 244.539 33.0858C244.786 34.3455 245.898 34.3554 246.403 33.655C247.536 32.0888 259.75 4.33828 259.35 3.02894Z" fill="black"/>
<path d="M284.408 35.4132C284.168 35.0868 283.937 35.0629 277.549 37.9723C260.932 45.5363 257.054 46.9034 259.533 48.3521C261.32 49.379 283.25 37.1265 284.329 35.9226C284.554 35.6719 284.458 35.4828 284.408 35.4132Z" fill="black"/>
<path d="M214.01 40.2538C213.624 39.7344 210.072 36.7574 207.963 34.8131C194.6 22.4692 192.494 19.313 191.714 19.7807C191.448 19.9399 191.549 20.2822 191.583 20.3956C191.905 21.4801 206.723 38.1285 213.266 41.7383C214.239 42.2776 214.653 41.1294 214.01 40.2538Z" fill="black"/>
<path d="M185.199 359.217C185.316 358.693 185.448 358.124 185.587 357.505C176.057 357.591 162.449 357.712 149.162 357.828C148.933 358.564 148.73 359.191 148.543 359.726C162.732 359.553 175.84 359.376 185.199 359.217Z" fill="black"/>
<path d="M197.929 279.601C198.034 282.423 198.138 285.629 198.235 289.28C198.791 289.284 199.404 289.294 200.084 289.312H200.104C200.007 285.953 199.893 282.695 199.76 279.595C199.187 279.595 198.576 279.599 197.929 279.601Z" fill="black"/>
<path d="M200.43 304.766C200.389 301.851 200.337 298.944 200.275 296.078C199.76 296.08 199.143 296.084 198.399 296.086C198.436 297.863 198.474 299.728 198.508 301.682C198.958 302.761 199.475 304.048 200.062 305.586C200.134 305.505 200.265 305.208 200.43 304.766Z" fill="black"/>
<path d="M196.196 256.288C196.212 256.322 196.216 256.449 196.222 256.59C196.313 258.672 196.992 259.838 197.649 273.084C198.242 273.074 198.839 273.064 199.438 273.054C198.998 265.315 198.411 259.072 197.641 255.51C197.529 255.012 197.187 254.774 196.763 254.736C195.513 254.539 194.021 254.366 192.323 254.212C186.134 254.648 178.23 255.022 169.404 255.349C177.762 255.5 185.334 255.796 195.871 256.25C196.136 256.26 196.196 256.288 196.196 256.288Z" fill="black"/>
<path d="M200.152 330.404C199.639 332.147 199.155 333.8 198.699 335.375C198.55 344.244 198.234 347.018 198.393 354.618C198.423 356.092 198.445 357.173 198.313 357.388C197.929 357.392 195.868 357.412 192.604 357.442C192.453 358.035 192.313 358.582 192.186 359.085C196.482 358.994 199.093 358.91 199.41 358.841C199.808 358.755 200.047 358.449 200.066 358.003C200.331 352.413 200.53 341.581 200.566 328.905C200.452 329.331 200.319 329.838 200.152 330.404Z" fill="black"/>
<path d="M140.733 357.899C122.914 358.051 107.484 358.172 105.908 358.152C103.963 354.855 103.529 292.906 103.539 287.394C103.581 262.334 103.108 258.779 102.938 256.949C102.439 256.957 101.941 256.967 101.448 256.975C101.522 267.581 101.259 345.221 104.105 358.23C100.968 358.293 61.9822 358.725 61.9822 358.725C61.9643 358.697 61.9365 358.59 61.9106 358.492C61.622 357.404 61.7494 356.857 61.6638 355.794C59.2261 325.385 58.2112 262.582 59.6758 259.922C63.8668 258.905 70.5333 258.057 77.3231 257.4C74.6446 257.454 72.3939 257.504 70.6646 257.554C70.1333 257.57 69.7154 257.516 69.2716 256.557C66.2587 257.01 63.031 257.572 59.6042 258.27C57.2699 258.744 57.9246 260.501 57.7614 262.592C57.656 263.959 57.4271 265.354 57.3754 266.712C57.1585 272.27 56.9376 306.195 57.3097 310.635C57.5903 313.952 58.6928 355.251 60.5395 360.013C60.7265 360.5 60.7803 360.64 62.5394 360.64C62.6509 360.64 103.324 360.256 140.303 359.82C140.428 359.215 140.573 358.58 140.733 357.899Z" fill="black"/>
<path d="M167.856 253.956C162.264 254.181 155.731 254.435 148.102 254.726C147.415 251.349 147.252 183.625 143.28 156.604C143.137 155.627 142.591 152.511 142.591 152.511C143.519 152.54 145.606 152.572 148.412 152.612C145.025 152.071 141.093 151.416 136.536 150.622C123.008 150.67 108.881 150.982 96.4631 151.701C67.1305 153.4 67.3613 153.317 67.017 156.841C65.4529 172.773 65.3414 198.407 65.9703 219.71L67.8548 219.407C67.1106 194.763 67.2499 165.263 68.8438 157.006C69.015 156.11 69.1105 155.617 71.0687 155.356C90.113 152.817 130.848 152.039 139.66 152.628C140.575 152.688 140.886 152.708 141.111 154.329C141.582 157.722 142.219 161.237 142.428 164.753C144.902 205.668 145.747 251.331 145.349 254.758C128.299 255.088 91.5497 255.239 71.007 255.868C69.8866 255.556 68.9334 245.16 68.2926 231.144L66.434 231.958C67.0071 244.069 67.825 253.265 68.7006 255.9C69.2418 257.53 69.7473 257.854 70.5811 257.854C71.0906 257.854 70.5931 257.793 95.4899 257.367C117.091 256.997 145.564 256.509 168.232 255.695C168.119 255.166 167.994 254.589 167.856 253.956Z" fill="black"/>
<path d="M199.676 227.757C199.997 237.524 200.152 246.175 200.138 252.079C199.82 252.368 196.942 252.66 185.223 253.209C185.169 253.818 185.12 254.403 185.072 254.959C191.336 254.62 196.556 254.238 200.246 253.804C201.798 253.623 201.927 252.786 201.953 248.155C201.981 243.23 201.917 236.991 201.744 230.012C200.998 229.234 200.311 228.482 199.676 227.757Z" fill="black"/>
<path d="M256.781 360.301C256.153 358.007 235.488 294.755 227.355 278.745C227.55 277.249 227.815 273.004 226.305 272.94C208.982 272.266 186.071 273.024 175.058 273.386C165.703 273.697 167.426 272.648 167.711 278.976C167.743 279.645 167.635 280.214 167.367 280.821C160.917 295.535 143.505 342.992 139.899 360.327C139.67 361.428 139.513 362.023 140.603 362.479C141.787 362.974 145.061 363.07 145.608 363.056C148.251 363.026 148.255 361.7 151.144 352.389C151.733 350.501 162.254 353.223 183.563 353.125C184.242 353.125 186.152 352.996 186.314 352.917C186.347 353.038 185.937 354.566 185.742 355.444C183.233 366.837 182.954 365.42 190.089 365.452C190.912 365.452 190.926 365.392 191.854 361.653C195.336 347.597 201.093 328.091 201.175 327.89C201.79 328.939 211.592 358.978 211.654 359.181C211.903 360.021 212.329 360.327 213.342 360.395C213.897 360.429 218.221 360.467 218.784 360.401C219.063 360.369 219.405 360.293 219.598 359.995C219.968 359.418 219.531 358.498 218.824 356.089C218.319 354.359 216.858 349.657 216.293 348.405C216.679 348.326 244.634 347.126 244.879 347.241C244.963 347.575 248.477 358.091 248.61 358.487C249.142 360.075 249.689 361.724 250.897 361.718C255.261 361.694 256.314 361.893 256.74 361.342C256.964 361.05 256.879 360.652 256.781 360.301ZM242.173 339.846C226.342 340.64 219.212 341.048 216.173 341.335C213.803 341.558 213.801 341.552 213.694 341.267L209.549 329.856C209.093 328.587 215.232 329.687 238.324 328.042C238.613 328.34 238.82 329.052 241.041 335.594C242.66 340.37 242.453 339.832 242.173 339.846ZM205.863 313.019C206.313 311.552 206.333 311.483 206.667 311.483C206.667 311.483 228.846 310.941 229.64 310.898C233.049 310.709 232.247 310.709 233.293 313.616C234.376 316.607 235.833 320.476 235.96 320.983C232.396 321.084 220.737 321.62 210.93 322.284C206.904 322.557 206.898 322.531 206.795 322.241C204.333 315.248 204.307 318.119 205.863 313.019ZM189.782 363.961C189.669 364.019 188.176 363.862 187.01 363.782C186.081 363.722 185.774 363.782 185.575 363.742C184.584 360.982 204.174 297.499 209.899 280.387C210.05 279.933 210.002 279.915 210.89 279.915C213.99 279.915 214.874 279.874 214.971 280.017C215.065 280.154 214.751 280.934 214.418 281.76C210.665 291.035 193.344 344.777 189.782 363.961ZM202.795 296.389C202.379 297.805 200.773 303.061 200.094 304.832C197.82 298.956 196.695 297.029 196.57 296.401C196.755 296.383 202.56 296.371 202.795 296.389ZM151.769 350.361C152.34 348.517 153.011 345.985 153.116 345.904C153.158 345.896 153.311 345.93 153.395 345.95C154.704 346.258 179.153 346.511 187.671 347.563C187.195 349.444 186.95 350.208 186.789 351.008C185.78 352.65 158.533 349.641 151.769 350.361ZM173.55 279.927C173.217 282.64 160.012 313.608 148.046 356.514C146.484 362.112 146.728 361.613 145.117 361.545C144.613 361.523 141.433 361.277 141.244 361.028C141.192 360.829 141.336 361.046 144.573 349.914C147.779 338.891 150.806 328.479 168.121 283.237C169.54 279.515 167.92 279.927 173.55 279.927ZM169.484 296.345C169.689 295.754 169.745 295.66 170.127 295.694C170.196 295.7 181.892 296.349 187.052 296.393C189.4 296.42 188.309 296.633 192.759 306.663C193.159 307.562 193.46 308.239 193.505 308.496C193.44 308.5 168.201 307.067 165.703 307.206C165.813 306.613 166.404 305.222 169.484 296.345ZM165.351 308.862C178.644 309.576 186.849 309.95 191.758 310.04C199.322 310.177 198.829 310.179 197.985 312.205C197.78 312.697 197.529 313.304 197.288 314.028C195.714 315.001 167.206 313.694 163.602 313.079C165.009 308.87 164.987 308.844 165.351 308.862ZM170.334 294.022C170.459 293.559 171.102 291.923 171.518 290.733C172.702 289.69 196.001 290.349 204.55 290.968C203.802 293.228 203.601 293.812 203.465 294.375C201.459 295.378 170.549 294.015 170.334 294.022ZM172.364 288.47C172.433 288.269 175.134 281.235 175.319 280.246C175.406 279.786 175.295 280.059 181.197 279.886C181.844 279.868 181.661 280.16 185.249 288.538C185.05 288.55 172.772 288.594 172.364 288.47ZM161.817 332.435V332.394C159.365 332.394 157.598 332.445 157.156 332.386C158.704 327.632 158.459 327.896 158.764 328.059C158.764 328.059 185.551 328.507 192.723 329.031C192.55 329.725 192.389 330.087 191.615 333.005C189.49 333.598 163.198 332.228 161.817 332.435ZM159.084 326.479C159.16 325.948 159.524 325.076 163.029 314.812C163.228 314.681 178.19 315.518 178.389 315.528C180.405 315.64 196.025 316.167 196.53 316.121C196.667 316.45 195.927 318.366 193.302 327.015C193.022 327.94 193.167 327.341 187.577 327.14C166.097 326.37 169.904 326.471 159.084 326.479ZM153.586 344.157C156.318 334.268 156.46 333.775 157.088 333.868C159.87 334.282 188.387 334.465 190.97 335.225C190.282 337.745 189.169 341.942 188.126 345.695C185.358 345.776 159.062 344.256 157.544 344.499V344.451C152.822 344.451 153.465 344.598 153.586 344.157ZM196.55 288.98C192.075 288.988 193.245 289.002 190.626 283.396C189.641 281.286 189.181 280.329 189.032 279.915C210.215 279.864 208.381 279.8 208.225 280.248C207.382 282.6 206.096 286.007 205.211 288.964C205.043 289.501 204.727 288.966 196.55 288.98ZM216.179 281.344C216.786 279.352 216.562 280.039 219.65 279.891C221.025 279.822 220.631 279.661 223.296 286.677C223.505 287.227 223.67 287.652 223.724 287.861C215.129 288.281 214.148 288.321 214.084 288.307C213.829 288.305 213.706 288.651 214.637 285.965C215.312 284.019 215.762 282.723 216.179 281.344ZM225.759 274.445C225.924 274.606 225.934 275.852 225.942 276.95C225.948 277.951 225.819 277.963 225.099 278.029C217.857 278.694 209.979 278.272 169.679 278.419C169.345 278.419 169.19 278.276 169.15 277.929C168.989 276.483 168.849 275.235 168.899 275.088L225.759 274.445ZM208.619 304.317C208.649 303.875 209.29 302.098 210.231 299.22C211.905 294.106 209.712 295.708 220.114 295.234C226.364 294.946 226.289 294.5 226.539 295.177C229.447 303.001 229.634 303.326 229.783 303.883C208.611 303.861 215.298 304.154 208.619 304.317Z" fill="black"/>
<path d="M33.2805 173.889C32.02 171.767 31.2388 170.663 30.9363 170.578C30.2915 170.399 29.8975 170.749 29.9671 171.45C29.993 171.734 31.5512 174.162 31.589 174.377C31.5054 174.508 30.8786 174.759 29.8497 175.569C29.1731 176.104 29.8856 176.982 30.5025 176.803C32.5124 176.238 32.9541 175.599 33.3959 174.689C33.4457 174.592 33.3939 174.075 33.2805 173.889Z" fill="black"/>
<path d="M32.4208 179.195C31.3601 179.764 29.6169 177.823 28.8169 179.7C27.8816 181.889 31.7223 184.433 32.4228 182.572C32.5482 182.255 32.2536 182.08 31.3741 181.561C30.9004 181.28 30.9243 181.35 30.5104 180.635C30.7154 180.669 31.0298 180.753 31.3522 180.836C31.4238 180.86 31.5034 180.856 31.5671 180.83C32.4984 180.548 32.8347 180.538 33.0934 180.034C33.3462 179.547 32.8307 178.98 32.4208 179.195Z" fill="black"/>
<path d="M27.5395 168.138C27.4898 167.997 27.3823 167.973 27.255 167.897C27.1256 167.824 26.9783 167.742 26.7953 167.73C26.2659 167.692 25.2789 168.039 24.7157 168.719C24.3515 169.159 24.2262 169.676 24.3535 170.218C24.3993 170.405 24.5565 170.504 24.6819 170.586C24.7456 170.626 24.8411 170.699 24.8411 170.699C24.9406 170.749 25.06 170.741 25.1515 170.675C25.6112 170.329 27.7365 168.679 27.5395 168.138Z" fill="black"/>
<path d="M29.2746 167.616C29.5095 167.616 29.6328 167.535 30.1323 167.328C31.1771 166.892 31.6109 166.715 31.6248 166.317C31.6368 165.967 31.2567 165.746 30.8308 165.533C30.5602 165.395 29.3403 165.477 28.6936 166.181C28.1085 166.814 28.5881 167.616 29.2746 167.616Z" fill="black"/>
<path d="M32.8506 169.205C31.9711 168.657 31.3721 169.744 31.79 170.584C32.1681 171.344 33.0476 171.517 33.4675 170.761C33.77 170.221 33.3123 169.491 32.8506 169.205Z" fill="black"/>
<path d="M28.7772 172.021C28.6319 171.193 27.7802 170.98 27.3304 171.463C26.8489 171.983 27.1513 173.095 27.7802 173.324C28.3254 173.517 28.9622 173.039 28.7772 172.021Z" fill="black"/>
<path d="M91.1219 218.458C92.5188 217.563 93.8283 215.897 92.2681 215.276C92.3258 215.212 92.3935 215.139 92.4711 215.051C93.1357 214.293 92.8333 213.372 91.8542 213.314C90.6462 213.254 90.3776 213.561 87.4662 214.353C89.1756 211.995 89.2114 211.975 89.3547 211.4C89.6075 210.379 88.8513 209.921 88.2204 210.146C86.4871 210.761 83.9937 212.783 82.8952 213.698C82.9629 213.429 83.0166 213.015 82.941 212.249C82.8872 211.69 82.5907 211.288 82.1469 211.177C80.6724 210.799 80.3082 212.99 76.8894 217.25C76.3143 217.969 76.161 217.923 75.7988 217.819C75.0128 217.59 74.8098 217.622 69.5642 218.518C68.408 218.715 67.5702 218.854 67.4349 218.774C67.407 218.735 67.3931 218.558 67.3811 218.408C67.003 213.801 66.8558 214.034 67.1344 213.772C67.3792 213.541 67.5483 213.252 67.1344 212.715C64.1753 208.894 53.8332 199.686 44.3628 193.953C38.5421 190.431 35.1014 190.373 33.2527 190.341C32.3213 190.325 32.0786 190.298 32.0208 190.067C31.2368 186.891 30.8288 186.988 31.2109 186.881C34.1243 186.055 36.8784 184.65 37.2963 179.993C37.8854 173.466 35.0994 164.775 29.5731 162.115C27.1672 160.956 23.2828 160.55 18.4411 165.187C16.2123 167.322 15.7327 170.664 17.0521 174.853C17.1436 175.145 17.1297 175.159 16.861 175.354C14.3855 177.173 15.9516 181.137 19.1873 181.233C19.6729 181.25 18.9704 181.235 18.9764 189.213C17.8003 190.23 3.27529 191.824 0.958931 214.365C-1.80518 241.267 5.0444 257.006 5.82647 258.674C5.97174 259.502 6.01552 260.443 6.26029 261.221C6.27223 262.761 -2.98724 291.75 0.994751 344.734C1.42857 350.501 1.27335 351.05 3.48424 351.004C4.3877 350.984 4.23845 351.018 4.76182 350.984C5.50807 350.928 5.44638 351.014 5.31106 351.392C5.15186 351.842 5.27922 351.649 4.92301 354.305C4.43347 357.935 4.24641 360.749 7.98761 361.255C8.93883 361.384 22.3713 362.554 24.0768 361.611C25.7742 360.675 25.619 359.069 24.0191 358.156C14.6302 352.809 13.7905 353.73 13.4124 350.469C13.4004 350.363 13.3726 350.144 13.3447 350.142C13.3865 350.12 13.5556 350.103 13.7507 350.079C19.2092 349.454 18.1744 349.523 19.1495 346.925C20.0132 344.614 26.7613 318.219 28.7672 313.101C29.2766 318.203 31.8497 346.554 31.8696 346.811C31.9233 349.175 33.2029 348.924 36.2257 348.602C36.5123 348.57 36.7909 348.54 36.9063 348.548C36.9123 348.608 36.9123 348.704 36.9123 348.793C36.9521 354.55 36.7988 353.858 37.364 356.246C38.4724 360.93 49.9627 358.465 51.7099 358.912C53.1148 359.276 54.3845 358.783 55.6899 358.733C56.7108 358.695 57.6043 358.035 57.7655 357.193C57.853 356.731 57.8192 355.547 55.5944 354.566C47.5528 351.016 45.2444 351.094 44.5598 347.88C45.0016 347.713 46.311 347.908 49.7577 346.972C52.6054 346.198 55.0292 303.913 55.2839 299.927C56.3864 282.636 56.7585 276.811 54.2113 259.995C54.1397 259.518 54.2054 259.432 54.3128 259.291C54.9655 258.449 54.4422 257.966 54.8262 254.22C55.2143 250.406 55.075 237.668 55.0034 237.152C54.8621 236.107 64.1792 234.585 72.8437 229.881C73.1541 229.716 73.6914 229.658 73.8626 229.268C74.1213 228.675 73.9681 228.259 73.8646 227.982C73.7631 227.71 73.7611 227.704 74.0715 227.538C77.2117 225.867 77.3311 225.793 77.4068 225.338C77.4784 224.908 77.4585 224.987 80.2147 224.44C84.4932 223.592 83.6395 223.765 87.1876 223.746C91.7965 223.73 94.075 220.468 89.8562 220.114C88.4254 219.992 88.3359 220.146 88.5846 220.002C89.1338 219.676 89.9716 219.194 91.1219 218.458ZM19.1018 191.149C19.5615 191.006 20.4191 190.737 20.4769 189.064C20.7037 182.57 22.0947 178.618 19.6928 179.45C18.4769 179.877 16.8511 178.671 17.5038 177.026C18.0192 175.724 19.1455 178.074 20.246 177.726C20.5943 177.613 20.7952 177.243 20.8947 176.89C21.9733 173.207 21.8062 170.713 21.7166 169.374C21.6927 169.032 21.6709 168.676 21.6629 168.648C21.8699 168.423 25.3603 165.665 27.9831 164.015C28.5642 163.648 29.1558 163.667 29.7582 164.075C32.6736 166.049 36.0486 172.801 35.8277 177.867C35.4655 186.276 30.5403 184.427 28.5722 186.055C28.4368 186.168 28.4289 186.373 28.5503 186.495C29.4239 187.388 29.2408 186.322 30.6119 190.451C31.2209 192.278 33.0576 191.923 33.8397 192.003C30.5383 198.194 22.8967 197.169 19.1077 191.43C19.0321 191.312 18.9923 191.239 18.9744 191.193C19.0142 191.179 19.062 191.161 19.1018 191.149ZM16.5725 356.399C21.1674 358.731 22.9524 359.501 23.3046 359.949C22.2281 360.514 12.1189 359.617 10.3895 359.493C4.31606 359.058 7.09012 359.358 6.85331 351.991C6.80356 350.367 6.8155 350.954 11.5517 350.359C11.6532 350.345 11.7109 350.347 11.7308 350.339C11.7746 350.66 11.5338 351.605 12.2084 353.05C12.9029 354.54 13.9775 355.084 16.5725 356.399ZM36.0028 285.921C35.7581 287.081 31.0278 309.522 29.402 309.522C28.4369 309.522 28.7692 307.306 29.0538 306.663C29.7105 305.186 31.8597 295.656 33.7561 287.25C36.974 272.988 37.1013 272.196 37.8058 272.538C38.1759 272.709 38.7351 272.968 36.0028 285.921ZM50.3647 354.526C51.7696 355.072 54.8601 356.248 55.6859 356.787C55.5407 356.88 55.2999 356.936 55.0909 356.944C41.6863 357.432 39.2744 357.326 39.0794 355.05C38.956 353.605 38.8525 353.74 38.6734 348.765C38.6694 348.642 38.6595 348.413 38.6475 348.393C38.6873 348.373 42.8524 348.053 42.8962 348.051C42.9658 351.653 46.0722 352.861 50.3647 354.526ZM72.3482 228.613C57.5267 234.414 57.063 234.4 48.7866 236.523C48.0981 236.7 48.0125 236.595 47.5329 236.006C46.8643 235.182 45.6205 233.652 41.3639 231.751C36.2158 229.447 31.7761 231.733 29.8318 234.828C29.6965 235.041 29.6985 235.043 29.4398 234.899C14.9586 226.824 17.0978 226.364 10.0075 222.247C9.39255 221.895 8.87913 222.601 9.2035 223.077C10.5885 225.111 26.2299 237.49 36.57 239.164C43.1589 240.233 53.0014 237.337 53.2004 237.301C53.2004 237.301 53.282 239.564 53.3158 240.424C53.5666 246.798 53.0074 255.211 52.9556 255.41L7.86622 257.556C7.0344 257.653 7.03241 257.653 6.87122 257.16C2.25641 243.011 2.27233 236.125 2.29422 222.408C2.30019 218.691 2.24049 218.727 2.5171 216.532C3.03052 212.401 2.91709 208.52 5.53792 202.972C7.97766 197.798 12.298 193.681 17.0958 191.953C17.3943 191.85 17.3943 191.836 17.669 192.331C19.5575 195.744 24.7693 199.062 29.5513 197.83C32.0268 197.191 34.0228 195.49 35.3223 192.912C35.4357 192.694 35.4596 192.495 35.5412 192.302C36.8327 192.258 41.6226 194.307 43.7579 195.609C50.6472 199.81 57.453 205.354 65.1723 213.057C65.9722 213.857 65.5802 214.048 65.8489 217.584C65.9165 218.468 65.7169 218.946 65.2499 219.019C53.1427 220.908 53.5347 221.033 52.7188 221.115C52.3805 220.364 51.7995 216.466 49.0871 210.092C48.2772 208.19 42.331 196.61 40.5719 197.977C39.2286 199.012 46.7866 204.19 50.8721 221.065C51.099 222.006 50.9119 221.182 46.3727 222.573C46.2036 222.623 45.9867 222.741 45.8275 222.814C40.3012 215.873 34.6655 208.878 26.6359 202.665C22.2579 199.282 15.2869 196.892 13.8541 197.824C13.0044 198.387 13.2014 199.095 13.9457 199.227C24.9743 201.147 31.1094 208.305 43.332 222.569C44.4424 223.867 45.2802 224.683 46.7767 224.239C51.2323 222.898 70.5373 220.219 70.7383 220.249C70.798 222.112 71.0089 223.077 71.4766 225.099C72.0417 227.546 71.8746 227.31 72.2984 228.126C72.3741 228.269 72.4855 228.484 72.4775 228.541C72.4775 228.541 72.4537 228.571 72.3482 228.613ZM45.919 237.021C39.7221 238.149 36.5242 237.528 32.0467 236.036C31.7383 235.932 31.4199 235.827 31.2905 235.755C31.3701 235.628 31.601 235.379 31.8278 235.136C33.1193 233.745 34.2238 233.286 36.2038 232.768C39.3142 231.956 45.1847 235.652 45.919 237.021ZM75.5819 224.82C74.7302 225.15 73.9243 225.644 73.5203 225.847C73.387 225.646 73.5701 225.481 72.6746 221.688C72.4537 220.757 72.3084 220.14 72.4377 219.951C72.593 219.724 73.4507 219.686 74.8437 219.475C75.0427 219.887 74.7402 220.036 75.765 224.396C75.8287 224.675 75.8048 224.733 75.5819 224.82ZM85.2613 220.643C85.4086 221.196 86.1469 221.521 86.5986 221.566C87.3886 221.646 88.4115 221.712 89.1776 221.752C87.8284 222.128 86.8712 222.132 85.717 222.134C80.7838 222.146 77.759 223.338 77.3331 223.344C77.3331 223.344 77.3053 223.294 77.2854 223.184C76.0357 216.717 76.3401 222.122 81.0047 214.156C80.8216 214.623 80.5967 215.105 80.4216 215.905C80.2664 216.615 80.9987 217.393 81.8286 216.725C83.739 215.161 85.1419 214.07 86.0354 213.415C85.118 214.44 83.7191 215.774 84.1171 216.456C84.5947 217.278 85.0066 217.113 86.9946 216.303C93.2273 213.766 85.7648 216.9 85.5439 217.988C85.4941 218.239 85.6334 218.424 85.6772 218.486C86.1588 219.133 86.5966 218.749 87.0981 218.56C88.1289 218.168 88.0035 217.821 90.0552 217.204C86.3578 219.576 85.0006 219.674 85.2613 220.643Z" fill="black"/>
<path d="M378.557 155.938C378.388 155.628 378.076 155.466 377.696 155.47C376.727 151.281 377.503 95.0002 371.795 56.4579C371.069 51.5804 370.158 52.4779 367.736 52.5594C357.812 52.8938 241.819 60.3503 243.116 69.8247C243.249 70.8038 248.429 139.721 256.696 166.115C257.261 167.928 257.611 167.675 262.737 167.633C264.405 167.633 263.127 168.099 264.692 168.68C266.883 169.498 268.946 170.069 269.31 170.409C268.16 171.279 268.184 171.364 268.51 172.666C268.606 173.048 268.63 173.474 268.803 173.866C269.032 174.389 268.877 174.513 268.536 174.783C268.19 175.058 267.714 175.434 267.909 176.314C268.96 181.139 270.928 187.032 272.685 192.297C278.056 208.345 279.987 210.886 289.891 214.956C304.989 221.156 305.509 217.837 304.679 222.82C303.94 227.214 300.683 253.355 300.79 258.039C300.834 260.137 300.631 260.562 303.441 261.508C303.532 261.54 306.595 262.538 306.675 262.596C304.734 295.596 310.454 348.829 312.062 349.362C314.68 350.232 316.29 349.973 316.575 350.085C316.575 350.085 316.581 350.108 316.571 350.172C316.155 352.89 305.091 354.646 305.7 357.495C306.104 359.38 309.863 359.434 311.875 359.434C316.04 359.434 321.285 358.751 323.472 358.114C324.997 357.674 325.797 356.606 325.918 354.849C326.033 353.217 326.181 349.888 326.181 349.888C326.232 349.868 327.142 349.766 327.198 349.76C332.262 349.185 330.21 348.998 332.063 326.728C333.999 303.475 330.495 311.821 340.686 347.209C340.901 347.953 341.41 348.327 342.246 348.355C344.61 348.451 345.529 348.053 345.943 347.999C345.985 348.162 346.124 348.958 346.106 349.203C345.971 350.829 342.409 351.736 339.044 354.57C337.8 355.623 338.075 357.014 339.675 357.537C343.364 358.751 353.521 356.088 355.571 355.581C356.829 355.271 357.487 354.419 357.515 352.974C357.648 345.068 355.416 345.689 358.771 344.861C361.722 344.132 360.938 344.134 358.846 325.518C354.293 284.964 358.029 293.636 357.953 261.826C357.953 261.331 357.885 260.998 357.84 260.779C357.824 260.692 357.802 260.578 357.784 260.592C357.784 260.592 357.808 260.57 357.893 260.537L358.281 260.379C359.434 259.922 360.194 259.617 360.162 258.754C359.887 250.78 357.137 226.201 353.639 215.588C353.284 214.518 353.667 215.389 360.61 211.69C372.524 205.342 374.368 194.365 374.179 170.564C374.175 169.991 373.963 169.368 374.012 168.875C374.12 167.743 373.157 167.577 372.641 167.49C372.5 167.466 372.291 167.432 372.267 167.452C373.2 162.334 371.469 165.275 376.961 159.544C378.384 158.057 378.977 156.71 378.557 155.938ZM375.879 156.314C375.74 156.636 375.089 157.084 374.739 157.273C375.252 156.607 375.596 155.98 375.847 155.339C375.887 155.755 375.917 156.197 375.879 156.314ZM369.388 53.9723C371.553 53.9723 376.45 137.911 375.537 152.531C374.715 152.241 373.964 152.493 373.358 153.265C372.842 153.918 372.424 154.455 372.092 154.887C372.388 153.97 372.731 152.686 372.673 151.791C372.607 150.778 371.407 150.567 370.671 151.283C369.083 152.822 367.801 156.424 366.665 158.62C365.475 156.668 365.195 156.01 364.677 155.693C363.77 155.132 362.783 155.504 362.844 156.547C362.856 156.746 363.008 159.132 363.081 159.331C362.864 159.426 361.917 159.496 360.261 159.617C357.951 159.785 353.667 160.095 346.264 160.835C344.694 156.228 337.486 61.9284 335.082 56.5454C335.283 56.4121 335.649 56.4658 369.388 53.9723ZM265.521 165.95C264.294 165.898 262.712 165.993 260.751 166.093C258.192 166.228 258.338 166.234 258.196 165.687C250.64 136.482 244.575 70.762 245.337 69.4784C245.514 69.1779 245.136 69.1879 245.733 68.8138C252.517 64.5512 330.171 55.7335 333.721 56.9056C335.265 67.6655 344.206 160.595 344.206 160.595C344.224 161.267 344.164 161.052 340.178 161.486C337.659 161.763 339.557 161.58 336.945 157.966C335.108 155.425 329.193 155.755 328.523 155.805C324.597 156.079 324.835 155.337 322.037 154.989C318.891 154.591 314.778 156.746 313.683 160.585C313.295 161.942 313.693 162.851 313.325 162.867C305.232 163.241 275.05 166.155 274.851 166.161C274.892 165.667 275.328 164.463 275.247 162.099C275.215 161.132 273.864 160.632 273.269 161.542C272.616 162.545 272.234 163.576 271.925 164.403C271.73 164.927 271.438 165.717 271.273 165.727C266.823 166.007 266.158 165.981 265.521 165.95ZM328.776 184.529C325.506 184.837 323.653 185.947 321.856 186.785C322.217 184.809 322.499 185.175 323.703 184.007C324.601 183.133 325.273 182.596 326.652 182.791C328.177 182.791 328.807 183.464 331.442 181.627C331.514 181.83 332.346 184.216 332.366 184.552C331.134 184.28 330.047 184.409 328.776 184.529ZM335.557 187.814C332.766 188.126 332.63 187.609 322.063 188.477C325.138 186.232 332.967 184.753 335.557 187.814ZM323.383 174.724C323.655 173.987 323.976 173.263 324.352 172.574C325.281 170.871 327.371 171.347 327.397 172.982C327.424 174.724 325.536 175.802 324.205 175.689C323.148 175.707 323.054 175.615 323.383 174.724ZM320.658 169.118C320.155 171.165 319.433 173.251 317.693 174.747C316.947 175.384 316.125 175.38 315.642 175.623C315.524 175.422 315.564 172.811 315.339 172.519C314.901 171.948 315.206 171.392 315.413 170.642C315.658 169.747 316.115 167.796 316.131 167.593C316.33 167.593 316.121 167.635 318.418 168.264C319.433 168.543 320.254 168.764 320.658 169.118ZM266.505 167.52C267.523 167.456 269.289 167.444 270.278 167.438C272.795 167.42 273.006 165.783 273.844 163.687C273.862 164.047 273.965 163.554 273.173 166.72C272.994 167.432 272.833 167.886 273.06 168.811C272.558 169.02 272.799 168.913 272.248 169.13C271.81 169.307 271.328 169.633 270.98 169.613C270.763 169.593 270.419 169.064 270.003 168.851C268.895 168.286 267.653 167.896 266.505 167.52ZM274.791 171.878C273.714 172.059 271.271 173.096 270.685 173.43C270.172 173.723 270.258 173.595 270.212 173.346C270.007 172.135 269.237 172.085 270.536 171.629C271.386 171.333 273.621 170.322 274.285 170.322C274.699 170.322 274.656 170.694 275.026 171.818C274.952 171.85 274.892 171.86 274.791 171.878ZM292.052 193.597C290.928 191.468 289.63 189.607 287.67 186.795C277.921 172.823 278.208 171.88 276.807 171.625C276.443 171.297 276.06 168.165 274.61 168.692C274.61 168.692 274.622 167.894 274.598 167.645C274.797 167.534 296.609 166.368 313.636 164.387C313.878 164.38 314.195 165.715 314.923 166.588C314.706 167.542 313.12 171.301 313.532 172.375C313.916 173.386 313.544 174.562 313.928 175.703C314.179 176.447 312.199 176.011 313.268 182.212C313.757 185.052 316.067 186.831 319.448 186.188C319.825 186.115 320.213 186.047 320.284 186.063C320.39 186.264 320.087 187.673 320.053 187.872C320.004 188.158 319.317 188.713 318.973 188.747C303.441 190.212 293.107 194.198 292.052 193.597ZM307.097 217.477C306.901 217.519 306.609 217.427 306.545 217.236C305.922 215.375 311.773 208.247 309.323 197.179C309.178 196.522 309.473 196.184 309.797 196.084C310.207 195.961 310.714 196.218 310.876 196.638C313.604 203.794 308.959 217.097 307.097 217.477ZM356.261 261.215C356.21 295.531 351.702 284.094 358.263 337.042C358.498 338.945 358.697 340.25 358.829 341.114C359.032 342.443 359.079 342.795 358.952 342.887C358.369 343.237 346.083 346.27 342.435 346.618C341.904 346.668 342.117 346.598 341.591 344.379C341.51 344.045 333.526 310.744 333.647 307.998C333.649 307.934 334.25 299.654 334.688 295.545C334.688 295.545 336.063 274.09 336.145 273.221C336.344 271.068 336.379 270.68 335.747 270.568C334.511 270.367 334.541 272.061 334.041 279.587C333.685 284.924 329.16 345.161 329.056 347.113C329.024 347.679 328.903 347.734 327.434 347.846C323.693 348.13 319.757 348.612 312.959 347.782C312.871 347.772 312.84 347.76 312.84 347.76C312.786 347.687 312.768 347.301 312.75 346.851C312.663 344.903 312.635 344.678 311.457 334.083C309.988 320.873 309.494 316.422 307.723 279.983C307.946 269.47 308.028 262.932 308.247 262.982C338.68 269.726 356.088 259.75 356.261 261.215ZM346.174 194.254C347.488 191.792 352.128 210.361 352.078 212.446C352.059 213.266 351.103 213.421 350.813 212.078C349.637 206.653 345.474 195.573 346.174 194.254ZM363.808 164.049C363.523 165.054 363.425 165.753 363.36 166.214C363.324 166.467 363.284 166.756 363.183 166.815C362.098 166.913 357.223 187.06 356.333 189.092C356.132 189.096 344.696 187.886 337.987 187.868C337.004 187.868 337.476 185.713 334.752 185.008C334.015 184.815 334.21 184.536 332.976 180.97C332.787 180.425 332.919 180.684 334.738 177.697C336.753 174.385 336.314 171.864 337.46 169.587C340.081 164.389 338.091 162.796 339.386 162.843C341.711 162.895 360.309 161.418 362.938 160.949C363.149 160.911 363.352 160.875 363.449 160.871C363.463 160.915 363.479 160.979 363.493 161.038C363.967 162.973 364.213 162.622 363.808 164.049ZM370.836 166.169C370.717 166.766 370.777 166.688 370.717 167.203C369.648 166.992 365.137 166.935 364.916 166.638C364.852 166.553 365.38 164.507 365.429 164.399C366.745 164.658 370.321 165.394 370.9 165.617C370.924 165.737 370.868 166.011 370.836 166.169ZM374.548 159.824C370.572 163.462 371.541 164.055 369.919 163.637C366.484 162.762 365.609 163.12 365.431 162.477C365.049 161.106 364.633 159.299 364.458 158.236C365.043 159.267 365.734 160.831 366.552 160.863C366.87 160.883 367.165 160.682 367.425 160.284C369.252 157.526 372.53 149.174 370.725 154.346C369.736 157.178 368.727 158.963 369.348 159.381C369.642 159.578 370.098 159.697 370.591 159.14C372.448 157.072 373.393 155.695 373.959 154.873C375.232 153.027 374.96 154.252 373.674 156.105C373.192 156.806 372.591 157.492 372.044 158.157C371.678 158.601 372.096 159.269 372.737 159.329C374.394 159.474 375.628 158.457 376.53 157.711L376.647 157.616C376.179 158.199 375.425 159.022 374.548 159.824Z" fill="black"/>
<path d="M170.294 52.1829C170.189 52.1531 170.008 52.2148 169.932 52.2964C168.346 53.9919 157.451 115.236 157.888 116.466C158.05 116.924 158.245 117.019 158.446 117.005C159.757 116.916 160.955 106.114 169.572 59.4504C170.632 53.7073 170.955 52.3819 170.294 52.1829Z" fill="black"/>
<path d="M154.094 141.811C153.618 142.121 153.495 143.09 152.669 149.4C152.591 149.995 153.69 150.61 153.857 149.808C154.41 147.17 155.065 142.525 155.071 142.465C155.1 141.976 154.555 141.51 154.094 141.811Z" fill="black"/>
<path d="M239.972 243.922C239.397 241.783 237.715 242.093 234.37 241.608C233.373 241.462 233.333 241.456 233.393 240.016C233.486 237.721 232.694 236.547 230.78 233.713C225.359 225.678 224.058 223.198 214.681 214.406C213.33 212.962 215.807 180.425 203.402 168.099C200.267 164.985 199.694 165.572 199.879 164.861C200.862 161.1 202.029 156.931 202.466 153.124C202.524 152.641 202.494 152.818 204.007 152.404C205.394 152.026 205.678 152.107 205.975 151.662C206.492 150.888 205.798 149.347 205.796 148.263C206.353 148.786 207.32 149.787 207.851 150.336C209.513 152.058 216.164 146.603 213.654 144.573C210.554 142.064 212.81 144.151 219.831 131.987C224.683 123.579 224.679 115.569 223.097 105.37C220.912 91.2871 219.765 97.2989 220.944 90.5488C222.346 82.5271 224.187 71.8945 224.577 63.7534C224.802 59.0312 224.878 57.4411 222.977 56.3844C220.834 55.1964 117.509 36.2476 98.6162 36.765C96.3496 36.8267 95.7268 39.3759 95.3128 41.0634C90.4135 61.0172 88.5827 68.1414 85.2116 87.321C83.2216 98.6461 78.9013 125.915 79.763 137.381C79.9779 140.253 80.0495 140.203 110.841 146.171C146.124 153.011 160.298 154.712 165.633 155.349C166.919 155.504 167.769 155.606 167.896 155.662C168.159 155.857 168.457 156.824 168.971 157.745C169.946 159.506 168.684 157.751 169.21 170.688C169.245 171.474 169.864 171.474 169.291 172.799C160.304 193.619 161.779 227.811 167.225 252.461C169.355 262.107 168.672 261.474 172.465 262.312C174.228 262.7 173.398 262.471 173.834 266.395C173.922 267.161 174.101 267.46 166.388 270.409C164.814 271.012 163.335 271.533 164.008 273.119C164.475 274.222 165.504 274.504 166.236 274.622C170.748 275.348 176.103 274.998 179.217 274.248C181.969 273.673 180.887 268.244 181.444 263.338C184.292 262.839 184.568 262.982 184.869 261.585C185.002 260.97 186.379 232.559 191.852 217.911C194.759 220.868 200.037 234.679 228.943 249.93C229.568 250.258 230.056 250.061 230.45 249.826C231.461 249.225 231.697 247.653 231.954 247.61C231.954 247.61 232.107 247.592 232.535 248.065C234.623 250.388 238.231 260.463 240.967 260.415C241.47 260.407 242.051 260.131 242.539 258.917C243.257 257.128 241.542 249.785 239.972 243.922ZM222.275 115.012C222.225 126.888 218.088 131.823 211.037 141.682C206.623 135.895 209.487 133.226 210.074 128.818C210.209 127.806 210.468 126.775 210.178 125.678C210.074 125.296 210.188 124.99 210.572 124.626C212.528 122.781 216.172 119.344 216.355 116.313C216.426 115.097 219.097 101.191 219.877 97.4083C220.848 100.706 222.301 108.982 222.275 115.012ZM81.8326 138.311C77.0307 137.322 93.9119 46.5578 97.9894 38.9899C98.7456 37.5929 101.434 38.769 117.077 40.2077C135.688 41.9152 219.688 56.6591 222.673 58.2033C224.494 60.5157 218.844 93.3248 215.256 112.373C214.448 116.66 215.224 116.878 213.923 118.383C211.366 121.336 210.048 122.858 209.607 123.233C207.585 119.428 204.787 118.99 201.507 117.454C195.669 114.717 205.035 107.579 196.465 99.9515C191.925 95.9158 184.027 94.483 178.668 99.0719C177.205 100.328 176.157 101.886 175.207 103.374C174.662 104.226 174.37 105.253 174.051 106.126C171.852 112.19 169.673 120.58 176.18 123.434C176.242 123.459 176.318 123.485 176.318 123.485C176.373 123.708 175.721 125.27 175.096 126.904C174.984 127.197 174.334 127.35 173.072 127.571C173.042 127.559 173.004 127.531 172.941 127.491C169.305 125.213 155.278 119.332 150.03 117.33C145.441 115.579 147.142 116.25 144.07 110.986C139.988 103.989 138.05 101.685 129.595 90.9985C128.822 90.0234 129.565 89.2971 128.53 84.1848C128.456 83.8067 128.331 83.1738 127.656 83.0823C126.462 82.8972 126.518 84.6325 126.279 86.4752C126.261 86.4553 123.555 83.1101 122.88 82.3082C122.373 81.7032 121.565 81.2396 121.077 81.5719C120.496 81.9699 120.735 83.1818 121.826 85.3051C120.868 84.7101 118.92 83.3509 118.033 83.8902C117.708 84.0853 117.567 84.4673 117.609 85.0265C117.637 85.3986 117.941 85.7111 118.267 86.0434C119.515 87.321 118.608 87.325 120.15 89.2692C120.273 89.4244 120.411 89.5956 120.566 89.8065C120.333 89.7926 120.24 89.7548 120.168 89.7249C119.643 89.518 118.594 89.8443 118.49 90.5766C118.377 91.4005 119.362 92.298 120.347 92.7238C124.755 94.6303 124.542 93.5795 125.242 94.2362C125.567 94.6124 126.51 98.4849 126.641 99.2212C129.549 115.366 134.434 122.08 141.011 128.58C154.706 142.116 160.957 144.862 163.309 145.899C164.065 146.231 164.372 146.374 164.4 146.565C164.784 149.164 165.679 150.647 167.076 153.725C163.634 154.314 121.457 146.711 81.8326 138.311ZM181.5 127.073C178.98 127.211 180.334 127.085 178.429 127.105C177.896 127.109 177.458 127.113 177.265 127.085C177.281 127.033 177.301 126.976 177.311 126.95C179.122 121.726 178.501 123.523 176.041 121.449C171.709 117.802 174.455 108.308 175.878 106.288C176.519 105.372 180.073 106.877 180.664 108.524C181.892 111.935 181.205 112.57 181.715 112.958C182.2 113.328 183.374 112.441 184.009 113.342C184.292 113.74 184.27 114.375 183.959 114.882C182.56 117.171 180.043 116.777 179.707 118.449C178.853 122.719 180.292 124.61 181.5 127.073ZM123.191 90.495C122.624 89.7528 122.154 89.2632 121.788 88.8991C122.166 89.1478 122.598 89.3826 123.145 89.4264C123.32 89.4503 123.497 89.2811 123.463 89.0801C123.368 88.5289 123.698 88.5508 122.232 87.4722C117.649 84.0992 119.215 85.2315 123.535 87.926C124.387 88.4652 124.908 87.6752 124.47 86.9727C122.441 83.6912 122.691 84.143 123.828 85.5181C124.737 86.6185 125.595 87.6573 126.003 87.9996C126.267 88.2225 126.667 88.5031 127.033 88.3498C127.573 88.1269 127.567 87.1638 127.632 86.531C127.632 93.2094 128.884 92.2144 140.028 107.713C149.276 120.584 138.408 114.055 162.925 124.586C169.789 127.533 175.717 130.078 175.782 135.855C175.782 139.955 174.173 142.368 171.096 145.234C169.327 146.888 163.97 146.044 148.41 132.798C142.764 127.995 137.531 123.913 134.534 117.738C130.297 109.008 129.975 104.517 126.651 93.496C126.146 91.8104 124.789 93.1398 121.063 91.3587C120.866 90.8771 121.69 91.0841 122.029 91.1259C122.395 91.1716 123.497 90.899 123.191 90.495ZM179.717 263.5C179.358 264.909 179.508 266.361 179.476 267.685C179.442 269.08 179.548 269.046 177.617 269.024C174.871 268.984 175.305 269.016 174.131 269.004C175.962 267.997 175.79 266.132 175.595 263.993C175.488 262.827 175.52 263.026 175.498 262.827C175.834 262.759 177.301 262.978 179.683 263.253C179.709 263.289 179.749 263.37 179.717 263.5ZM196.701 188.023C195.891 197.452 195.969 197.593 194.904 203.907C193.85 210.16 193.372 212.868 192.337 212.635C190.588 212.227 194.321 201.778 194.697 187.675C194.745 185.796 194.262 182.942 194.244 182.712C194.22 182.397 194.445 182.119 194.532 181.92C194.634 181.685 194.932 181.609 195.137 181.762C195.338 181.916 195.625 181.999 195.74 182.316C196.586 184.702 196.417 184.463 196.691 187.894C196.701 187.935 196.705 187.979 196.701 188.023ZM185.906 165.029C182.296 165.299 175.012 167.51 170.907 169.99C170.899 169.785 171.138 161.086 171.225 160.113C171.4 158.169 171.375 158.877 166.523 147.138C166.923 147.214 167.546 147.397 168.179 147.437C176.813 147.891 180.117 134.631 174.869 129.386C176.111 129.097 180.441 128.818 180.744 128.83C180.775 128.48 180.765 128.53 180.765 128.83C182.572 128.83 182.554 128.743 182.696 129.057C185.713 135.779 183.683 140.156 180.117 146.736C179.567 147.761 179.629 148.036 180.57 148.687C186.353 152.7 188.453 151.385 191.223 148.75C191.247 148.726 191.269 148.707 191.289 148.691C191.446 149.087 191.72 150.1 192.584 151.682C193.71 153.745 193.382 153.282 200.454 153.214C200.299 154.84 198.737 163.251 198.403 164.81C191.519 164.26 195.32 164.316 185.906 165.029ZM233.1 244.404C233.005 245.932 233.039 245.958 233.019 246.157C232.931 246.113 232.81 246.041 232.714 245.984C229.397 244.01 229.2 244.183 229.351 243.56C229.819 241.628 229.652 241.727 229.833 241.528C230.901 241.964 231.684 242.302 232.209 242.465C233.307 242.81 233.18 243.154 233.1 244.404ZM240.698 256.877C239.186 255.229 236.356 246.955 236.489 244.971C236.543 244.141 237.791 243.502 238.113 244.308C238.519 245.317 240.842 254.702 240.698 256.877Z" fill="black"/>
</svg>
