<?xml version="1.0" encoding="utf-8"?>
<!-- Generator: Adobe Illustrator 27.5.0, SVG Export Plug-In . SVG Version: 6.00 Build 0)  -->
<svg version="1.1" xmlns="http://www.w3.org/2000/svg" xmlns:xlink="http://www.w3.org/1999/xlink" x="0px" y="0px"
	 viewBox="0 0 500 500" style="enable-background:new 0 0 500 500;" xml:space="preserve">
<g id="BACKGROUND">
	<rect x="0.664" y="-0.23" style="fill:#FFEA92;" width="500" height="500"/>
	<polygon style="fill:#FFEA92;" points="246.993,226.67 248.099,235.96 254.293,233.969 250.311,224.9 	"/>
</g>
<g id="OBJECTS">
	<g>
		<ellipse style="opacity:0.24;fill:#93451D;" cx="250" cy="390.433" rx="218.986" ry="32.516"/>
		<g>
			<path style="fill:#DBBB35;" d="M324.936,132.77c-6.71,2.093-14.974-0.93-17.316-11.385c-2.929-13.088,6.404-20.107,1.529-28.863
				c-4.873-8.752-5.805,1.607-8.297-5.267c-1.835-5.06,2.99-5.238,6.525-4.471c12.048,2.62,21.377,20.107,25.494,30.533
				C336.852,123.4,331.679,130.668,324.936,132.77z"/>
			<path style="fill:#93451D;" d="M355.242,246.779c-8.003-18.858-15.714-37.836-22.946-57.008
				c-5.087-13.486-12.173-27.808-14.617-42.138c-1.249-7.324-1.332-16.857,6.893-19.898c8.782-3.248,15.937,5.219,29.303,34.947
				c11.003,24.471,71.295,154.711,92.272,200.003c4.037,8.715,0.628,19.098-7.755,23.642c-9.131,4.949-20.494,1.039-24.753-8.517
				C394.189,334.164,373.923,290.799,355.242,246.779z"/>
			<path style="fill:none;stroke:#000000;stroke-linecap:round;stroke-linejoin:round;stroke-miterlimit:10;" d="M329.123,182.243
				c0,0,12.085-16.403,28.4-11.175"/>
			<path style="fill:none;stroke:#000000;stroke-linecap:round;stroke-linejoin:round;stroke-miterlimit:10;" d="M307.377,82.785
				c0,0,15.434,9.525,16.448,31.03"/>
			<path style="stroke:#000000;stroke-miterlimit:10;" d="M326.678,113.614c0.172,1.646-1.007,3.121-2.633,3.295
				c-1.626,0.174-3.084-1.019-3.256-2.665s1.007-3.121,2.633-3.295C325.049,110.775,326.506,111.968,326.678,113.614z"/>
		</g>
		<g>
			<path style="fill:#F9DEB2;" d="M446.712,270.252c-8.529,48.445-43.193,101.831-56.674,121.184
				c-2.881,4.137-8.648,5.003-12.631,1.916l-74.926-58.034c-3.874-3-4.581-8.588-1.536-12.417
				c40.734-51.16,21.911-91.38,10.506-107.756c-3.101-4.464-1.502-10.65,3.403-13.001c8.554-4.102,21.827-9.84,36.419-13.899
				c17.056-4.746,35.899-7.192,51.099-2.022C444.847,200.677,453.061,234.085,446.712,270.252z"/>
			<g>
				
					<line style="fill:#FFFFFF;stroke:#000000;stroke-linecap:round;stroke-linejoin:round;stroke-miterlimit:10;" x1="338.865" y1="227.452" x2="427.048" y2="226.142"/>
				
					<line style="fill:#FFFFFF;stroke:#000000;stroke-linecap:round;stroke-linejoin:round;stroke-miterlimit:10;" x1="339.738" y1="239.239" x2="426.612" y2="240.548"/>
				
					<line style="fill:#FFFFFF;stroke:#000000;stroke-linecap:round;stroke-linejoin:round;stroke-miterlimit:10;" x1="339.738" y1="253.208" x2="424.429" y2="258.01"/>
				
					<line style="fill:#FFFFFF;stroke:#000000;stroke-linecap:round;stroke-linejoin:round;stroke-miterlimit:10;" x1="337.119" y1="267.178" x2="420.063" y2="281.584"/>
				
					<line style="fill:#FFFFFF;stroke:#000000;stroke-linecap:round;stroke-linejoin:round;stroke-miterlimit:10;" x1="335.373" y1="282.894" x2="412.642" y2="303.411"/>
				
					<line style="fill:#FFFFFF;stroke:#000000;stroke-linecap:round;stroke-linejoin:round;stroke-miterlimit:10;" x1="331.444" y1="296.427" x2="401.292" y2="323.493"/>
				
					<line style="fill:#FFFFFF;stroke:#000000;stroke-linecap:round;stroke-linejoin:round;stroke-miterlimit:10;" x1="327.952" y1="310.833" x2="392.997" y2="346.193"/>
			</g>
			<path style="fill:#DBBB35;" d="M446.698,269.779c-0.814-58.982-57.768-51.831-57.768-51.831
				c4.668-28.102-38.114-29.126-38.114-29.126l0.459-0.577c17.056-4.746,35.899-7.192,51.099-2.022
				c42.473,14.453,50.687,47.861,44.338,84.029C446.704,270.095,446.696,269.938,446.698,269.779z"/>
		</g>
		<path style="fill:#FFFFFF;" d="M51.526,334.845l7.954,46.441c3.286,19.186,22.809,30.377,39.779,22.802l54.352-24.259
			c4.229-1.887,8.848-2.667,13.462-2.271l59.546,5.105c18.699,1.603,33.517-15.702,30.005-35.041l-8.298-45.689
			c-4.024-22.158-28.965-32.355-45.841-18.742l-37.381,30.156c-7.283,5.875-16.887,7.65-25.778,4.762l-51.541-16.737
			C67.356,294.74,47.756,312.833,51.526,334.845z"/>
		<g>
			<g>
				<path style="fill:#F2B3BF;" d="M188.571,388.879l-26.218,18.452c-0.91,0.641-1.371,1.73-1.256,2.832
					c0.654,6.266,0.205,12.558-0.654,18.055c-0.525,3.409-1.217,6.523-1.884,9.124c-0.718,2.819-4.6,3.114-5.715,0.423
					l-18.209-43.786c-0.577-1.371-0.064-2.973,1.217-3.742c1.781-1.064,4.408-2.499,6.971-3.319
					c1.243-0.397,2.473-0.654,3.588-0.654c4.267,0,19.055-11.904,24.77-16.3c1.204-0.923,2.909-0.794,3.985,0.282l13.814,14.031
					C190.288,385.611,190.095,387.802,188.571,388.879z"/>
				<path d="M160.444,428.218c-0.525,3.409-1.217,6.523-1.884,9.124c-0.718,2.819-4.6,3.114-5.715,0.423l-18.209-43.786
					c-0.577-1.371-0.064-2.973,1.217-3.742c1.781-1.064,4.408-2.499,6.971-3.319C144.105,396.798,148.847,426.142,160.444,428.218z"
					/>
			</g>
			<g>
				<path style="fill:#F2B3BF;" d="M177.411,378.934l-27.403,19.273c-0.951,0.67-1.433,1.808-1.313,2.973
					c0.616,5.92,0.295,11.867-0.442,17.197c-0.563,4.219-1.393,8.063-2.197,11.21c-0.764,2.947-4.822,3.255-5.987,0.442
					l-19.032-45.766c-0.603-1.447-0.067-3.107,1.272-3.911c2.531-1.527,6.71-3.75,10.125-4.112c0.321-0.04,0.63-0.053,0.924-0.053
					c4.46,0,19.903-12.429,25.876-17.023c1.259-0.964,3.054-0.844,4.165,0.295l14.438,14.666
					C179.22,375.518,179.005,377.809,177.411,378.934z"/>
				<path d="M148.254,418.378c-0.563,4.219-1.393,8.063-2.197,11.21c-0.764,2.947-4.822,3.255-5.987,0.442l-19.032-45.766
					c-0.603-1.447-0.067-3.107,1.272-3.911c2.531-1.527,6.71-3.75,10.125-4.112C133.454,386.273,137.512,417.922,148.254,418.378z"
					/>
				<polyline style="fill:none;stroke:#000000;stroke-miterlimit:10;" points="148.254,418.378 150.883,394.282 160.173,387.978 
									"/>
			</g>
			<g>
				<path d="M107.609,308.157c-1.508,0.051-2.882,0.841-3.691,2.114c-4,6.291-15.269,25.722-10.121,37.601
					c5.931,13.687,13.387,18.22,39.858,12.768c1.485-0.306,2.825,0.846,2.851,2.361c0.003,0.198,0.013,0.408,0.03,0.629
					c0.239,3.104,25.31,34.622,29.607,37.964c2.683,2.087,7.693-2.341,11.079-5.962c1.861-1.99,5.021-1.912,6.804,0.148
					c2.79,3.225,6.697,6.944,9.099,5.814c4.059-1.91,48.231-57.782,50.619-66.139s-6.924-27.697-17.43-29.369
					C216.718,304.562,123.659,307.617,107.609,308.157z"/>
				<path style="fill:none;stroke:#FFFFFF;stroke-linecap:round;stroke-linejoin:round;stroke-miterlimit:10;" d="M172.829,399.686
					c13.753-11.868,27.221-24.152,40-37.066c4.032-4.075,8.001-8.224,11.745-12.568c4.066-4.717,9.35-9.483,10.686-15.831
					c1.277-6.065-1.413-13.181-5.956-17.28c-3.178-2.868-7.76-3.846-11.862-4.44c-21.375-3.093-44.536,1.251-65.624,4.332"/>
				<path style="fill:none;stroke:#FFFFFF;stroke-linecap:round;stroke-linejoin:round;stroke-miterlimit:10;" d="M136.537,363.632
					c0,0,33.666-33.428,67.094-37.487"/>
			</g>
			<g>
				<path style="fill:#9AD69C;" d="M163.925,310.756c-0.967,1.026-2.228,1.718-3.615,1.975
					c-11.469,2.127-62.906,10.617-64.603-7.836c-1.91-20.773,18.624-62.557,37.964-71.153c19.34-8.596,40.113-8.118,53.245,11.938
					s24.77,47.561,21.728,56.349c-2.149,6.208-10.562,15.056-31.279,3.104C172.665,302.421,166.595,307.924,163.925,310.756z"/>
				<path style="fill:none;stroke:#000000;stroke-linecap:round;stroke-linejoin:round;stroke-miterlimit:10;" d="M168.412,298.448
					c0,0-21.728-23.161-56.349-7.163"/>
				<path style="fill:none;stroke:#000000;stroke-linecap:round;stroke-linejoin:round;stroke-miterlimit:10;" d="M128.06,286.032
					c0,0,9.312-10.267,13.61-25.548"/>
				<path style="fill:none;stroke:#000000;stroke-linecap:round;stroke-linejoin:round;stroke-miterlimit:10;" d="M180.589,246.396
					c0,0,12.655,20.295,1.671,57.066"/>
			</g>
			<g>
				<path style="fill:#8FEAFF;" d="M194.991,308.447c-5.117-1.033-5.217-8.275-3.774-15.841c0.065-0.339,0.309-0.589,0.624-0.642
					l6.668-1.121c0.875-0.147,0.84-1.513-0.045-1.788l-5.086-1.578c-0.487-0.151-0.79-0.719-0.65-1.221
					c1.476-5.266,3.248-9.833,4.005-11.469c3.718-8.029,10.969-21.241,20.512-21.665c0.826-0.037,1.564,0.047,2.226,0.23
					c0.588,0.163,0.876,0.925,0.564,1.444c-3.821,6.355-5.542,11.187-5.542,11.187l6.776-10.496c0.31-0.481,0.98-0.446,1.352,0.053
					c1.082,1.453,1.676,3.423,1.943,5.534c0.42,3.321,0.04,6.979-0.483,9.474c-1.694,8.078-5.269,15.339-9.803,21.704
					c-2.833,3.977-6.123,7.692-9.622,10.966C202.387,305.343,198.436,309.142,194.991,308.447z"/>
				<path style="fill:none;stroke:#000000;stroke-linecap:round;stroke-linejoin:round;stroke-miterlimit:10;" d="M186.577,315.125
					c13.25-11.797,20.298-28.515,26.533-44.719"/>
				<g>
					<path style="fill:#F2B3BF;" d="M164.368,311.275c-1.679-0.592-2.698-2.276-2.563-4.051c0.242-3.174,1.464-7.6,6.183-9.131
						c7.662-2.484,25.342,8.145,24.376,19.531c-0.966,11.385-5.279,13.758-14.761,3.469
						C171.685,314.67,167.031,312.214,164.368,311.275z"/>
					<path style="fill:none;stroke:#000000;stroke-linecap:round;stroke-linejoin:round;stroke-miterlimit:10;" d="M180.413,315.596
						c0,0,7.117,3.548,9.405,11.463"/>
					<path style="fill:none;stroke:#000000;stroke-linecap:round;stroke-linejoin:round;stroke-miterlimit:10;" d="M181.938,313.413
						c0,0,7.117,3.548,9.405,11.463"/>
					<path style="fill:none;stroke:#000000;stroke-linecap:round;stroke-linejoin:round;stroke-miterlimit:10;" d="M183.316,310.138
						c0,0,6.848,2.835,9.049,9.16"/>
				</g>
			</g>
			<g>
				<path d="M195.99,167.841c-3.98-10.265-32.219-23.831-51.664-13.622c-1.789-3.202-6.875-9.892-18.295-10.255
					c-15.042-0.478-22.922,14.804-16.236,31.756c6.686,16.953-8.596,15.759-5.014,28.413c3.581,12.655,8.596,5.014,11.222,15.52
					c2.626,10.506,19.579,6.924,19.34,0.239c-0.239-6.686-3.581-2.149-6.924-5.253c-3.262-3.029-3.782-8.325,0.186-11.686
					c2.547,4.7,6.324,8.413,11.036,10.492c16.236,7.163,16.475,0.955,16.475,0.955l33.905-30.085
					C190.021,184.316,200.527,179.541,195.99,167.841z"/>
				<path style="fill:#F2B3BF;" d="M181.392,173.662c-4.999,2.671-10.097,2.127-12.877,1.493c-1.159-0.264-2.331,0.355-2.793,1.449
					c-3.999,9.477-19.29,11.537-21.126,11.751c-0.104,0.012-0.202,0.018-0.306,0.017c-1.223-0.015-10.933,0.167-8.47,9.792
					c1.84,7.192,7.195,7.237,10.237,6.619c1.166-0.237,2.305,0.427,2.757,1.527c0.006,0.014,0.012,0.028,0.018,0.042l-0.118-0.07
					c0,0,4.706,13.893-2.598,24.313c-0.458,0.654-0.598,1.474-0.315,2.22c1.499,3.96,6.945,15.954,16.762,12.148
					c10.868-4.214,6.902-11.931,6.283-13.007c-0.059-0.102-0.11-0.201-0.155-0.309c-0.362-0.887-1.702-4.815,1.38-8.128
					c0.517-0.556,1.282-0.8,2.039-0.74c3.547,0.285,6.612-0.265,8.838-0.977c5.969-1.91,12.177-8.357,13.371-18.624
					c1.407-12.1-6.526-24.29-9.83-28.769C183.774,173.44,182.455,173.094,181.392,173.662z"/>
				<path style="fill:none;stroke:#000000;stroke-linecap:round;stroke-linejoin:round;stroke-miterlimit:10;" d="M143.819,191.837
					c0,0-5.492-0.955-5.73,3.582c-0.239,4.537,4.775,8.357,7.879,5.253"/>
				<path style="fill:#D98494;" d="M168.77,200.553c0,2.835-2.298,5.133-5.133,5.133c-2.835,0-5.134-2.298-5.134-5.133
					c0-2.835,2.298-5.133,5.134-5.133C166.472,195.419,168.77,197.717,168.77,200.553z"/>
				<path style="fill:#D98494;" d="M193.244,195.419c0,1.978-1.603,3.581-3.581,3.581c-1.978,0-3.582-1.604-3.582-3.581
					c0-1.978,1.604-3.582,3.582-3.582C191.641,191.837,193.244,193.441,193.244,195.419z"/>
				<path d="M168.806,191.906c0.26,1.333-0.127,2.53-0.865,2.674c-0.737,0.144-1.546-0.82-1.806-2.153
					c-0.26-1.333,0.127-2.53,0.865-2.674C167.738,189.609,168.546,190.573,168.806,191.906z"/>
				<path d="M184.638,189.7c0.255,1.306-0.125,2.479-0.847,2.62c-0.723,0.141-1.515-0.804-1.77-2.11
					c-0.255-1.306,0.125-2.479,0.848-2.62C183.591,187.449,184.384,188.394,184.638,189.7z"/>
				<path d="M167.399,182.04c-3.675-0.035-5.573,2.092-6.51,3.83c-0.382,0.71,0.424,1.47,1.119,1.063l5.797-3.393
					C168.51,183.128,168.215,182.048,167.399,182.04z"/>
				<path d="M186.699,181.884c-2.435-2.51-5.299-1.855-7.051-1.053c-0.592,0.271-0.57,1.113,0.033,1.203l6.39,0.959
					C186.677,183.084,187.111,182.309,186.699,181.884z"/>
				<path style="fill:none;stroke:#000000;stroke-linecap:round;stroke-linejoin:round;stroke-miterlimit:10;" d="M179.396,192.057
					c1.73-0.216,4.268-0.301,5.694,0.752c2.922,2.156-1.444,6.197-3.565,7.625"/>
				<path style="fill:none;stroke:#000000;stroke-linecap:round;stroke-linejoin:round;stroke-miterlimit:10;" d="M173.277,204.224
					c0,0,7.277,2.569,11.149-1.843"/>
				<path style="fill:none;stroke:#000000;stroke-linecap:round;stroke-linejoin:round;stroke-miterlimit:10;" d="M158.846,216.571
					c0,0,9.033,9.468,22.102,5.232"/>
			</g>
		</g>
		<g>
			<path style="fill:#5D369F;" d="M343.811,384.606l-15.94-86.257v-15.653h-91.308v15.653l-18.151,86.217
				c-0.068,0.174-0.111,0.349-0.111,0.525c0,5.043,28.116,9.131,62.799,9.131c34.683,0,62.8-4.088,62.8-9.131
				C343.9,384.928,343.869,384.766,343.811,384.606z"/>
			<ellipse cx="282.217" cy="282.696" rx="45.654" ry="9.131"/>
			<path d="M331.06,377.261l-12.53-57.543c-0.144-0.662-0.217-1.337-0.217-2.014v-0.138c0-5.228-4.238-9.466-9.466-9.466h-54.084
				c-5.228,0-9.466,4.238-9.466,9.466l0,0c0,0.768-0.093,1.534-0.278,2.279l-14.237,57.388c-0.054,0.118-0.088,0.237-0.088,0.356
				c0,3.422,22.484,6.196,50.219,6.196c27.735,0,50.219-2.774,50.219-6.196C331.132,377.479,331.106,377.37,331.06,377.261z"/>
			<path style="fill:none;stroke:#FFFFFF;stroke-linecap:round;stroke-linejoin:round;stroke-miterlimit:10;" d="M236.703,297.21
				c12.323,10.608,40.404,9.861,59.837,8.265"/>
		</g>
		<g>
			<path style="fill:#E26482;" d="M371.261,338.183c-3.221-2.76-9.648-2.992-13.383-3.56c-4.707-0.715-9.483-0.948-14.239-0.715
				c-4.979,0.243-10.014,0.762-14.888,1.819c-2.408,0.522-5.357,1.093-7.367,2.625c-2.431,1.853-1.691,5.003-1.698,7.794
				c-0.002,0.919-0.608,1.714-1.479,2.005c-5.631,1.884-9.688,7.192-9.688,13.452c0,7.837,6.354,14.2,14.214,14.2
				c0.852-0.001,1.643,0.468,1.975,1.253c4.092,9.691,11.393,17.013,24.284,15.656c18.322-1.929,24.915-18.998,25.535-35.28
				c0.147-3.855,0.018-7.721-0.327-11.563c-0.197-2.192-0.628-4.806-2.009-6.692C371.924,338.814,371.612,338.483,371.261,338.183z
				 M313.089,361.476c0-3.057,1.359-5.793,3.504-7.646c1.281-1.106,3.293-0.23,3.421,1.457c0.313,4.119,0.892,8.595,1.909,12.975
				c0.389,1.675-1.272,3.146-2.841,2.444C315.551,369.13,313.089,365.593,313.089,361.476z"/>
			<path style="fill:#AA3154;" d="M369.497,340.532c0,2.465-10.405,4.463-23.239,4.463c-12.835,0-23.239-1.998-23.239-4.463
				s10.405-4.463,23.239-4.463C359.092,336.069,369.497,338.067,369.497,340.532z"/>
		</g>
		<g>
			<g>
				<path d="M269.24,275.954c-2.518,0.949-4.954,1.307-7.311,1.075c-2.358-0.231-4.439-0.984-6.241-2.26
					c-1.804-1.273-3.103-2.969-3.9-5.082c-1.006-2.668-1.111-5.042-0.315-7.125c0.796-2.08,2.663-4.065,5.602-5.949
					c2.94-1.885,7.178-3.87,12.714-5.958l2.416-0.911l-0.882-2.34c-1.178-3.121-2.668-5.13-4.474-6.031
					c-1.806-0.9-4.117-0.819-6.935,0.244c-1.762,0.664-3.451,1.56-5.066,2.686c-1.616,1.127-3.19,2.554-4.723,4.281
					c-0.686,0.777-1.37,1.135-2.052,1.076c-0.684-0.058-1.256-0.359-1.72-0.904c-0.464-0.542-0.71-1.197-0.74-1.962
					c-0.029-0.765,0.267-1.465,0.888-2.102c1.747-1.923,3.62-3.55,5.62-4.878c1.999-1.328,3.98-2.363,5.943-3.103
					c4.73-1.784,8.677-1.95,11.84-0.499c3.163,1.452,5.665,4.619,7.505,9.501l7.714,20.457c0.798,2.114,0.265,3.523-1.597,4.224
					c-1.963,0.74-3.343,0.054-4.141-2.061l-1.395-3.699c-0.141,2.526-0.967,4.792-2.48,6.799
					C273.996,273.44,271.907,274.948,269.24,275.954z M268.485,270.978c3.02-1.139,5.091-3.112,6.217-5.923
					c1.124-2.809,1.08-5.824-0.135-9.045l-0.853-2.266l-2.341,0.882c-4.076,1.537-7.214,2.937-9.411,4.197
					c-2.198,1.259-3.588,2.53-4.167,3.812c-0.58,1.284-0.566,2.729,0.041,4.34c0.778,2.064,2.131,3.48,4.059,4.246
					C263.822,271.99,266.018,271.908,268.485,270.978z"/>
			</g>
			<g style="opacity:0.62;">
				<path d="M284.183,232.779c-0.557-0.155-0.906-0.516-1.049-1.08c-0.142-0.564,0.142-1.092,0.849-1.585l8.957-6.448l-4.029-9.404
					c-0.35-0.788-0.318-1.386,0.096-1.795c0.415-0.409,0.9-0.536,1.456-0.38c0.445,0.124,0.785,0.302,1.022,0.532
					c0.234,0.231,0.432,0.549,0.589,0.952l3.481,8.306l7.325-5.284c0.343-0.264,0.676-0.433,0.997-0.509
					c0.32-0.075,0.689-0.054,1.107,0.063c0.584,0.163,0.939,0.525,1.067,1.086c0.128,0.561-0.165,1.101-0.88,1.621l-8.31,5.908
					l4.353,10.17c0.322,0.781,0.275,1.374-0.138,1.783c-0.416,0.409-0.914,0.532-1.498,0.368c-0.751-0.21-1.288-0.704-1.61-1.484
					l-3.788-8.977l-7.853,5.722c-0.335,0.236-0.667,0.398-0.991,0.488C285.012,232.922,284.628,232.904,284.183,232.779z"/>
			</g>
			<g>
				<path d="M293.072,193.917c-1.436-0.519-1.891-1.51-1.361-2.976l9.022-24.997c0.529-1.466,1.497-1.944,2.904-1.436
					c1.438,0.519,1.892,1.51,1.362,2.976l-0.591,1.638c1.067-0.979,2.347-1.596,3.836-1.855c1.489-0.258,3.024-0.102,4.605,0.468
					c1.867,0.674,3.338,1.708,4.41,3.102c1.071,1.394,1.695,3.041,1.872,4.938c0.173,1.898-0.142,3.968-0.951,6.209
					c-0.809,2.241-1.891,4.043-3.241,5.406c-1.354,1.363-2.885,2.231-4.594,2.604c-1.711,0.374-3.5,0.224-5.367-0.451
					c-1.552-0.56-2.815-1.398-3.793-2.514c-0.978-1.116-1.57-2.376-1.776-3.783l-3.345,9.266
					C295.535,193.977,294.539,194.446,293.072,193.917z M305.114,185.792c1.809,0.653,3.487,0.527,5.031-0.376
					c1.545-0.904,2.757-2.578,3.639-5.02c0.882-2.442,1.015-4.497,0.398-6.165c-0.616-1.667-1.829-2.828-3.639-3.481
					c-1.81-0.653-3.485-0.534-5.023,0.355c-1.54,0.89-2.75,2.556-3.632,4.997c-0.882,2.442-1.017,4.505-0.405,6.187
					C302.094,183.971,303.304,185.139,305.114,185.792z"/>
			</g>
			<g style="opacity:0.62;">
				<path d="M272.525,170.631c-1.375,0-2.757-0.176-4.146-0.527c-1.391-0.351-2.681-0.923-3.872-1.718
					c-0.55-0.335-0.817-0.771-0.802-1.306c0.015-0.534,0.221-0.955,0.618-1.26c0.396-0.305,0.9-0.305,1.513,0
					c1.19,0.733,2.344,1.245,3.459,1.535c1.114,0.29,2.223,0.435,3.322,0.435c1.741,0,3.054-0.32,3.94-0.962
					c0.886-0.642,1.329-1.512,1.329-2.612c0-0.855-0.291-1.535-0.871-2.039c-0.581-0.504-1.497-0.894-2.749-1.169l-4.17-0.917
					c-3.788-0.825-5.682-2.779-5.682-5.865c0-2.016,0.802-3.635,2.405-4.857c1.603-1.222,3.704-1.833,6.301-1.833
					c1.313,0,2.581,0.176,3.803,0.527c1.222,0.352,2.321,0.909,3.299,1.672c0.52,0.367,0.749,0.81,0.688,1.329
					c-0.062,0.52-0.298,0.924-0.71,1.214c-0.412,0.291-0.909,0.252-1.489-0.114c-0.916-0.611-1.849-1.061-2.795-1.351
					c-0.947-0.29-1.879-0.436-2.795-0.436c-1.711,0-3.01,0.337-3.895,1.008c-0.887,0.672-1.329,1.558-1.329,2.657
					c0,1.711,1.13,2.811,3.391,3.299l4.17,0.871c1.954,0.428,3.436,1.107,4.444,2.039c1.008,0.932,1.512,2.192,1.512,3.78
					c0,2.047-0.81,3.658-2.428,4.834C277.366,170.043,275.213,170.631,272.525,170.631z"/>
			</g>
			<g style="opacity:0.62;">
				<path d="M247.89,143.334c-1.345,0-2.383-0.367-3.116-1.1c-0.733-0.733-1.1-1.787-1.1-3.162v-21.581h-7.194
					c-2.322,0-3.482-1.146-3.482-3.437c0-2.292,1.161-3.437,3.482-3.437h22.819c2.32,0,3.482,1.146,3.482,3.437
					c0,2.291-1.162,3.437-3.482,3.437h-7.194v21.581c0,1.375-0.359,2.429-1.077,3.162
					C250.311,142.967,249.265,143.334,247.89,143.334z"/>
			</g>
			<g style="opacity:0.62;">
				<path d="M260.085,219.605c-1.754,0.884-3.072,0.448-3.956-1.307l-11.088-22.017c-0.883-1.755-0.448-3.073,1.306-3.957
					l13.814-6.956c1.341-0.675,2.338-0.368,2.986,0.921c0.677,1.342,0.343,2.35-0.998,3.025l-11.686,5.885l3.78,7.508l10.835-5.456
					c1.341-0.675,2.343-0.356,3.006,0.96c0.662,1.315,0.322,2.311-1.019,2.986l-10.835,5.456l3.995,7.933l11.687-5.885
					c1.341-0.675,2.343-0.355,3.006,0.96c0.662,1.315,0.322,2.312-1.019,2.987L260.085,219.605z"/>
			</g>
			<g>
				<path d="M291.316,133.143c-0.31,0-0.551-0.077-0.722-0.233c-0.171-0.155-0.256-0.373-0.256-0.652
					c0-0.59,0.326-0.885,0.979-0.885s0.979,0.295,0.979,0.885S291.969,133.143,291.316,133.143z M291.316,142.512
					c-0.517,0-0.776-0.285-0.776-0.854v-6.059c0-0.559,0.259-0.839,0.776-0.839c0.529,0,0.792,0.28,0.792,0.839v6.059
					C292.109,142.228,291.845,142.512,291.316,142.512z"/>
			</g>
			<g>
				<path d="M302.323,253.135c-0.269-0.152-0.437-0.344-0.501-0.577c-0.065-0.232-0.021-0.483,0.13-0.751
					c0.319-0.566,0.762-0.689,1.328-0.369c0.567,0.32,0.69,0.762,0.371,1.328C303.332,253.331,302.889,253.454,302.323,253.135z
					 M297.261,262.11c-0.449-0.253-0.52-0.653-0.213-1.199l3.274-5.805c0.302-0.536,0.678-0.677,1.128-0.424
					c0.459,0.259,0.537,0.656,0.235,1.192l-3.274,5.805C298.103,262.226,297.72,262.369,297.261,262.11z"/>
			</g>
			<g>
				<path d="M230.68,193.227c-0.549-0.31-1.065-0.392-1.547-0.246c-0.481,0.146-0.883,0.505-1.205,1.076
					c-0.68,1.205-0.441,2.133,0.714,2.784c1.155,0.652,2.072,0.375,2.752-0.83C232.074,194.806,231.835,193.878,230.68,193.227z
					 M241.462,174.109c-0.916-0.517-1.702-0.195-2.358,0.968l-6.973,12.365c-0.644,1.141-0.507,1.971,0.409,2.488
					c0.936,0.528,1.725,0.22,2.369-0.921l6.973-12.365C242.537,175.481,242.397,174.637,241.462,174.109z"/>
			</g>
			<path style="fill:#222221;" d="M233.5,151.905c0,1.832-1.486,3.318-3.318,3.318c-1.832,0-3.318-1.486-3.318-3.318
				c0-1.833,1.486-3.318,3.318-3.318C232.015,148.587,233.5,150.073,233.5,151.905z"/>
			<path style="fill:#222221;" d="M286.588,106.781c0,1.832-1.485,3.318-3.318,3.318c-1.832,0-3.318-1.486-3.318-3.318
				c0-1.832,1.486-3.318,3.318-3.318C285.102,103.463,286.588,104.948,286.588,106.781z"/>
			<circle style="fill:#222221;" cx="246.993" cy="226.67" r="3.318"/>
			<path style="fill:#222221;" d="M229.116,94.182c0,3.257-2.641,5.898-5.898,5.898c-3.257,0-5.898-2.641-5.898-5.898
				c0-3.257,2.641-5.898,5.898-5.898C226.475,88.284,229.116,90.925,229.116,94.182z"/>
			<path style="fill:#222221;" d="M255.566,79.468c0,1.055-0.856,1.911-1.911,1.911c-1.055,0-1.911-0.856-1.911-1.911
				c0-1.055,0.856-1.911,1.911-1.911C254.71,77.557,255.566,78.412,255.566,79.468z"/>
		</g>
	</g>
</g>
</svg>
