<svg width="485" height="429" viewBox="0 0 485 429" fill="none" xmlns="http://www.w3.org/2000/svg">
<path fill-rule="evenodd" clip-rule="evenodd" d="M374.939 274.728C330.744 273.91 311.339 273.559 248.763 273.85C248.484 274.229 248.193 274.56 247.913 274.877C247.604 275.23 247.305 275.566 247.055 275.938C247.895 275.955 249.644 275.95 252.689 275.943C264.518 275.909 295.911 275.825 369.456 276.744C369.999 276.663 370.492 276.583 370.924 276.507C373.167 276.101 374.311 275.791 374.939 274.728ZM418.01 278.453C418.082 277.759 418.148 277.075 418.214 276.411C447.629 279.38 457.853 286.86 469.551 297.627C474.11 301.959 477.694 307.112 480.091 312.774C482.152 317.432 484.38 324.392 484.771 339.992C484.794 340.854 484.814 341.704 484.837 342.539C485.097 352.204 485.309 360.124 483.282 368.119C479.898 381.353 469.5 391.577 454.115 397.798C453.587 398.011 453.618 400.898 453.666 405.389C453.725 410.882 453.809 418.776 452.926 427.119C452.836 427.976 451.739 428.441 451.484 427.69C450.718 425.525 450.843 408.015 450.889 401.671C450.899 399.994 450.907 399.098 450.889 399.473C450.914 398.904 450.718 398.947 448.548 399.429C447.721 399.612 446.61 399.859 445.117 400.159C426.924 403.814 361.55 402.926 307.952 402.197C282.07 401.844 258.935 401.53 245.186 401.782C231.522 402.033 214.891 402.11 201.237 401.676C200.982 400.841 200.673 400.02 200.31 399.221C218.417 399.374 232.323 399.3 246.032 399.228C266.974 399.12 287.459 399.012 321.767 399.715C344.667 400.173 357.826 400.399 385.119 400.195C387.087 400.181 389.413 400.183 392.009 400.186C407.557 400.205 432.778 400.233 448.288 396.595C460.295 393.765 475.708 383.349 480.342 368.755C483.236 359.637 482.925 350.43 482.565 339.736C482.529 338.725 482.496 337.705 482.463 336.669C482.376 333.856 481.825 333.716 481.61 335.797C481.281 342.721 479.167 349.465 475.451 355.451C461.332 377.865 434.279 378.23 406.786 378.6C406.434 378.604 406.079 378.609 405.724 378.614C365.196 379.166 205.857 377.248 192.474 376.843C192.257 376.154 191.907 374.935 191.723 374.234C193.881 374.234 202.464 374.344 215.373 374.512C252.148 374.988 324.026 375.919 382.441 376C386.475 376.005 390.523 376.055 394.559 376.103C429.776 376.533 463.938 376.951 476.089 348.229C479.857 339.018 480.806 329 478.828 319.309C477.01 310.777 472.926 303.207 462.121 294.178C454.087 287.244 444.109 282.624 433.367 280.86C428.282 279.862 423.159 279.058 418.01 278.453Z" fill="black"/>
<path d="M360.33 318.373C360.297 319.909 358.033 320.948 357.303 319.297C357.175 318.815 357.252 318.303 357.517 317.871C357.785 317.442 358.217 317.125 358.727 316.988C358.936 316.945 359.153 316.947 359.36 317C359.567 317.051 359.756 317.149 359.914 317.286C360.072 317.423 360.192 317.593 360.264 317.78C360.335 317.97 360.358 318.174 360.33 318.373Z" fill="black"/>
<path fill-rule="evenodd" clip-rule="evenodd" d="M286.144 300.524C282.346 298.052 279.711 296.329 279.637 296.259C279.729 296.187 281.439 295.472 283.849 294.467C290.037 291.884 300.825 287.382 300.597 286.899C300.258 286.179 284.911 292.131 279.155 294.766C277.291 295.618 277.003 296.017 278.9 297.447C279.14 297.63 281.529 299.192 284.977 301.434C285.365 301.071 285.764 300.781 286.144 300.524ZM306.167 313.53C306.165 313.552 306.162 313.576 306.16 313.597C306.111 314.029 306.052 314.541 305.991 315.028C311.053 318.294 314.877 320.754 315.171 320.934C316.876 321.978 317.425 322.026 318.584 321.582C327.14 318.306 334.594 316.009 339.789 314.411C344.544 312.947 347.403 312.066 347.472 311.552C347.475 311.54 347.475 311.528 347.477 311.516C347.564 310.792 347.569 310.748 327.342 298.842C305.971 286.261 305.692 286.601 305.348 287.322C304.651 288.742 345.734 311.322 345.785 311.348C345.438 311.564 345.33 311.591 344.197 311.862C342.962 312.157 340.503 312.748 335.178 314.195C334.99 314.245 334.859 314.293 334.727 314.3C334.14 314.332 333.504 313.6 327.62 309.042C327.365 308.845 327.477 308.79 328.123 308.471C328.327 308.372 328.582 308.245 328.896 308.082C329.312 307.861 329.657 307.684 329.94 307.535C331.252 306.851 331.298 306.827 331.194 306.572C331.064 306.251 330.862 306.376 330.67 306.491C330.599 306.534 330.53 306.577 330.466 306.596C328.077 307.309 327.194 307.813 326.339 307.772C325.179 307.712 324.079 306.647 319.352 303.716C318.946 303.498 318.527 303.299 318.096 303.126C317.703 302.939 317.483 303.179 317.276 303.407C317.261 303.421 317.248 303.436 317.236 303.45C316.848 303.868 317.376 304.158 318.287 304.657C318.611 304.837 318.987 305.043 319.387 305.293C320.255 305.833 320.983 306.282 321.59 306.656C324.399 308.382 324.626 308.521 323.934 308.814C317.966 311.312 317.238 311.785 316.712 311.634C316.595 311.6 316.488 311.536 316.335 311.454C316.135 311.351 315.949 311.252 315.775 311.161C313.953 310.206 313.504 309.971 313.016 310.031C312.906 310.048 312.804 310.093 312.72 310.16C312.636 310.228 312.572 310.316 312.539 310.415C312.503 310.513 312.498 310.621 312.523 310.722C312.549 310.823 312.605 310.916 312.682 310.991C312.738 311.068 313.019 311.224 313.358 311.411C313.7 311.6 314.103 311.824 314.394 312.033C315.227 312.633 315.102 312.7 314.617 312.956C314.305 313.124 313.846 313.369 313.396 313.885C313.333 313.981 313.299 314.092 313.302 314.204C313.304 314.32 313.34 314.43 313.409 314.524C313.476 314.617 313.573 314.689 313.682 314.732C313.795 314.776 313.917 314.788 314.035 314.768C314.859 314.54 315.423 314.322 315.85 314.156C316.661 313.84 316.975 313.717 317.624 314.108C319.707 315.366 321.059 316.165 321.933 316.681C323.406 317.552 323.515 317.617 323.472 317.709C323.38 317.92 323.334 317.939 322.415 318.294C321.603 318.608 320.11 319.185 317.299 320.394C316.975 320.536 315.929 319.914 314.905 319.223C314.223 318.765 310.719 316.487 306.167 313.53ZM325.088 317.113C325.471 317.257 326.104 316.816 332.958 314.821C333.06 314.775 333.162 314.718 333.249 314.648C330.895 312.877 328.445 311.224 325.907 309.692C323.564 310.516 321.297 311.516 319.127 312.688C318.627 312.92 318.811 313.038 321.049 314.483C321.963 315.071 323.217 315.88 324.904 317.008C324.973 317.053 325.027 317.089 325.088 317.113Z" fill="black"/>
<path fill-rule="evenodd" clip-rule="evenodd" d="M303.398 320.85C303.786 321.119 304.166 321.383 304.541 321.639C310.18 325.53 314.239 328.331 314.553 328.554C314.923 328.821 315.171 329 315.451 329.072C316.73 329.401 318.678 327.428 336.064 320.691C342.819 318.075 349.762 315.87 354.421 314.389C357.497 313.412 359.577 312.752 359.947 312.498C359.562 312.294 357.514 311.142 355.094 309.779C352.034 308.055 348.384 305.998 346.768 305.115C336.922 299.73 331.671 297.013 326.459 294.315C320.799 291.387 315.186 288.483 303.793 282.214C302.093 281.278 269.853 292.51 266.43 295.229C266.92 295.63 273.177 299.974 281.026 305.406C280.449 305.847 279.844 306.258 279.214 306.63C272.339 301.741 266.677 297.567 264.985 295.937C264.275 295.253 264.176 294.296 267.385 292.645C278.624 287.235 290.504 283.085 302.775 280.287C302.974 280.251 303.135 280.215 303.298 280.198C304.495 280.073 305.812 280.968 323.385 289.87C337.083 296.653 350.374 304.133 363.207 312.274C366.117 314.18 365.165 319.319 362.763 321.906C361.788 323.003 360.458 323.764 358.975 324.076C357.491 324.385 355.942 324.227 354.566 323.624C352.312 322.564 350.135 321.368 348.046 320.041C346.997 319.343 340.297 321.98 333.129 324.798C327.087 327.176 320.713 329.684 317.113 330.433C316.439 330.661 315.72 330.743 315.007 330.671C314.292 330.599 313.608 330.376 313.001 330.018C312.807 329.903 308.092 326.706 301.675 322.295C301.726 322.292 301.777 322.295 301.833 322.302C302.407 321.872 302.931 321.385 303.398 320.85ZM358.671 314.845C353.629 315.872 353.961 323.058 358.224 322.271C363.597 321.272 364.432 313.669 358.671 314.845Z" fill="black"/>
<path fill-rule="evenodd" clip-rule="evenodd" d="M336.184 275.309C333.287 250.435 324.649 228.132 309.338 211.29L309.031 211.534C308.649 211.84 308.271 212.14 307.929 212.433L307.781 212.241C305.866 213.534 304.434 214.496 303.364 215.216C300.452 217.17 300.207 217.336 300.212 217.494L300.22 217.538C300.268 217.823 301.077 218.126 302.129 218.5C304.227 219.247 307.29 220.336 307.158 222.434C307.16 223.36 306.862 224.265 306.303 225.031C305.746 225.794 304.952 226.379 304.031 226.708C304.623 227.515 305.001 228.444 305.133 229.416C305.266 230.385 305.151 231.374 304.796 232.296C303.594 234.794 300.212 235.61 297.812 236.03C297.805 236.541 297.682 237.045 297.452 237.508C297.225 237.972 296.896 238.385 296.488 238.723C294.609 240.513 290.874 242.565 279.311 242.268C278.884 242.258 278.471 242.395 278.147 242.654C276.344 244.13 274.718 245.784 273.296 247.591C268.441 253.558 259.956 263.916 251.014 274.56C294.765 275.268 333.808 275.705 336.184 275.309ZM302.333 206.855C302.984 206.614 303.643 206.39 304.306 206.181C293.455 196.014 279.752 188.277 262.943 183.762L262.91 183.753C262.481 183.638 262.276 183.583 262.031 181.982C261.853 180.799 261.712 179.951 261.613 179.344C261.368 177.858 261.36 177.808 261.59 177.798C262.356 177.765 264.704 177.633 265.327 177.57C278.073 176.293 287.186 162.98 290.313 150.188C290.675 148.708 290.843 147.711 290.956 147.034C291.094 146.228 291.153 145.875 291.372 145.703C291.541 145.569 291.809 145.544 292.281 145.499L292.306 145.496C293.782 145.482 295.254 145.338 296.702 145.067C297.386 144.839 297.417 143.939 297.452 142.83L297.458 142.735C297.46 142.633 297.463 142.531 297.468 142.426C297.521 139.011 297.373 135.595 297.023 132.195C296.967 131.888 296.804 131.606 296.562 131.393C296.319 131.179 296.01 131.046 295.681 131.012C294.164 130.908 293.213 130.949 292.602 130.975C291.581 131.019 291.512 131.022 291.341 130.234C290.823 125.847 289.457 121.586 287.313 117.658C287.099 117.334 287.701 116.796 288.48 116.098C290.185 114.568 292.75 112.269 289.475 109.772C288.947 109.368 289.051 109.279 289.544 108.865C290.101 108.397 291.153 107.513 292.339 105.288C295.048 100.212 291.277 93.6384 281.394 93.7825C280.584 93.7946 280.066 93.8492 279.693 93.8888C279.249 93.9358 279.009 93.9614 278.721 93.869C278.427 93.7755 278.167 93.3632 277.761 92.7146C277.184 91.7956 276.309 90.402 274.611 88.7688L274.573 88.7325C274.363 88.5315 274.226 88.3977 274.198 88.246C274.141 87.9457 274.519 87.5739 275.642 86.466C276.523 85.5984 277.861 84.2795 279.808 82.1903C285.738 75.823 284.275 66.7868 275.663 68.1958C275.448 68.2304 275.254 68.263 275.078 68.2923C274.136 68.4496 273.743 68.5152 273.662 68.3944C273.603 68.3079 273.705 68.1257 273.878 67.8128C274.32 67.0223 275.229 65.3974 275.193 62.3755C275.152 58.6723 271.704 55.4489 265.7 57.2683C263.844 57.9483 262.052 58.7712 260.339 59.7284C260.804 57.0689 260.316 54.3397 258.953 51.9689C254.984 45.8392 247.961 46.2808 242.389 49.5042C237.175 52.521 236.483 55.603 236.166 57.011C235.982 57.8308 235.925 58.083 235.178 57.4242C226.259 49.6073 213.35 52.3409 211.782 62.4283C211.387 64.9651 211.76 66.7431 212.041 68.0848C212.223 68.9528 212.366 69.638 212.239 70.2285C211.701 70.0193 211.083 69.7275 210.402 69.4058C207.022 67.8096 202.062 65.4672 197.37 68.743C191.034 73.1641 199.521 81.1245 201.561 83.0381C201.804 83.2652 201.955 83.4073 201.98 83.448C201.916 83.4578 201.733 83.4415 201.453 83.4166C199.684 83.2605 194.053 82.7629 190.312 86.3569C186.483 90.0481 188.482 98.6402 201.237 104.321C201.62 104.491 201.528 104.539 200.996 104.815C200.411 105.118 199.295 105.697 197.694 107.016C192.293 111.473 197.375 124.085 211.721 122.617C211.812 122.607 211.924 122.591 212.045 122.573C212.549 122.5 213.213 122.404 213.23 122.689C213.577 128.89 215.256 137.223 219.984 140.233C220.313 140.442 220.227 140.631 220.032 141.061C219.904 141.344 219.727 141.734 219.591 142.304C218.212 148.091 221.728 154.204 228.03 153.937C228.646 153.911 229.148 153.798 229.532 153.712C230.376 153.524 230.654 153.461 230.328 154.715C227.809 163.393 225.95 172.228 224.765 181.154C223.099 181.711 221.349 182.016 219.581 182.058C176.815 187.401 155.384 203.786 144.085 223.084L144.172 223.144C144.663 223.483 145.027 223.749 145.302 223.948C145.886 224.375 146.066 224.507 146.196 224.402C153.474 230.04 177.752 250.843 180.548 254.714C183.68 254.001 193.29 257.323 195.629 261.391C201.558 257.39 220.129 248.849 236.966 241.104C252.977 233.735 267.423 227.092 267.928 225.765C271.716 215.817 286.167 198.815 290.507 202.415C292.301 203.905 291.089 209.097 288.061 212.896L288.462 213.196C292.945 210.817 297.575 208.699 302.333 206.855ZM202.056 240.18C202.544 247.264 202.871 252.017 204.168 253.121C205.906 251.234 204.594 224.448 201.574 215.469C200.966 213.65 199.052 213.479 199.532 216.383C201.049 225.563 201.618 233.812 202.056 240.18ZM291.686 134.557C291.607 133.768 291.568 133.4 291.747 133.217C291.903 133.057 292.224 133.038 292.825 133.004C293.113 132.987 293.468 132.967 293.899 132.925C295.089 132.81 295.176 133.052 295.252 134.091C295.487 136.802 295.576 139.521 295.52 142.24C295.52 143.512 295.448 143.557 294.918 143.559C294.096 143.566 293.452 143.6 292.96 143.626C291.941 143.679 291.561 143.699 291.576 143.387C291.806 140.748 291.87 138.098 291.768 135.452C291.739 135.105 291.709 134.809 291.686 134.557ZM289.304 143.111C289.411 142.321 289.626 137.775 289.537 136.081L289.531 135.975C289.396 133.441 289.391 133.343 288.641 133.359C286.578 133.425 285.018 133.456 283.839 133.479C281.212 133.53 280.487 133.544 280.327 133.834C280.265 133.945 280.288 134.095 280.316 134.303C280.801 137.51 281.046 140.762 281.041 144.001C281.08 144.701 281.266 144.683 286.958 144.142L288.444 144.001C288.996 143.948 289.197 143.9 289.304 143.111ZM287.39 123.495C287.52 123.874 287.134 123.964 286.445 124.123C285.388 124.368 283.619 124.778 281.917 126.651C280.046 128.708 282.001 130.319 283.002 128.936C284.184 127.551 285.794 126.545 287.609 126.056C287.946 125.932 288.135 126.023 288.191 126.27C288.281 126.661 289.026 130.244 289.026 130.511C289.093 131.012 289.046 131.082 284.278 131.207C278.588 131.357 278.535 132.447 278.425 134.811C278.415 135.02 278.404 135.238 278.389 135.467C275.653 134.849 274.476 135.396 273.894 135.667C273.695 135.76 273.562 135.821 273.462 135.791C273.276 135.735 273.197 135.362 272.965 134.289C272.924 134.102 272.88 133.893 272.829 133.662C272.623 132.726 272.365 132.438 271.428 132.441C261.092 132.488 252.063 134.231 246.751 135.257C243.481 135.889 241.619 136.248 241.73 135.772C244.05 132.174 245.023 127.949 244.49 123.771C244.416 122.341 244.112 121.373 243.925 120.768C243.698 120.04 243.634 119.837 244.326 119.987C248.709 120.896 253.294 120.172 257.12 117.968C259.533 116.533 260.901 115.572 261.72 114.996C262.476 114.464 262.769 114.261 262.976 114.318C263.106 114.353 263.206 114.486 263.364 114.701L263.377 114.718C265.904 117.724 269.521 119.75 273.534 120.41C277.549 121.07 281.682 120.318 285.143 118.297C285.268 118.235 285.371 118.184 285.45 118.197C285.646 118.23 285.771 118.623 286.218 119.998C286.476 120.794 286.843 121.921 287.39 123.495ZM271.242 134.064C271.145 133.937 270.792 133.983 269.531 134.145C268.699 134.252 267.471 134.411 265.661 134.605C263.045 134.886 260.949 135.101 259.272 135.274C253.796 135.836 252.75 135.943 252.556 136.384C252.51 136.487 252.51 136.609 252.513 136.761V136.794C253.115 141.513 253.049 144.276 253.01 145.864C252.975 147.421 252.964 147.847 253.638 147.877C256.311 147.999 271.737 145.724 271.691 144.954C271.479 141.474 271.298 137.838 271.277 134.353V134.293C271.28 134.189 271.28 134.113 271.242 134.064ZM261.434 199.936C258.596 227.426 233.666 219.911 226.871 188.365C226.217 185.326 228.625 173.028 230.482 163.542C231.574 157.964 232.476 153.359 232.454 152.178C232.428 150.831 231.553 151.006 230.274 151.261C229.786 151.358 229.239 151.467 228.658 151.508C223.297 151.89 220.489 146.406 222.506 141.716C223.215 140.074 224.668 138.356 226.631 138.745C229.242 139.247 229.913 140.229 230.83 141.572C231.044 141.886 231.273 142.221 231.542 142.573C232.308 143.576 232.819 143.785 241.066 142.383C249.345 140.977 249.86 143.037 250.562 145.834C250.685 146.326 250.815 146.842 250.994 147.366C251.969 150.225 255.211 149.866 258.662 149.483C258.904 149.456 259.147 149.429 259.389 149.403C263.116 149.102 266.802 148.454 270.394 147.466C270.647 147.397 270.877 147.336 271.083 147.281C272.12 147.005 272.607 146.875 272.868 146.572C273.1 146.303 273.156 145.899 273.261 145.135C273.274 145.042 273.286 144.943 273.302 144.838C273.457 143.731 273.401 143.039 273.358 142.532C273.279 141.541 273.253 141.253 274.981 139.949C275.298 139.736 275.665 139.597 276.053 139.544C276.439 139.491 276.834 139.526 277.205 139.646C277.572 139.766 277.907 139.967 278.177 140.233C278.445 140.498 278.644 140.821 278.754 141.173C278.94 141.931 279.05 142.608 279.145 143.204C279.576 145.879 279.745 146.922 285.422 146.334C286.18 146.255 286.78 146.176 287.25 146.114C288.564 145.94 288.863 145.901 288.789 146.396C286.82 159.613 277.008 175.11 262.71 175.218C255.606 175.273 251.303 171.82 246.407 167.706C245.962 167.334 245.13 167.816 245.319 168.311C246.578 170.777 248.599 172.828 251.121 174.193C254.754 176.504 256.714 176.857 257.848 177.061C258.325 177.147 258.657 177.207 258.904 177.375C259.463 177.755 259.596 178.691 260.033 181.739C260.089 182.125 260.148 182.545 260.214 183.001C261.347 188.579 261.756 194.266 261.434 199.936ZM215.427 122.724C216.522 132.833 219.938 137.936 221.352 138.565C222.375 137.587 223.674 136.904 225.097 136.599C225.822 111.192 248.135 98.7982 276.406 94.3918C275.3 92.4121 273.776 90.6663 271.926 89.2627C270.075 87.8591 267.938 86.8275 265.646 86.2317C260.472 85.0791 255.086 85.0489 249.896 86.1428C241.177 88.4187 233.224 92.7595 226.799 98.7503C220.619 104.887 214.531 114.473 215.427 122.724Z" fill="black"/>
<path d="M261.929 159.986C261.24 159.364 260.612 158.683 260.056 157.953C259.921 158.2 259.826 158.466 259.778 158.74C259.719 161.027 259.354 163.06 261.393 164.666C266.338 168.537 253.845 167.872 259.139 155.57C259.974 153.63 261.182 156.179 262.026 157.192C265.225 161.054 271.727 161.637 272.273 161.913C271.408 163.295 265.937 163.017 261.929 159.986Z" fill="black"/>
<path d="M281.73 149.752C281.439 150.702 280.906 151.571 280.181 152.287C279.453 153.002 278.555 153.542 277.559 153.86C276.418 154.489 275.15 154.89 273.838 155.039C273.674 155.071 273.508 155.095 273.342 155.111C272.263 155.039 273.439 153.69 274.075 153.27C275.277 152.476 278.111 151.086 278.785 150.63C280.806 149.243 279.055 149.111 276.561 145.94C275.949 145.074 275.382 144.178 274.866 143.257C274.593 142.706 274.512 142.088 274.632 141.491C274.634 141.361 274.685 141.235 274.772 141.135C274.861 141.034 274.981 140.964 275.117 140.935C275.252 140.906 275.392 140.92 275.517 140.975C275.642 141.03 275.744 141.123 275.808 141.239C279.683 147.937 281.812 148.115 281.73 149.752Z" fill="black"/>
<path d="M272.319 128.283C272.303 129.058 272.076 128.866 268.937 128.264C266.974 127.887 264.942 127.939 263.002 128.413C261.062 128.888 259.264 129.774 257.743 131.002C255.53 132.384 255.594 130.385 256.811 129.264C263.247 123.353 272.367 125.628 272.319 128.283Z" fill="black"/>
<path d="M263.323 141.313C263.443 138.339 265.804 137.831 266.31 139.376C266.524 139.858 266.631 140.376 266.624 140.898C266.614 141.42 266.491 141.935 266.259 142.41C265.96 142.928 265.636 143.37 264.906 143.322C263.688 143.248 263.607 142.412 263.323 141.313Z" fill="black"/>
<path d="M285.73 141.879C284.592 141.795 284.421 139.652 284.932 138.69C285.47 137.682 286.772 137.631 287.122 138.714C287.428 139.645 287.28 141.997 285.73 141.879Z" fill="black"/>
<path d="M301.833 322.302C302.471 321.824 303.048 321.275 303.551 320.67C304.73 319.309 305.524 317.691 305.861 315.966C306.047 314.785 306.233 312.798 306.29 312.548C307.086 308.979 305.728 307.323 307.298 306.351C308.332 305.713 311.77 303.315 311.413 301.762C310.07 295.937 297.317 301.938 295.888 301.952C296.051 301.232 297.44 300.642 299.972 297.152C300.342 296.645 300.503 296.029 300.419 295.419C300.334 294.809 300.013 294.25 299.517 293.849C296.863 292.285 291.321 296.624 288.301 298.738C287.791 299.804 286.32 300.106 284.814 301.59C284.814 301.712 284.612 301.911 284.099 302.35C282.678 304.179 280.875 305.715 278.8 306.867C276.931 308.307 274.774 309.378 272.456 310.014C260.714 310.609 224.765 307.386 222.197 307.134C234.182 295.333 262.578 260.762 273.296 247.591C274.718 245.784 276.344 244.13 278.147 242.654C278.471 242.395 278.884 242.258 279.311 242.268C290.874 242.565 294.609 240.513 296.487 238.723C297.253 238.087 297.733 237.201 297.828 236.244C297.815 235.98 297.761 236.045 298.039 236.004C301.636 235.387 303.911 234.153 304.797 232.303C305.151 231.381 305.266 230.392 305.133 229.423C305.001 228.451 304.623 227.522 304.031 226.715C304.952 226.387 305.746 225.801 306.303 225.038C306.861 224.272 307.16 223.367 307.158 222.441C307.357 219.297 300.365 218.416 300.222 217.562C300.176 217.29 300.031 217.487 307.781 212.248L307.928 212.44C310.101 210.592 313.562 208.437 312.013 206.44C311.436 205.798 310.652 205.35 309.782 205.162C308.911 204.974 308 205.056 307.183 205.396C305.534 205.788 303.916 206.278 302.333 206.862C297.575 208.707 292.944 210.824 288.462 213.203L288.061 212.903C291.089 209.104 292.301 203.912 290.507 202.422C288.551 200.799 284.505 203.142 278.8 209.212C274.17 214.113 270.486 219.736 267.91 225.83C261.712 231.009 207.284 253.534 195.628 261.398C193.364 257.458 183.82 253.977 180.547 254.721C177.446 250.423 151.832 228.775 146.196 224.409C146.004 224.565 145.706 224.207 144.171 223.151C137.333 218.442 142.443 222.803 138.479 211.775C135.347 203.072 133.147 203.464 133.803 201.764C139.651 186.644 139.467 186.644 141.083 181.657C141.708 179.737 168.052 197.041 169.339 172.105C169.715 166.299 169.339 160.472 168.218 154.752C169.088 154.176 169.923 153.552 170.839 153.034C178.725 148.628 172.333 143.763 167.266 132.953C162.283 122.323 161.757 118.281 158.977 113.033C158.546 112.216 158.467 111.988 158.931 111.813C161.739 110.404 164.126 108.357 165.877 105.859C166.87 104.649 167.584 103.258 167.974 101.775C168.363 100.291 168.418 98.7475 168.136 97.2427C167.22 93.1866 163.98 93.3906 160.167 93.1289C161.472 90.596 161.917 87.7474 161.443 84.9688C160.876 82.6984 158.977 80.2744 156.578 80.7136C152.011 81.5535 149.685 84.9088 144.205 89.7184C142.502 91.216 139.385 89.6849 136.559 88.8425C121.427 84.3255 96.5413 86.0153 81.9067 98.2242C58.8382 117.468 64.5333 153.747 88.7503 165.425C89.049 165.569 89.2099 165.749 88.9419 166.088C83.0504 173.528 88.5029 171.533 79.5608 171.005C77.8383 170.92 76.1181 171.206 74.5309 171.842C72.944 172.478 71.5326 173.446 70.4042 174.673C68.441 177.348 66.9459 180.301 65.9754 183.421C65.8452 184.263 31.5602 202.163 21.3675 260.441C17.5204 282.442 21.9646 269.751 12.2085 280.275C5.17076 287.868 -1.57594 302.998 0.325707 314.967C1.1173 318.783 3.2607 322.235 6.40627 324.757C9.32666 327.33 8.68849 346.369 8.26981 349.957C3.8818 387.513 6.02842 420.78 8.06294 426.135C8.54299 427.4 10.4293 427.536 10.6156 425.993C11.1543 421.38 5.69931 407.926 10.9041 354.712C13.2015 331.086 9.59465 327.215 10.8787 327.92C20.6093 333.272 31.1544 338.481 37.9367 346.991C54.1335 367.346 59.5504 432.963 68.1017 427.068C69.1408 426.348 67.4611 423.766 66.7591 421.918C55.951 393.487 52.847 354.815 37.3446 341.517C17.8931 324.832 3.16692 325.29 3.26144 311.533C3.37626 294.509 14.1687 281.225 18.2838 278.859C16.8875 289.673 21.3675 293.885 24.9206 296.379C38.3885 305.854 49.9726 309.819 61.0591 316.4C84.0612 330.08 84.6815 340.737 92.7989 380.018C95.9081 395.064 96.4467 399.938 101.629 410.911C103.094 414.015 109.269 427.321 112.756 427.09C115.237 426.924 112.457 425.7 104.692 409.903C99.8111 399.977 98.6369 391.879 96.347 381.074C86.453 334.386 88.3522 324.817 44.6861 304.362C38.9352 301.53 33.3527 298.405 27.9635 295.001C21.1045 290.859 21.1428 284.76 21.9646 277.088C23.4684 263.054 28.8571 238.022 37.4774 221.147C44.1878 207.065 54.5435 194.788 67.5989 185.437C69.4573 184.1 93.0033 200.245 95.0581 204.273C92.9164 204.992 86.0957 205.156 79.9105 209.243C78.943 209.884 78.2971 211.403 79.3745 211.29C86.989 210.536 125.126 176.617 177.755 307.573C178.081 308.389 177.471 308.199 175.766 308.533C167.342 310.15 169.458 311.931 170.247 311.922C176.066 310.952 181.938 310.295 187.835 309.946C188.524 309.91 188.57 309.894 188.69 310.561C190.536 320.931 185.354 342.582 183.309 352.917C181.841 360.338 182.171 360.474 181.42 360.556C162.117 362.627 151.738 360.117 138.474 354.011C105.894 339.011 58.7719 263.16 66.8331 226.855C67.2287 225.069 61.7685 224.812 63.9485 246.276C66.3661 270.036 85.2635 307.777 111.852 336.608C122.525 348.196 132.659 356.687 148.223 361.228C171.087 367.903 179.876 362.133 182.684 364.206C184.026 364.895 185.443 365.445 186.911 365.846C187.725 366.047 187.577 366.383 187.889 367.226C206.133 416.41 203.675 423.576 206.388 423.718C208.303 423.819 208.009 421.774 207.687 420.055C203.761 402.158 198.243 384.605 191.192 367.576C190.753 366.484 190.852 366.645 191.228 366.638C196.907 366.547 201.584 365.522 204.466 360.427C207.019 355.902 205.548 362.586 276.056 331.05C283.428 327.75 285.858 326.087 289.978 325.7C300.505 324.709 300.48 322.127 301.833 322.302ZM91.2214 167.444C91.839 166.311 91.7828 167.631 97.9297 168.766C102.113 168.971 106.247 167.85 109.672 165.584C114.469 162.452 114.073 160.126 115.464 160.695C117.141 161.486 118.996 161.885 120.872 161.859C122.747 161.832 124.589 161.38 126.239 160.541C128.807 158.991 127.755 157.517 125.915 158.29C123.939 159.17 121.711 159.417 119.571 158.991C117.887 158.945 116.267 158.375 114.966 157.369C113.664 156.363 112.754 154.979 112.38 153.435C109.884 144.555 120.73 138.555 124.467 146.657C126.254 150.559 132.983 144.497 133.147 133.191C133.221 128.515 130.418 119.162 129.274 112.941C128.978 111.319 130.857 113.522 135.365 114.36C141.024 115.413 150.495 115.917 155.717 113.285C157.563 112.358 160.136 125.935 168.338 140.573C173.254 149.35 172.282 148.947 168.848 151.169C166.114 152.94 165.313 153.449 165.816 155.42C166.709 160.084 166.997 164.833 166.674 169.563C166.625 170.209 166.125 171.363 165.142 171.361C163.946 171.36 162.777 171.699 161.789 172.333C160.801 172.966 160.039 173.865 159.602 174.913C159.232 176.031 156.514 173.694 152.838 175.364C150.321 176.506 151.442 177.764 149.892 177.126C148.77 176.43 147.494 175.982 146.161 175.816C144.828 175.649 143.473 175.769 142.196 176.165C138.773 177.382 139.574 177.79 133.279 196.062C131.727 200.564 129.706 205.929 129.098 207.822C123.924 201.025 119.745 193.458 103.788 182.031C99.0202 178.642 93.9856 175.598 88.7273 172.926C88.2196 172.647 88.319 172.753 91.2214 167.444ZM132.766 222.067C132.307 221.843 116.095 203.742 99.8366 204.287C98.3382 204.337 98.5986 201.887 80.9161 189.43C71.7469 182.972 68.2702 183.867 68.9186 182.71C70.0801 180.522 71.3755 178.399 72.7988 176.353C73.6221 175.475 74.6487 174.787 75.7991 174.34C76.9498 173.894 78.1937 173.701 79.4356 173.778C88.416 173.825 97.7971 181.033 107.589 188.12C123.319 199.504 133.501 219.633 132.766 222.067ZM137.379 227.155C136.993 226.888 137.346 227.155 134.624 224.157C133.859 223.317 135.135 223.466 134.553 220.557C133.021 212.876 129.573 211.036 130.65 208.938C131.209 207.851 131.942 206.252 132.71 204.577C133.157 205.007 132.884 204.51 135.046 209.572C138.119 216.772 138.336 224.913 137.379 227.155ZM299.05 233.52C298.272 233.904 298.313 230.8 295.586 229.377C293.863 228.683 292.258 227.755 290.823 226.622C289.639 225.626 292.722 224.462 294.241 224.733C298.941 225.571 302.078 225.47 302.979 229.511C302.65 231.991 301.96 232.089 299.05 233.52ZM303.071 225.093C301.11 223.972 301.955 223.859 297.016 223.123C296.13 222.991 293.417 222.402 293.417 222.402C292.176 221.846 291.933 220.83 293.279 220.055C294.369 219.652 295.51 219.376 296.671 219.232C308.993 220.439 304.255 225.77 303.071 225.093ZM197.354 263.645C206.544 256.649 268.178 231.119 270.269 226.118C274.172 217.672 280.069 210.171 287.507 204.181C288.671 203.564 289.884 204.688 288.418 207.647C286.769 210.548 284.916 213.343 282.869 216.011C282.08 217.154 282.614 217.125 282.833 218.735C283.178 221.311 280.901 223.351 280.329 225.695C279.599 228.695 286.558 224.015 284.623 217.999C284.352 217.151 284.367 217.185 285.22 216.799C294.029 212.814 311.747 203.864 310.336 207.589C310.167 208.082 309.856 208.521 309.435 208.854C306.923 210.775 304.309 212.573 301.603 214.242C297.897 216.571 297.434 217.821 295.548 217.828C294.313 217.845 293.095 218.111 291.974 218.603C291.448 218.836 290.999 219.196 290.665 219.642C290.33 220.089 290.126 220.61 290.073 221.155C289.769 222.82 291.568 223.108 290.45 223.396C289.723 223.593 289.1 224.037 288.702 224.644C288.304 225.249 288.161 225.971 288.299 226.672C288.393 227.999 283.226 226.694 281.598 229.828C281.087 230.788 277.192 228.7 273.087 231.988C272.273 232.641 271.313 234.045 272.342 234.264C273.274 234.46 274.011 233.697 276.194 232.807C277.177 232.403 280.97 231.636 281.608 232.447C283.122 234.052 285.235 235.051 287.51 235.231C288.745 235.471 290.828 235.812 291.099 234.698C291.591 232.723 285.833 232.924 284.117 231.645C283.211 230.971 283.231 230.551 284.286 230.133C295.538 225.691 305.728 240.521 282.381 240.314C277.506 240.271 278.144 238.891 264.65 254.174C262.509 256.598 219.723 306.932 217.936 306.875C210.094 306.62 209.622 307.064 207.907 305.175C205.863 303.262 203.095 302.19 200.21 302.194C200.146 302.187 200.084 302.168 200.027 302.137C199.971 302.108 199.922 302.065 199.883 302.017C199.845 301.969 199.817 301.911 199.802 301.851C199.787 301.794 199.785 301.731 199.797 301.671C200.818 294.689 199.396 273.631 197.104 264.711C196.979 264.235 196.841 264.036 197.354 263.645ZM139.972 230.397C138.819 228.995 140.406 228.05 140.355 223.974C140.309 220.449 178.788 255.175 178.681 256.944C177.761 267.54 175.912 278.05 173.152 288.36C172.003 286.623 158.433 252.809 139.972 230.397ZM186.995 307.129C180.762 307.638 180.991 307.971 180.741 307.328C173.681 289.275 174.303 295.808 177.379 282.891C182.38 261.866 180.588 258.924 180.762 257.762C180.828 257.304 181.017 257.174 181.568 257.254C182.204 257.302 182.832 257.417 183.439 257.599C196.011 262.378 195.006 265.346 196.619 280.068C197.395 286.906 197.681 293.787 197.474 300.661C197.451 302.23 197.257 302.158 196.407 302.23C188.718 302.885 188.31 307.129 186.995 307.129ZM188.634 363.345C186.554 362.817 184.432 362.298 184.731 360.957C186.873 351.306 192.195 325.285 192.006 314.742C191.901 309.015 189.272 308.571 190.954 306.821C192.873 305.283 195.327 304.467 197.847 304.527C204.772 304.215 206.204 306.834 208.134 310.239C210.193 314.485 211.037 319.16 210.585 323.807C210.194 329.612 206.166 351.647 201.568 359.279C201.101 359.277 199.19 366.023 188.634 363.345ZM292.413 322.89C285.113 324.253 291.648 321.157 255.091 337.232C248.155 340.283 240.778 344.459 207.807 354.935C207.73 354.959 207.648 354.966 207.567 354.959C207.486 354.95 207.408 354.925 207.338 354.887C207.126 354.724 212.328 335.118 213.007 327.851C214.674 309.999 208.877 309.467 211.731 309.438C223.315 309.318 247.683 312.231 271.515 312.119C281.628 312.07 286.831 299.187 297.634 295.318C297.973 295.196 298.272 295.443 298.313 295.815C298.468 297.233 293.919 300.135 292.378 303.459C292.268 303.699 292.015 303.92 292.316 304.225C292.421 304.376 292.569 304.498 292.745 304.573C292.919 304.649 293.113 304.678 293.304 304.654C295.934 304.27 298.507 303.591 300.962 302.626C301.909 302.353 308.457 300.445 309.042 301.58C309.965 303.387 304.523 303.915 304.546 307.806C304.595 319.539 300.656 321.349 292.413 322.89Z" fill="black"/>
<path d="M146.709 154.53C147.985 152.739 148.141 155.689 153.195 156.905C155.172 157.376 157.219 157.53 159.25 157.361C160.3 157.33 158.597 159.363 153.788 158.967C151.63 158.799 149.569 158.055 147.845 156.824C147.59 156.562 147.605 156.548 147.49 157.064C145.803 164.773 153.76 165.692 156.111 165.742C156.159 165.745 156.206 165.762 156.243 165.792C156.28 165.822 156.305 165.863 156.315 165.908C156.471 166.599 150.127 167.975 146.992 164.648C145.849 163.191 145.209 161.44 145.158 159.631C145.108 157.821 145.649 156.041 146.709 154.53Z" fill="black"/>
<path d="M158.086 124.404C158.086 125.311 157.736 125.726 155.306 126.084C153.975 126.36 152.725 126.908 151.645 127.69C150.564 128.471 149.68 129.466 149.055 130.605C148.613 131.167 147.712 131.186 147.505 130.204C146.995 127.773 151.048 122.908 156.82 123.218C157.701 123.261 158.078 123.631 158.086 124.404Z" fill="black"/>
<path d="M158.153 135.552C157.783 137.285 157.897 137.769 156.708 138.127C154.86 138.686 153.701 133.013 156.345 132.881C157.614 132.828 157.676 133.946 158.153 135.552Z" fill="black"/>
<path d="M365.698 1.07283C365.514 2.38313 366.757 53.4439 366.786 54.7665C366.824 56.7609 366.02 57.0465 365.611 56.4298C362.859 52.3639 363.104 -8.77955 365.698 1.07283Z" fill="black"/>
<path d="M301.552 24.728C303.684 25.9641 307.849 31.8442 325.657 54.21C335.321 66.3447 335.564 65.8622 334.765 66.7384C331.538 70.2712 302.124 26.3168 301.639 25.6065C301.212 24.9895 301.394 25.0305 301.552 24.728Z" fill="black"/>
<path d="M396.828 61.8867C397.083 61.4067 403.654 53.0426 419.506 27.1772C419.69 26.8773 419.733 26.2438 420.335 26.5388C421.813 27.2589 405.844 56.8923 398.747 62.3164C397.43 63.3242 396.779 62.9164 396.828 61.8867Z" fill="black"/>
<path d="M323.222 100.032C320.457 100.032 301.493 90.6714 296.564 86.56C295.854 85.9672 296.538 85.2688 297.177 85.5472C306.014 89.4305 324.107 98.4595 324.161 98.4834C325.062 98.8915 325.116 100.032 323.222 100.032Z" fill="black"/>
<path d="M423.779 78.4457C419.491 75.8056 433.028 73.9432 447.164 66.6255C450.383 64.96 444.992 72.6713 423.779 78.4457Z" fill="black"/>
<path d="M420.392 366.35C385.553 366.011 364.942 350.202 392.267 341.039C393.321 340.683 392.121 340.612 391.396 334.079C390.375 324.958 390.832 315.548 390.679 314.61C388.509 301.277 445.237 301.071 448.07 314.765C449.013 319.326 446.769 319.599 451.279 319.086C460.484 318.051 462.945 328.011 459.887 335.166C456.293 343.585 446.582 341.25 444.471 341.744C444.425 341.764 444.384 341.795 444.351 341.833C444.321 341.872 444.3 341.917 444.292 341.965C444.285 342.013 444.29 342.061 444.308 342.107C444.326 342.152 444.356 342.193 444.395 342.224C445.436 342.805 462.82 349.048 454.738 357.549C445.949 366.823 419.728 366.354 420.392 366.35ZM420.558 351.683C439.134 350.176 440.088 346.585 443.402 335.248C444.928 329.965 445.768 324.526 445.903 319.052C443.807 320.566 441.423 321.692 438.881 322.366C428.31 325.018 417.244 325.429 406.485 323.567C393.193 320.871 393.18 317.54 393.27 319.086C394.331 337.645 393.964 345.805 406.332 349.674C410.965 350.905 415.744 351.58 420.558 351.683ZM421.449 363.906C421.449 363.954 442.991 363.794 451.659 357.409C458.429 352.422 451.823 347.368 443.721 344.562C442.814 344.248 443.136 345.433 441.883 347.07C440.829 348.445 439.118 349.809 439.185 350.161C440.433 356.92 417.62 360.822 403.567 355.187C400.708 354.04 397.002 351.537 397.346 348.69C397.377 348.536 397.357 348.376 397.29 348.232C397.226 348.088 397.117 347.963 396.976 347.876C393.913 345.628 394.401 342.952 392.892 343.424C368.695 350.932 388.455 362.836 421.449 363.906ZM397.316 309.98C391.072 312.786 392.328 316.028 397.681 318.716C400.003 319.882 397.969 313.561 414.148 312.462C421.51 311.962 436.259 312.766 440.127 318.649C440.834 319.724 440.318 319.906 442.036 319.129C443.374 318.5 444.527 317.574 445.398 316.431C450.616 308.672 414.095 302.439 397.316 309.98ZM448.293 339.02C448.844 339.071 449.401 339.08 449.954 339.052C458.123 338.715 459.769 330.471 458.018 325.11C456.722 321.14 452.311 321.128 448.545 321.639C448.29 321.673 448.29 321.855 448.076 325.115C448.076 325.283 448.111 325.391 448.364 325.333C449.548 325.175 450.753 325.227 451.917 325.491C454.23 325.786 455.94 328.237 454.725 331.684C453.393 335.473 450.575 335.831 446.837 335.658C445.926 335.615 446.166 336.291 445.434 338.595C445.255 339.155 445.296 339.02 448.293 339.02ZM448.474 327.435C447.598 327.435 447.69 327.697 447.562 328.535C446.825 333.349 446.495 334.031 447.093 333.867C449.495 333.212 451.688 334.657 452.566 329.564C452.908 327.555 450.626 327.428 448.474 327.435Z" fill="black"/>
<path d="M375.687 271.342C375.342 275.422 374.666 275.833 370.924 276.507C364.884 277.589 346.625 279.025 346.175 281.401C345.877 283.27 345.8 285.164 345.943 287.05C345.986 287.511 346.152 287.953 346.425 288.334C346.701 288.718 347.074 289.028 347.513 289.237C357.032 295.174 366.908 300.589 377.093 305.454C377.553 305.713 378.066 305.881 378.599 305.941C379.133 306.003 379.674 305.958 380.187 305.811C383.728 305.151 387.225 304.29 390.653 303.231C412.124 296.535 414.013 296.715 415.603 293.391C417.265 289.918 418.901 268.781 418.955 267.826C419.039 266.331 419.192 266.597 420.032 266.935C446.684 277.707 448.338 278.631 451.984 278.201C461.556 277.068 463.006 275.112 463.726 268.476C465.572 251.731 464.237 255.051 470.917 190.364C479.085 111.305 481.406 105.374 473.863 102.225C472.206 101.532 421.954 90.9906 374.65 84.2801C350.941 80.9202 349.928 79.8642 347.903 93.2682C345.785 107.282 331.742 226.632 335.86 229.574C347.388 237.813 376.996 248.27 376.986 249.626C377.246 249.626 376.721 259.155 375.687 271.342ZM411.263 286.023C410.63 291.373 412.129 291.226 380.532 299.185C378.724 299.641 378.528 299.403 369.714 294.73C358.64 288.86 349.203 282.939 349.152 282.891C348.621 282.392 347.901 281.859 354.635 280.683C372.476 277.563 375.996 278.197 376.861 274.56C378.188 266.621 378.857 258.595 378.86 250.56C378.86 249.97 378.901 249.948 379.498 250.198C414.516 264.761 413.308 262.87 413.308 266.931C413.717 266.979 411.263 285.109 411.263 286.023ZM462.843 102.002C462.96 101.975 463.083 101.967 463.203 101.978C472.206 104.378 476.091 102.218 476.326 112.037C476.502 119.434 467.496 187.369 462.945 249.065C460.923 276.478 462.317 273.785 453.781 275.607C450.261 276.351 450.503 276.132 450.547 275.717C453.153 251.659 452.545 248.923 460.438 155.434C464.773 104.068 466.337 110.705 462.843 102.002ZM354.865 94.0578C355.013 92.3779 354.668 91.6578 355.498 91.8258C373.788 95.7644 437.028 107.541 454.133 110.685C456.032 111.036 453.013 110.63 443.899 234.72C443.45 240.835 443.846 240.797 442.94 240.463L355.005 208.139C341.846 203.411 343.263 204.721 342.752 200.939C353.466 97.922 351.934 126.989 354.865 94.0578ZM337.971 213.422C338.099 211.718 337.785 213.004 368.455 225.05C385.502 231.744 437.045 251.045 449.485 254.849C449.995 255.002 449.886 255.187 449.886 256.644C447.997 275.866 449.411 276.449 449.161 276.792C449.125 276.84 376.777 246.422 371.837 244.291C361.601 239.873 343.692 232.444 336.452 227.392C337.144 221.287 337.302 222.333 337.971 213.422Z" fill="black"/>
<path d="M384.996 242.016C384.955 241.423 385.116 240.833 385.458 240.331C385.8 239.832 386.303 239.448 386.895 239.237C387.488 239.025 388.136 238.999 388.744 239.16C389.354 239.321 389.89 239.661 390.278 240.132C390.778 240.758 391.056 241.514 391.077 242.297C391.095 243.079 390.855 243.849 390.385 244.495C388.769 246.629 384.713 244.994 384.996 242.016Z" fill="black"/>
<path d="M412.813 212.942C413.02 209.067 413.459 205.207 414.122 201.378C415.787 192.21 414.189 193.057 429.85 196.276C430.615 196.434 430.761 196.228 430.82 195.868C431.677 190.489 431.455 192.121 436.127 170.386C436.3 169.578 435.422 170.168 432.714 169.724C428.611 169.065 424.581 168.063 420.67 166.731C419.682 166.335 419.759 172.698 417.905 177.421C417.352 178.834 415.521 178.338 413.535 177.915C404.062 175.892 396.889 174.217 392.277 173.055C377.236 169.261 378.237 169.885 378.612 163.145C378.867 158.396 380.368 159.238 376.34 158.809C366.229 157.726 366.64 156.476 366.492 157.656C365.902 163.9 364.902 170.103 363.5 176.231C363.245 176.859 362.847 176.362 373.966 179.725C375.429 180.167 375.98 180.039 375.98 180.815C375.98 185.036 376.202 182.943 374.194 196.429C373.412 201.709 373.484 203.31 371.595 202.811C366.316 201.414 352.705 197.032 351.03 195.628C349.3 194.171 352.463 178.506 352.889 176.37C352.97 175.896 353.246 175.472 353.657 175.187C354.068 174.903 354.581 174.78 355.087 174.846C362.51 176.461 362.132 176.588 362.094 175.547C362.52 169.366 363.344 163.215 364.567 157.129C365.078 155.125 366.816 155.209 369.606 155.71C372.708 156.154 375.776 156.776 378.796 157.573C379.529 157.798 379.355 157.729 380.912 148.056C381.392 145.08 381.604 145.392 382.395 145.443C391.021 145.983 397.28 148.827 397.043 147.694C396.532 145.22 397.001 143.134 398.099 133.234C398.326 131.187 381.029 130.387 383.255 126.955C383.853 126.036 383.064 125.251 383.388 122.705C385.326 107.584 383.97 106.797 386.551 106.752C396.039 106.576 420.246 112.579 420.29 112.593C421.311 112.821 421.525 113.141 421.262 117.153C421.262 117.201 419.986 130.752 419.646 132.444C419.414 133.294 419.085 134.119 418.669 134.904C418.582 135.135 418.411 135.328 418.184 135.45C417.959 135.571 417.694 135.613 417.438 135.567C411.825 134.982 406.247 134.133 400.726 133.023C399.815 132.838 400.642 133.068 399.174 145.604C398.824 148.604 398.663 148.455 399.493 148.681C406.319 150.298 413.05 152.252 419.659 154.534C421.735 155.307 421.497 154.294 420.788 161.993C420.504 165.068 420.193 165.224 421.043 165.339C426.561 165.996 431.971 167.303 437.142 169.23C439.131 169.95 433.237 194.339 432.706 196.29C432.351 197.593 433.423 196.374 439.687 198.93C441.02 199.477 441.638 199.196 441.819 200.577C441.747 208.786 440.892 216.972 439.266 225.038C439.253 225.18 439.185 225.312 439.072 225.408C438.957 225.504 438.809 225.554 438.659 225.549C430.467 223.343 422.398 220.747 414.487 217.771C412.341 216.945 412.849 215.308 412.813 212.942ZM379.919 167.144C379.636 168.104 379.878 167.324 402.829 173.562C416.974 177.402 416.458 178.059 416.685 175.916C418.661 157.215 420.341 155.456 418.929 155.172C407.817 152.938 416.231 154.791 394.053 149.722C380.014 146.513 383.248 146.391 382.643 150.802C381.07 162.279 380.471 164.521 379.919 167.144ZM384.991 126.502C384.935 127.406 405.576 131.65 412.614 133.313C416.752 134.29 417.05 135.065 417.15 133.894C417.707 127.279 417.735 124.447 419.302 114.213C419.501 112.905 419.501 113.561 415.075 113.033C409.076 112.313 391.539 109.488 387.427 108.883C385.849 108.638 388.054 109.538 384.991 126.502ZM439.823 200.684C440.004 199.345 433.819 200.097 417.931 195.824C417.035 195.584 417.308 195.584 416.833 198.357C416.129 202.482 413.714 215.791 414.462 215.901C414.801 215.949 424.982 219.175 437.114 224.157C438.166 224.589 437.469 224.599 438.061 217.648C438.056 217.6 439.723 201.392 439.823 200.684ZM374.319 180.673C371.904 180.604 369.504 180.27 367.171 179.677C363.02 178.865 358.926 177.806 354.918 176.506C353.872 176.127 354.956 177.039 351.855 193.787C351.6 195.186 352.404 194.485 355.916 195.733C372.961 201.788 371.878 202.83 371.858 201.517C371.745 193.496 374.331 182.698 374.319 180.673Z" fill="black"/>
<path d="M394.687 156.558C394.319 157.671 395.072 156.423 401.678 158.329C403.675 158.905 404.576 159.195 404.514 159.586C404.407 160.261 400.364 160.964 398.133 159.903C396.032 158.902 395.151 160.172 392.917 159.361C391.08 158.691 391.935 156.781 391.965 156.62C392.121 155.78 391.286 156.188 388.295 156.997C387.738 157.148 387.018 157.642 386.508 157.119C384.568 155.096 396.361 151.47 394.687 156.558Z" fill="black"/>
<path d="M394.612 165.14C390.911 165.03 392.249 164.01 390.449 164.468C389.882 164.657 389.267 164.668 388.693 164.5C388.118 164.332 387.618 163.995 387.266 163.537C386.755 162.538 386.04 163.023 385.022 163.131C384.374 163.198 383.761 162.608 384.43 161.876C384.69 161.561 385.014 161.299 385.387 161.108C385.757 160.916 386.168 160.798 386.589 160.761C387.011 160.724 387.437 160.77 387.84 160.894C388.244 161.019 388.613 161.22 388.93 161.485C389.872 162.594 391.1 161.245 393.466 162.522C394.288 162.963 397.775 162.042 398.104 163.683C398.186 164.098 397.543 164.807 396.769 164.96C396.055 165.065 395.335 165.125 394.612 165.14Z" fill="black"/>
<path d="M402.104 120.062C399.766 119.633 399.937 119.429 398.738 119.705C398.286 119.808 395.271 120.948 395.057 118.281C394.977 117.309 394.995 117.492 391.639 118.416C391.365 118.518 391.08 118.589 390.789 118.629C390.651 118.648 390.51 118.629 390.385 118.575C390.258 118.521 390.15 118.434 390.074 118.325C390 118.215 389.959 118.088 389.956 117.958C389.954 117.827 389.992 117.699 390.066 117.588C391.45 116.221 393.328 115.39 395.33 115.26C398.321 115.005 397.385 117.561 398.459 117.144C400.32 116.424 401.209 117.336 403.289 117.384C404.951 117.427 407.006 117.345 408.034 118.627C409.063 119.909 405.872 119.8 402.104 120.062Z" fill="black"/>
<path d="M394.385 122.028C394.87 121.97 395.365 122.015 395.83 122.159C396.297 122.303 396.721 122.543 397.076 122.861C398.145 123.749 403.149 123.432 404.928 124.517C406.477 125.46 404.134 126.991 401.237 126.108C400.006 125.814 398.758 125.592 397.499 125.446C395.388 125.066 395.281 123.597 393.318 124.066C392.402 124.284 391.174 124.08 391.197 123.204C391.217 122.47 391.886 122.378 393.602 122.038C393.862 122.01 394.125 122.007 394.385 122.028Z" fill="black"/>
<path d="M430.421 210.7C432.249 211.437 434.074 210.911 435.488 212.38C435.858 212.764 435.782 213.127 435.233 213.295C434.554 213.636 433.763 213.731 433.015 213.561C431.659 213.5 430.324 213.238 429.056 212.783C427.999 212.479 426.886 212.397 425.791 212.543C423.062 212.812 423.968 210.309 421.661 210.525C419.555 210.722 419.108 210.806 418.643 210.64C417.367 210.16 418.133 208.989 419.289 208.674C425.786 206.927 424.303 210.573 426.526 210.331C427.838 210.183 429.168 210.309 430.421 210.7Z" fill="black"/>
<path d="M428.665 206.425C427.218 206.353 425.768 206.445 424.346 206.701C421.222 206.757 422.733 204.225 421.227 204.501C420.611 204.633 419.983 204.702 419.353 204.707C417.002 203.773 419.966 202.41 422.416 202.141C424.259 201.94 424.162 204.16 424.558 204.393C424.897 204.594 428.448 203.469 429.717 205.057C430.309 205.797 429.793 206.421 429.14 206.425H428.665Z" fill="black"/>
<path d="M360.69 189.198C362.153 189.179 363.531 189.644 364.963 189.74C366.362 189.843 367.728 190.18 368.999 190.736C369.576 190.976 369.601 191.197 369.091 191.564C366.936 193.12 363.567 191.725 360.667 191.673C358.056 191.624 357.52 189.87 355.914 190.473C355.209 190.732 354.349 189.856 354.842 189.272C357.137 186.486 359.334 189.217 360.69 189.198Z" fill="black"/>
<path d="M359.669 185.084C356.241 186.14 355.896 183.933 358.137 183.323C359.883 182.843 361.742 182.209 362.576 183.642C363.291 184.871 363.934 183.537 365.3 184.233C366.155 184.667 365.688 185.673 364.991 185.941C359.781 188.025 361.456 184.533 359.669 185.084Z" fill="black"/>
</svg>
